<svg width="218" height="90" viewBox="0 0 218 90" fill="none" xmlns="http://www.w3.org/2000/svg">
<rect width="218" height="90" fill="#F5F5F5"/>
<g filter="url(#filter0_d_4_2)">
<path d="M4 41C4 18.3563 22.3563 0 45 0H173C195.644 0 214 18.3563 214 41V41C214 63.6437 195.644 82 173 82H45C22.3563 82 4 63.6437 4 41V41Z" fill="#00BBFF"/>
<path d="M45 0.5H173C195.368 0.500002 213.5 18.6325 213.5 41C213.5 63.3675 195.368 81.5 173 81.5H45C22.6325 81.5 4.5 63.3675 4.5 41C4.5 18.6325 22.6325 0.5 45 0.5Z" stroke="white"/>
</g>
<path d="M51.8405 31.8C51.8405 32.44 52.0645 32.9947 52.5125 33.464C52.9818 33.912 53.5472 34.136 54.2085 34.136C54.8485 34.136 55.3925 33.912 55.8405 33.464C56.3098 32.9947 56.5445 32.44 56.5445 31.8C56.5445 31.1387 56.3098 30.584 55.8405 30.136C55.3925 29.688 54.8485 29.464 54.2085 29.464C53.5472 29.464 52.9818 29.688 52.5125 30.136C52.0645 30.584 51.8405 31.1387 51.8405 31.8ZM50.3045 31.8C50.3045 31.0747 50.4752 30.424 50.8165 29.848C51.1792 29.2507 51.6485 28.7813 52.2245 28.44C52.8218 28.0773 53.4832 27.896 54.2085 27.896C54.9125 27.896 55.5525 28.0773 56.1285 28.44C56.7258 28.7813 57.1952 29.2507 57.5365 29.848C57.8992 30.424 58.0805 31.0747 58.0805 31.8C58.0805 32.504 57.8992 33.1547 57.5365 33.752C57.1952 34.328 56.7258 34.7973 56.1285 35.16C55.5525 35.5013 54.9125 35.672 54.2085 35.672C53.4832 35.672 52.8218 35.5013 52.2245 35.16C51.6485 34.7973 51.1792 34.328 50.8165 33.752C50.4752 33.1547 50.3045 32.504 50.3045 31.8ZM31.0085 42.584C31.4352 42.2213 31.8085 41.88 32.1285 41.56C32.4698 41.24 32.8538 40.8667 33.2805 40.44C33.6645 40.056 34.1018 39.5653 34.5925 38.968C35.1045 38.3707 35.6485 37.7307 36.2245 37.048C36.8218 36.344 37.4085 35.64 37.9845 34.936C38.5605 34.2107 39.0938 33.56 39.5845 32.984C40.4378 31.9813 41.2805 31.4267 42.1125 31.32C42.9445 31.192 43.9045 31.64 44.9925 32.664C45.6538 33.2613 46.3685 33.9653 47.1365 34.776C47.9258 35.5653 48.7045 36.3653 49.4725 37.176C50.2405 37.9867 50.9338 38.7227 51.5525 39.384C52.2778 40.1307 53.0885 40.9947 53.9845 41.976C54.8805 42.936 55.7978 43.928 56.7365 44.952C57.6752 45.9547 58.5498 46.8933 59.3605 47.768L57.1525 50.104C56.4058 49.1867 55.6058 48.2373 54.7525 47.256C53.9205 46.2533 53.0885 45.2827 52.2565 44.344C51.4458 43.384 50.6992 42.52 50.0165 41.752C49.5472 41.2187 49.0245 40.6427 48.4485 40.024C47.8725 39.4053 47.2965 38.7867 46.7205 38.168C46.1445 37.5493 45.6005 36.9733 45.0885 36.44C44.5978 35.9067 44.1818 35.48 43.8405 35.16C43.2218 34.5627 42.7098 34.2853 42.3045 34.328C41.9205 34.3707 41.4512 34.7227 40.8965 35.384C40.5125 35.8533 40.0752 36.408 39.5845 37.048C39.0938 37.6667 38.5818 38.3173 38.0485 39C37.5152 39.6827 37.0032 40.3333 36.5125 40.952C36.0218 41.5707 35.5952 42.104 35.2325 42.552C34.9125 42.9573 34.5818 43.384 34.2405 43.832C33.9205 44.28 33.6432 44.6747 33.4085 45.016L31.0085 42.584ZM64.5765 37.144C64.8965 37.1653 65.2912 37.1973 65.7605 37.24C66.2298 37.2613 66.7418 37.2827 67.2965 37.304C67.8725 37.304 68.4485 37.304 69.0245 37.304C69.3658 37.304 69.8885 37.304 70.5925 37.304C71.3178 37.304 72.1605 37.304 73.1205 37.304C74.0805 37.304 75.0938 37.304 76.1605 37.304C77.2485 37.304 78.3258 37.304 79.3925 37.304C80.4805 37.304 81.5045 37.304 82.4645 37.304C83.4458 37.304 84.2885 37.304 84.9925 37.304C85.6965 37.304 86.2192 37.304 86.5605 37.304C87.3712 37.304 88.0645 37.2827 88.6405 37.24C89.2165 37.1973 89.6752 37.1653 90.0165 37.144V40.28C89.6965 40.2587 89.2165 40.2267 88.5765 40.184C87.9578 40.1413 87.2965 40.12 86.5925 40.12C86.2512 40.12 85.7178 40.12 84.9925 40.12C84.2672 40.12 83.4245 40.12 82.4645 40.12C81.5258 40.12 80.5125 40.12 79.4245 40.12C78.3365 40.12 77.2485 40.12 76.1605 40.12C75.0938 40.12 74.0805 40.12 73.1205 40.12C72.1818 40.12 71.3498 40.12 70.6245 40.12C69.8992 40.12 69.3658 40.12 69.0245 40.12C68.1498 40.12 67.3178 40.1413 66.5285 40.184C65.7392 40.2053 65.0885 40.2373 64.5765 40.28V37.144ZM115.6 27.128C115.877 27.4907 116.197 27.9707 116.56 28.568C116.944 29.1653 117.317 29.7733 117.68 30.392C118.042 31.0107 118.341 31.576 118.576 32.088L116.752 32.92C116.496 32.3653 116.208 31.8 115.888 31.224C115.568 30.6267 115.237 30.04 114.896 29.464C114.554 28.888 114.202 28.3547 113.84 27.864L115.6 27.128ZM119.792 25.592C120.09 25.9547 120.421 26.424 120.784 27C121.146 27.576 121.52 28.1733 121.904 28.792C122.288 29.4107 122.608 29.976 122.864 30.488L121.04 31.32C120.762 30.744 120.453 30.168 120.112 29.592C119.77 29.016 119.418 28.4507 119.056 27.896C118.714 27.3413 118.362 26.8293 118 26.36L119.792 25.592ZM101.936 26.648C102.405 26.904 102.96 27.2453 103.6 27.672C104.24 28.0773 104.901 28.504 105.584 28.952C106.266 29.3787 106.896 29.7947 107.472 30.2C108.069 30.584 108.538 30.904 108.88 31.16L107.376 33.368C106.992 33.0693 106.501 32.7173 105.904 32.312C105.328 31.9067 104.709 31.4907 104.048 31.064C103.408 30.616 102.768 30.2 102.128 29.816C101.509 29.4107 100.965 29.0693 100.496 28.792L101.936 26.648ZM97.1355 49.528C98.3088 49.3147 99.5142 49.0373 100.752 48.696C101.989 48.3547 103.216 47.9387 104.432 47.448C105.648 46.9573 106.789 46.4133 107.856 45.816C109.626 44.792 111.269 43.6613 112.784 42.424C114.298 41.1653 115.664 39.832 116.88 38.424C118.096 37.016 119.13 35.5653 119.984 34.072L121.52 36.728C120.133 38.8613 118.373 40.9307 116.24 42.936C114.106 44.92 111.76 46.6587 109.2 48.152C108.133 48.7707 106.96 49.3467 105.68 49.88C104.421 50.392 103.173 50.84 101.936 51.224C100.72 51.6293 99.6102 51.928 98.6075 52.12L97.1355 49.528ZM97.1035 33.848C97.5728 34.104 98.1382 34.424 98.7995 34.808C99.4608 35.192 100.133 35.5973 100.816 36.024C101.498 36.4507 102.128 36.856 102.704 37.24C103.301 37.6027 103.77 37.912 104.112 38.168L102.672 40.408C102.266 40.1093 101.765 39.768 101.168 39.384C100.592 39 99.9728 38.5947 99.3115 38.168C98.6502 37.7413 97.9995 37.3467 97.3595 36.984C96.7195 36.6 96.1542 36.28 95.6635 36.024L97.1035 33.848ZM140.272 29.464H155.472V31.768H139.152L140.272 29.464ZM144.272 36.408H154.736V38.616H144.272V36.408ZM144.272 43.48H155.152V45.752H144.272V43.48ZM143.088 30.232H145.52V53.528H143.088V30.232ZM141.52 24.504L143.824 25.112C143.226 26.7973 142.522 28.4613 141.712 30.104C140.922 31.7253 140.069 33.2507 139.152 34.68C138.234 36.1093 137.285 37.3787 136.304 38.488C136.176 38.36 135.994 38.1893 135.76 37.976C135.546 37.7627 135.312 37.5493 135.056 37.336C134.821 37.1227 134.618 36.9627 134.448 36.856C135.408 35.8533 136.325 34.6907 137.2 33.368C138.074 32.0453 138.874 30.6267 139.6 29.112C140.346 27.5973 140.986 26.0613 141.52 24.504ZM133.808 24.248L136.112 24.952C135.429 26.744 134.618 28.536 133.68 30.328C132.741 32.0987 131.728 33.7627 130.64 35.32C129.552 36.856 128.421 38.232 127.248 39.448C127.162 39.256 127.034 39.0107 126.864 38.712C126.693 38.392 126.512 38.072 126.32 37.752C126.149 37.432 125.989 37.1867 125.84 37.016C126.906 35.9707 127.93 34.7653 128.911 33.4C129.893 32.0347 130.8 30.5733 131.632 29.016C132.485 27.4373 133.21 25.848 133.808 24.248ZM130.416 32.472L132.784 30.072L132.816 30.136V53.496H130.416V32.472ZM162.16 36.12H170.096V38.36H162.16V36.12ZM169.168 36.12H171.504C171.504 36.12 171.504 36.184 171.504 36.312C171.504 36.4187 171.493 36.5573 171.472 36.728C171.472 36.8987 171.472 37.0373 171.472 37.144C171.429 39.5333 171.365 41.4747 171.28 42.968C171.216 44.44 171.12 45.56 170.992 46.328C170.885 47.096 170.714 47.6293 170.48 47.928C170.224 48.2267 169.946 48.44 169.648 48.568C169.37 48.696 169.008 48.792 168.56 48.856C168.133 48.8987 167.578 48.92 166.896 48.92C166.213 48.8987 165.477 48.8667 164.688 48.824C164.666 48.4827 164.592 48.1093 164.464 47.704C164.357 47.2773 164.208 46.904 164.016 46.584C164.741 46.6693 165.424 46.7227 166.064 46.744C166.704 46.744 167.152 46.744 167.408 46.744C167.642 46.744 167.834 46.7227 167.984 46.68C168.154 46.6373 168.304 46.5413 168.432 46.392C168.581 46.2 168.698 45.7733 168.784 45.112C168.89 44.4293 168.965 43.4053 169.008 42.04C169.072 40.6533 169.125 38.808 169.168 36.504V36.12ZM178.16 25.72L179.6 24.248C180.282 24.568 180.986 24.952 181.712 25.4C182.458 25.8267 183.152 26.264 183.792 26.712C184.432 27.1387 184.965 27.5333 185.392 27.896L183.888 29.56C183.482 29.176 182.96 28.76 182.32 28.312C181.68 27.8427 180.997 27.384 180.272 26.936C179.546 26.488 178.842 26.0827 178.16 25.72ZM182.768 34.392L185.168 35C183.802 39.1813 181.936 42.808 179.568 45.88C177.2 48.952 174.384 51.4587 171.12 53.4C170.992 53.2293 170.821 53.016 170.608 52.76C170.394 52.5253 170.17 52.28 169.936 52.024C169.722 51.7893 169.53 51.5867 169.36 51.416C172.602 49.7093 175.344 47.416 177.584 44.536C179.824 41.6347 181.552 38.2533 182.768 34.392ZM162.352 29.56H187.12V31.896H162.352V29.56ZM160.784 29.56H163.28V38.584C163.28 39.7147 163.237 40.9413 163.152 42.264C163.066 43.5867 162.906 44.9307 162.672 46.296C162.437 47.6613 162.096 48.9947 161.648 50.296C161.2 51.576 160.602 52.7387 159.856 53.784C159.728 53.6133 159.536 53.4213 159.28 53.208C159.045 52.9947 158.789 52.792 158.512 52.6C158.256 52.408 158.032 52.2693 157.84 52.184C158.736 50.8613 159.386 49.4107 159.792 47.832C160.218 46.2533 160.485 44.664 160.592 43.064C160.72 41.4427 160.784 39.9387 160.784 38.552V29.56ZM174.096 24.152H176.592C176.57 27.1173 176.677 29.9333 176.912 32.6C177.146 35.2667 177.477 37.72 177.904 39.96C178.33 42.1787 178.842 44.1093 179.44 45.752C180.058 47.3733 180.73 48.632 181.456 49.528C182.202 50.424 182.981 50.872 183.792 50.872C184.261 50.872 184.602 50.424 184.816 49.528C185.05 48.6107 185.21 47.0853 185.296 44.952C185.573 45.208 185.904 45.464 186.288 45.72C186.693 45.976 187.056 46.1573 187.376 46.264C187.226 48.0987 187.013 49.528 186.736 50.552C186.48 51.576 186.096 52.2907 185.584 52.696C185.093 53.1227 184.432 53.336 183.6 53.336C182.533 53.336 181.552 52.9733 180.656 52.248C179.76 51.5227 178.96 50.4987 178.256 49.176C177.573 47.8533 176.976 46.296 176.464 44.504C175.952 42.6907 175.514 40.696 175.152 38.52C174.81 36.344 174.554 34.0507 174.384 31.64C174.213 29.208 174.117 26.712 174.096 24.152Z" fill="white"/>
<defs>
<filter id="filter0_d_4_2" x="0" y="0" width="218" height="90" filterUnits="userSpaceOnUse" color-interpolation-filters="sRGB">
<feFlood flood-opacity="0" result="BackgroundImageFix"/>
<feColorMatrix in="SourceAlpha" type="matrix" values="0 0 0 0 0 0 0 0 0 0 0 0 0 0 0 0 0 0 127 0" result="hardAlpha"/>
<feOffset dy="4"/>
<feGaussianBlur stdDeviation="2"/>
<feComposite in2="hardAlpha" operator="out"/>
<feColorMatrix type="matrix" values="0 0 0 0 0 0 0 0 0 0 0 0 0 0 0 0 0 0 0.25 0"/>
<feBlend mode="normal" in2="BackgroundImageFix" result="effect1_dropShadow_4_2"/>
<feBlend mode="normal" in="SourceGraphic" in2="effect1_dropShadow_4_2" result="shape"/>
</filter>
</defs>
</svg>
