<?xml version="1.0" encoding="UTF-8"?>
<svg version="1.1" xmlns="http://www.w3.org/2000/svg" width="1231" height="368">
<path d="M0 0 C406.23 0 812.46 0 1231 0 C1231 121.44 1231 242.88 1231 368 C824.77 368 418.54 368 0 368 C0 246.56 0 125.12 0 0 Z " fill="#ffffff" fill-opacity="0.5" transform="translate(0,0)"/>
<path d="M0 0 C2.19034294 0.00119706 4.38068641 0.00164385 6.57102966 0.00138855 C11.12673227 0.00293872 15.68235467 0.01111382 20.23803711 0.0246582 C26.02222875 0.04165556 31.80633291 0.04547118 37.59054661 0.04471302 C42.1026439 0.04498738 46.61472279 0.0505106 51.12681389 0.05771446 C53.25745442 0.06085353 55.38809699 0.06285712 57.5187397 0.06360817 C106.88442179 0.1000889 106.88442179 0.1000889 115.62109375 5.23046875 C115.62109375 5.89046875 115.62109375 6.55046875 115.62109375 7.23046875 C112.47720253 8.14467332 109.59786084 8.38944163 106.32910156 8.46411133 C104.72719467 8.50498116 104.72719467 8.50498116 103.09292603 8.54667664 C101.93175262 8.57252335 100.77057922 8.59837006 99.57421875 8.625 C97.05678048 8.69069702 94.53936587 8.75730544 92.02197266 8.82470703 C91.36342726 8.84192779 90.70488186 8.85914854 90.02638054 8.87689114 C50.93708648 9.9048565 12.35115842 12.57530081 -26.37890625 18.16796875 C-27.51237488 18.3310553 -28.64584351 18.49414185 -29.81365967 18.66217041 C-41.83119398 20.41142366 -53.78617638 22.3938708 -65.69140625 24.796875 C-67.19537964 25.09319069 -67.19537964 25.09319069 -68.72973633 25.39549255 C-75.5861209 26.66338425 -75.5861209 26.66338425 -81.37890625 30.23046875 C-82.26963771 32.81801233 -82.83573104 35.03957688 -83.3046875 37.703125 C-84.64800617 44.2417895 -86.29301648 50.56559625 -88.359375 56.9140625 C-88.62017853 57.71615143 -88.88098206 58.51824036 -89.14968872 59.34463501 C-89.94996121 61.78752534 -90.75815899 64.22770707 -91.56640625 66.66796875 C-92.11844612 68.35592121 -92.6698811 70.04407161 -93.22070312 71.73242188 C-93.74555996 73.33481035 -94.27093021 74.93703078 -94.796875 76.5390625 C-95.04165085 77.28473984 -95.2864267 78.03041718 -95.53862 78.7986908 C-97.25984989 83.99235602 -97.25984989 83.99235602 -98.37890625 86.23046875 C-97.55390625 85.988125 -96.72890625 85.74578125 -95.87890625 85.49609375 C-89.12167099 83.53528887 -82.35697693 81.68373344 -75.52148438 80.01049805 C-70.77310812 78.84265713 -66.04094019 77.62128928 -61.3125 76.375 C-46.35875253 72.44030081 -31.40656918 68.76397738 -16.2253418 65.78955078 C-14.53806863 65.45814538 -12.85207807 65.11989206 -11.16923523 64.76667786 C-5.40192428 63.57160719 0.33950049 62.66580769 6.1875 61.9765625 C7.06526596 61.87078384 7.94303192 61.76500519 8.84739685 61.65602112 C10.69335564 61.43478526 12.5395571 61.21556557 14.38598633 60.99829102 C17.15335105 60.6715396 19.9194352 60.33522138 22.68554688 59.99804688 C42.6129459 57.6034558 62.30629308 56.99037108 82.37109375 56.98046875 C83.60486755 56.97979401 84.83864136 56.97911926 86.10980225 56.97842407 C117.49108599 57.00555867 147.78419124 59.28534381 178.62109375 65.23046875 C179.78415039 65.4507373 180.94720703 65.67100586 182.14550781 65.89794922 C201.04441371 69.51336926 219.6804051 74.09501542 238.3062439 78.89820862 C248.96079726 81.62956042 255.54042831 82.45503653 265.453125 77.140625 C271.95693727 73.21909084 278.93199702 69.00803867 283.30859375 62.66796875 C285.62109375 60.23046875 285.62109375 60.23046875 287.50805664 60.08032227 C288.23758545 60.13115967 288.96711426 60.18199707 289.71875 60.234375 C294.68945822 60.37044272 298.68075281 59.25129814 303.37109375 57.73046875 C322.72825239 52.03485205 342.78088778 57.19292654 360.296875 66.6796875 C367.86649038 71.2039294 374.31599148 76.94966776 380.91210938 82.74804688 C384.37265674 85.74982454 387.94822812 88.61007728 391.51171875 91.48828125 C393.62109375 93.23046875 393.62109375 93.23046875 395.62109375 95.23046875 C409.07855507 96.50181922 423.10441284 94.78428475 436.58616543 94.16426945 C495.36971924 91.46738792 554.08588241 90.04921647 612.93359375 90.04296875 C614.03754864 90.04244633 615.14150352 90.0419239 616.27891159 90.04138565 C648.20528963 90.02746868 680.16682889 90.05796491 712.05859375 91.73046875 C718.96144143 92.07929547 725.85994608 92.34651426 732.76953125 92.515625 C733.67475021 92.53866196 734.57996918 92.56169891 735.51261902 92.58543396 C744.54846085 92.81347604 753.58471415 93.02496132 762.62109375 93.23046875 C762.62109375 93.56046875 762.62109375 93.89046875 762.62109375 94.23046875 C757.84725198 95.43549218 753.15436077 95.42936216 748.26269531 95.49584961 C747.32143358 95.51233268 746.38017185 95.52881575 745.41038704 95.5457983 C743.35872226 95.58113157 741.30702023 95.6143503 739.25529099 95.64571762 C735.95906433 95.6961176 732.66296747 95.75193568 729.36685181 95.80911255 C724.65327194 95.89034716 719.93966218 95.96929864 715.22601318 96.04641724 C702.94861702 96.248061 690.67153785 96.46741103 678.39453125 96.69140625 C676.57360899 96.72453887 676.57360899 96.72453887 674.71590042 96.75834084 C652.04157265 97.17426231 629.38076707 97.7953369 606.71557617 98.55273438 C604.23226362 98.63555198 601.74894667 98.71823773 599.265625 98.80078125 C597.50018593 98.8596048 597.50018593 98.8596048 595.69908142 98.9196167 C585.48232827 99.25191569 575.26553104 99.44908862 565.04501343 99.61981201 C542.48485497 99.99949195 519.94142318 100.75289401 497.39362717 101.57011795 C494.7376432 101.66601719 492.08161333 101.76053367 489.42556763 101.85470581 C470.31911109 102.53487164 451.22994416 103.33268162 432.14833069 104.53282166 C425.34163933 104.95967908 418.53534804 105.35201411 411.72265625 105.66772461 C410.70624872 105.71650112 410.70624872 105.71650112 409.66930771 105.76626301 C388.89741248 106.69026194 388.89741248 106.69026194 382.05859375 100.73046875 C380.23564732 98.90752232 378.42284526 97.07436649 376.62109375 95.23046875 C374.35745292 93.6963425 372.18282531 92.30621504 369.80859375 90.98046875 C369.23391357 90.65804199 368.6592334 90.33561523 368.06713867 90.00341797 C347.42467994 78.84579586 325.28606079 76.10859105 302.62109375 82.23046875 C293.22633905 85.33390457 285.05818287 90.17096426 276.74853516 95.44726562 C266.72892974 101.80736236 258.67123111 102.59131066 247.08984375 100.1328125 C236.27882569 97.65610024 225.60072301 94.69592322 214.93359375 91.66796875 C196.28605349 86.39866381 177.6836279 82.62408079 158.55859375 79.54296875 C157.63259369 79.39230957 156.70659363 79.24165039 155.75253296 79.08642578 C116.35888423 72.71808453 76.9648132 71.39866168 37.31933594 75.8203125 C33.91392093 76.19799254 30.50704359 76.54714251 27.09765625 76.88671875 C-1.78797941 79.86189862 -30.23213119 85.14937335 -58.37890625 92.23046875 C-60.16409668 92.67374512 -60.16409668 92.67374512 -61.98535156 93.12597656 C-74.10663729 96.14392934 -86.10741376 99.34676886 -97.98144531 103.22924805 C-105.87938411 105.78338191 -114.03280945 108.23046875 -122.37890625 108.23046875 C-120.6451179 96.62261013 -116.15604527 85.68610042 -111.94140625 74.79296875 C-110.07463695 69.94351119 -108.2179254 65.09052258 -106.37890625 60.23046875 C-105.93216553 59.05210449 -105.4854248 57.87374023 -105.02514648 56.65966797 C-101.78258294 47.87952309 -99.56866835 39.10242046 -97.61914062 29.9609375 C-95.80095026 21.88119838 -93.58536088 15.95376086 -86.37890625 11.23046875 C-77.05713609 7.88757174 -66.82962749 6.46350572 -57.12890625 4.60546875 C-55.54408447 4.2962146 -55.54408447 4.2962146 -53.92724609 3.98071289 C-36.01229079 0.66487231 -18.18293831 -0.06691599 0 0 Z " fill="#00bfff" transform="translate(147.37890625,255.76953125)"/>
<path d="M0 0 C3.34009223 1.26464561 5.69300203 3.0649341 8.49609375 5.28125 C9.05675537 5.723479 9.61741699 6.16570801 10.19506836 6.62133789 C20.11307821 14.51369352 29.58452613 22.90832652 38.88671875 31.51171875 C41.73488516 34.13086593 44.63355906 36.68182008 47.5546875 39.21875 C49.96785123 41.32615224 52.35929712 43.45653004 54.74609375 45.59375 C55.54402344 46.30789062 56.34195313 47.02203125 57.1640625 47.7578125 C62.18225959 52.39125386 66.84023084 57.35210365 71.49609375 62.34375 C72.09099609 62.97796875 72.68589844 63.6121875 73.29882812 64.265625 C77.16712543 68.40871938 80.89693384 72.64184196 84.55859375 76.96875 C81.09856216 76.96875 80.55493718 76.47366234 77.92578125 74.3984375 C77.21043213 73.83858154 76.49508301 73.27872559 75.75805664 72.7019043 C74.99098389 72.08871338 74.22391113 71.47552246 73.43359375 70.84375 C72.63751709 70.21573486 71.84144043 69.58771973 71.02124023 68.94067383 C63.39162688 62.89645423 55.87885348 56.71041077 48.39208984 50.49072266 C44.13544027 46.95730675 39.84971542 43.46013551 35.55859375 39.96875 C34.97867676 39.49163574 34.39875977 39.01452148 33.80126953 38.52294922 C19.71575984 26.02952856 19.71575984 26.02952856 2.5703125 19.66796875 C-6.62886459 20.58669331 -13.84963234 29.055345 -19.8984375 35.3515625 C-21.96972607 37.48330343 -24.04766818 39.43173175 -26.31640625 41.34375 C-30.1345814 44.6278589 -33.77206611 48.0809247 -37.37890625 51.59375 C-38.24974854 52.42011963 -38.24974854 52.42011963 -39.13818359 53.26318359 C-42.25286549 56.33343615 -44.17740008 58.38696542 -44.44140625 62.96875 C-42.69210361 63.78275032 -40.94188592 64.59478392 -39.19140625 65.40625 C-38.32020142 65.81157959 -38.32020142 65.81157959 -37.43139648 66.22509766 C-34.03264204 67.79876632 -30.62134451 69.33093844 -27.1796875 70.80859375 C24.63772444 93.23156244 73.84217496 125.69568616 116.59375 162.44140625 C119.50105727 164.91970375 122.45731676 167.32399796 125.43359375 169.71875 C129.10403161 172.70396863 132.50891688 175.7851672 135.78442383 179.1953125 C137.51698481 180.92715824 139.31120378 182.51368619 141.17578125 184.1015625 C145.97976751 188.27908559 150.49771918 192.71631593 154.99609375 197.21875 C155.83503174 198.05776855 156.67396973 198.89678711 157.53833008 199.76123047 C162.58458658 204.85421612 167.3294152 209.98862668 171.734375 215.6484375 C173.53996111 217.94505024 175.45119221 220.074116 177.43359375 222.21875 C181.05250362 226.23976097 184.28950632 230.49291606 187.49609375 234.84375 C187.98126465 235.49891602 188.46643555 236.15408203 188.96630859 236.82910156 C190.92371605 239.51853055 192.50019276 241.79354704 193.55859375 244.96875 C188.07981223 243.46873409 184.69947789 239.63049984 180.74609375 235.78125 C179.38671709 234.47390689 178.02604114 233.16791342 176.6640625 231.86328125 C175.98738525 231.21456055 175.31070801 230.56583984 174.61352539 229.89746094 C171.95155273 227.39899544 169.20456245 225.0085232 166.44506836 222.61889648 C163.65110902 220.17495043 160.95316437 217.63293696 158.24609375 215.09375 C153.45210235 210.63370644 148.53348379 206.40565447 143.42578125 202.3046875 C140.14281009 199.63000527 136.94592787 196.86670438 133.74609375 194.09375 C128.00026369 189.1328694 122.10982555 184.3990727 116.11328125 179.74609375 C113.69890193 177.87038869 111.31149975 175.96650863 108.94140625 174.03515625 C100.45201006 167.12363508 91.71137231 160.70911297 82.71582031 154.47314453 C80.566781 152.97445958 78.43186314 151.45768473 76.30078125 149.93359375 C66.56864941 142.97902982 56.66734892 136.36226591 46.55859375 129.96875 C45.7809668 129.47294434 45.00333984 128.97713867 44.20214844 128.46630859 C11.85921694 107.88031185 -23.57170932 86.82751347 -60.91796875 76.92578125 C-65.34156645 75.72424972 -69.70376117 74.37376554 -74.06640625 72.96875 C-75.22317871 72.6126062 -75.22317871 72.6126062 -76.40332031 72.24926758 C-80.68814603 70.85218638 -83.50573894 69.57232045 -86.44140625 65.96875 C-80.65008762 60.60645585 -74.51054496 56.13900118 -67.94140625 51.78125 C-51.45990859 40.68042807 -35.89366903 28.87399353 -21.39916992 15.26245117 C-5.06350141 -0.06481282 -5.06350141 -0.06481282 0 0 Z " fill="#00bfff" transform="translate(211.44140625,74.03125)"/>
<path d="M0 0 C7.38315162 -0.07637444 14.76620046 -0.12873584 22.1496582 -0.16479492 C24.65881152 -0.17983529 27.16793874 -0.20027272 29.67700195 -0.22631836 C33.29384825 -0.26291014 36.91034542 -0.27977448 40.52734375 -0.29296875 C42.19663185 -0.31619453 42.19663185 -0.31619453 43.89964294 -0.33988953 C53.36753382 -0.34191265 61.11290696 1.13748414 68.13671875 7.78125 C72.60270007 13.09923195 75.49527001 19.10927368 76.6875 25.9375 C75.56165541 38.24502839 67.83369239 49.90837989 59.1015625 58.26171875 C47.32808989 68 47.32808989 68 43 68 C45.62012048 83.07193113 49.95585216 100.36937973 59 113 C60.485 113.99 60.485 113.99 62 115 C62 115.66 62 116.32 62 117 C55.16127445 116.29859225 49.2221106 114.07396989 44.1875 109.375 C38.16775993 101.03365368 36.21836847 90.0678088 33.62255859 80.28833008 C32.77800246 77.18400668 31.88382098 74.09337344 31 71 C11.695 70.505 11.695 70.505 -8 70 C-8.33 71.98 -8.66 73.96 -9 76 C-9.87281876 80.14809319 -10.82310252 84.2765514 -11.79150391 88.40332031 C-12.09601383 89.71281027 -12.39456836 91.02370005 -12.68701172 92.3359375 C-14.41186331 100.0657561 -16.02358378 106.72641368 -21 113 C-24.3125 113.5 -24.3125 113.5 -27 113 C-27.22175529 107.67570741 -26.46486837 103.14838104 -25 98.01953125 C-24.53622715 96.32675396 -24.07410959 94.63352266 -23.61328125 92.93994141 C-23.35627441 92.00136292 -23.09926758 91.06278442 -22.83447266 90.09576416 C-21.22506783 84.12512181 -19.71204673 78.12947386 -18.1875 72.13671875 C-17.8453325 70.7937021 -17.50312839 69.45069478 -17.16088867 68.10769653 C-16.46044242 65.35817885 -15.76076045 62.60846801 -15.06152344 59.85864258 C-14.35550414 57.08282492 -13.64777117 54.30745321 -12.93847656 51.5324707 C-9.27257754 37.18864675 -5.62516628 22.84925063 -2.45825195 8.38468933 C-1.09530741 2.19061481 -1.09530741 2.19061481 0 0 Z " fill="#00bfff" transform="translate(1150,198)"/>
<path d="M0 0 C6.28129335 5.38396573 8.34544752 13.10710644 11 20.6875 C11.43505859 21.91911865 11.87011719 23.1507373 12.31835938 24.41967773 C25.52879402 62.21412473 25.52879402 62.21412473 25.1875 76.875 C22.43258069 73.54309627 20.70145288 69.92713745 18.96484375 66.00390625 C18.66299164 65.33329163 18.36113953 64.662677 18.05014038 63.97174072 C17.40496721 62.53754979 16.7618991 61.10241034 16.12075806 59.66641235 C14.44863793 55.92352604 12.75854795 52.18876304 11.0703125 48.453125 C10.56994225 47.34448845 10.56994225 47.34448845 10.0594635 46.2134552 C7.25835363 40.01346259 4.41063387 33.83694129 1.5 27.6875 C1.11513428 26.86515869 0.73026855 26.04281738 0.33374023 25.19555664 C-0.67911378 23.06804404 -1.73410172 20.96985616 -2.8125 18.875 C-3.39644531 17.70324219 -3.98039062 16.53148437 -4.58203125 15.32421875 C-6.68989727 12.48431782 -6.68989727 12.48431782 -10.55859375 12.359375 C-14.84542672 12.69559719 -18.79284132 13.83121642 -22.875 15.125 C-39.88409413 20.14107712 -57.11311415 22.46194549 -74.8125 22.875 C-70.93864435 31.2830276 -66.40028449 38.51791703 -60.8125 45.875 C-47.45477647 63.83804502 -36.15744073 83.04314009 -25.8125 102.875 C-25.20535156 104.03870117 -24.59820312 105.20240234 -23.97265625 106.40136719 C-13.21015211 127.12586146 -3.69092204 148.28127827 5.1875 169.875 C5.62642578 170.93976563 6.06535156 172.00453125 6.51757812 173.1015625 C9.19556649 179.64873669 11.73579033 186.23993924 14.1875 192.875 C14.41052795 193.47834167 14.63355591 194.08168335 14.86334229 194.70330811 C24.96530922 222.09321268 34.05419752 249.71377553 39.69970703 278.40771484 C40.16512578 280.76182989 40.65553607 283.10937143 41.15234375 285.45703125 C42.70771776 292.99262443 43.62828315 300.16945751 43.1875 307.875 C42.1975 307.875 41.2075 307.875 40.1875 307.875 C38.4967816 302.56831607 36.80768781 297.26112132 35.12109375 291.953125 C33.95197463 288.27429684 32.77830694 284.59701713 31.59765625 280.921875 C31.10612081 279.3856245 30.6152275 277.84916838 30.125 276.3125 C29.8760498 275.53253662 29.62709961 274.75257324 29.37060547 273.94897461 C28.16068071 270.11544426 27.00781607 266.27912693 25.97265625 262.39453125 C15.18255425 222.0718484 -1.82226461 183.43650346 -19.8125 145.875 C-20.25013672 144.95976562 -20.68777344 144.04453125 -21.13867188 143.1015625 C-40.98297338 101.86504205 -65.70683824 62.51908007 -96.5625 28.625 C-100.56560331 24.22519276 -104.24091049 19.6294632 -107.8125 14.875 C-105.43806855 12.50056855 -104.54728006 12.49808685 -101.2890625 12.09375 C-100.36085693 11.97515625 -99.43265137 11.8565625 -98.47631836 11.734375 C-96.97210327 11.55648438 -96.97210327 11.55648438 -95.4375 11.375 C-93.88397827 11.18164062 -93.88397827 11.18164062 -92.29907227 10.984375 C-85.79105576 10.18834821 -79.27634381 9.50026265 -72.75 8.875 C-55.51906408 7.20225932 -38.70316068 4.65074645 -21.79711914 0.85644531 C-6.32928889 -2.53171556 -6.32928889 -2.53171556 0 0 Z " fill="#00bfff" transform="translate(389.8125,2.125)"/>
<path d="M0 0 C2.00268555 0.82788086 2.00268555 0.82788086 3.15185547 2.65380859 C5.72693574 9.62643102 7.62861789 16.65420487 9.31518555 23.89038086 C9.61223389 25.1469751 9.90928223 26.40356934 10.21533203 27.69824219 C15.17209517 48.79775816 19.59811569 69.99722758 23.44018555 91.32788086 C23.63778976 92.40626724 23.63778976 92.40626724 23.83938599 93.50643921 C25.20343973 100.99089593 26.34883453 108.19571789 26.00268555 115.82788086 C24.1628418 116.42163086 24.1628418 116.42163086 22.00268555 116.82788086 C17.31785825 114.08554293 15.7406702 110.86803635 14.00268555 105.82788086 C13.13767688 102.21057189 12.96637239 98.83130171 12.9831543 95.13256836 C12.98597412 94.3254541 12.98879395 93.51833984 12.99169922 92.68676758 C12.99532471 92.07333496 12.9989502 91.45990234 13.00268555 90.82788086 C3.82369257 90.4087531 -5.35196236 90.09003732 -14.53847122 89.89526176 C-18.80588282 89.80171188 -23.06670599 89.67520115 -27.33032227 89.4699707 C-45.11926232 87.79961362 -45.11926232 87.79961362 -61.63183594 92.53991699 C-65.6427524 96.68709903 -67.69459602 101.2972377 -69.82385254 106.58087158 C-71.89600937 110.54875121 -75.12835423 113.60343488 -78.99731445 115.82788086 C-81.75042725 116.01004028 -81.75042725 116.01004028 -83.99731445 115.82788086 C-83.55622533 110.19750789 -81.39951674 106.9423466 -78.18481445 102.51538086 C-77.44884033 101.47486572 -77.44884033 101.47486572 -76.69799805 100.41333008 C-75.66044641 98.94826112 -74.61835562 97.48639745 -73.57202148 96.02758789 C-72.05338686 93.90620836 -70.55165151 91.77403871 -69.0559082 89.63647461 C-62.34303429 80.05274249 -55.49952897 70.56430992 -48.6340332 61.08959961 C-47.01222381 58.84848353 -45.39466313 56.60436771 -43.77856445 54.35913086 C-33.09499746 39.52030232 -22.28124222 24.78356133 -11.24731445 10.20288086 C-10.55532959 9.28337646 -9.86334473 8.36387207 -9.15039062 7.41650391 C-8.50690674 6.56999268 -7.86342285 5.72348145 -7.20043945 4.85131836 C-6.62970703 4.0977002 -6.05897461 3.34408203 -5.47094727 2.56762695 C-3.67109487 0.44275152 -2.80818641 -0.24199626 0 0 Z " fill="#00bfff" transform="translate(859.997314453125,195.172119140625)"/>
<path d="M0 0 C13.94887718 11.09478416 16.10602677 51.0087413 19.74934387 68.17808533 C20.64548478 72.38867225 21.58588359 76.58684026 22.5546875 80.78125 C28.97494068 109.05011863 28.97494068 109.05011863 25 117 C23.25 116.875 23.25 116.875 21 116 C15.96033182 109.77452754 15.00485458 103.98932339 14.44921875 96.25390625 C14.36373779 95.08287354 14.27825684 93.91184082 14.19018555 92.70532227 C14.12742432 91.81256592 14.06466309 90.91980957 14 90 C4.93243005 89.78217395 -4.13167987 89.64689592 -13.20181751 89.61396885 C-17.41493111 89.59614371 -21.62389472 89.55101548 -25.83569336 89.44116211 C-44.80451296 87.8871389 -44.80451296 87.8871389 -61.58007812 94.27001953 C-64.5669655 97.86433752 -66.23865788 101.69743499 -68 106 C-71.34152863 110.46689539 -74.80819712 114.69253205 -80 117 C-80.99 117 -81.98 117 -83 117 C-83.36849303 112.68958864 -82.49226436 110.66824482 -79.9921875 107.18359375 C-79.01741455 105.80554565 -79.01741455 105.80554565 -78.02294922 104.3996582 C-77.31412598 103.422146 -76.60530273 102.44463379 -75.875 101.4375 C-75.14941895 100.4168042 -74.42383789 99.3961084 -73.67626953 98.34448242 C-72.1791723 96.23858742 -70.67767436 94.13581425 -69.171875 92.03613281 C-66.03670818 87.65338387 -62.95696609 83.23272308 -59.875 78.8125 C-58.72695609 77.17420328 -57.57851902 75.53618201 -56.4296875 73.8984375 C-54.11507575 70.59618766 -51.80857276 67.28847674 -49.5078125 63.9765625 C-38.01278301 47.44695653 -26.24066127 31.24397723 -13.41162109 15.72021484 C-10.78816988 12.52325233 -8.23704524 9.26857434 -5.68359375 6.015625 C-3.90019853 3.8805161 -1.99443829 1.93770372 0 0 Z " fill="#00bfff" transform="translate(881,1)"/>
<path d="M0 0 C3.85260972 1.74410669 4.82819262 2.93883838 6.375 6.9375 C10.19838077 17.61739948 12.22917158 28.81869626 14.55737305 39.89715576 C15.87465337 46.15532715 17.21044562 52.40954131 18.55062866 58.6628418 C19.04585204 60.98445421 19.53371215 63.30751863 20.02075195 65.63085938 C22.26368072 76.21468622 24.99757963 86.6070064 28 97 C46.34918681 88.40474097 60.97205504 59.03736208 72.5390625 43.13671875 C98.31459316 7.79027122 98.31459316 7.79027122 107 2 C107.99 2 108.98 2 110 2 C110.11780401 7.99033385 109.80466846 13.54666094 108.75 19.4375 C108.61650146 20.20682861 108.48300293 20.97615723 108.34545898 21.76879883 C105.17171389 39.60956011 100.53395067 57.03210708 95.29052734 74.36425781 C90.23641536 91.02819872 90.23641536 91.02819872 86.46484375 108.01171875 C85.69940974 111.28571802 84.40933181 114.59066819 82 117 C80.00041636 117.04080783 77.99954746 117.04254356 76 117 C75.77779715 110.37710909 76.48786887 104.70053751 78.08984375 98.2890625 C78.30989075 97.37448273 78.52993774 96.45990295 78.75665283 95.51760864 C79.47349225 92.55084463 80.20517145 89.58797488 80.9375 86.625 C81.43662335 84.57340497 81.9350711 82.52164546 82.43286133 80.46972656 C85.94619455 66.04346174 89.58750786 51.64902407 93.35717773 37.28759766 C93.62712555 36.25540604 93.62712555 36.25540604 93.90252686 35.20236206 C94.38219494 33.37096147 94.86515932 31.54042509 95.34838867 29.70996094 C96.07792902 27.14043744 96.07792902 27.14043744 96 25 C95.23429688 26.11181641 95.23429688 26.11181641 94.453125 27.24609375 C85.56288759 40.12432773 76.53064227 52.90218492 67.4140625 65.62109375 C65.81388363 67.85529362 64.22627626 70.09762932 62.6484375 72.34765625 C51.78665519 87.79161374 40.38097776 103.61902224 27 117 C24.625 117.125 24.625 117.125 22 116 C16.30188546 107.19382298 14.49509586 96.23503438 12.19287109 86.12719727 C9.26253718 70.26644592 9.26253718 70.26644592 0 58 C-0.92188461 55.23434618 -1.11785222 53.61716298 -1.09765625 50.76953125 C-1.09443359 49.96708984 -1.09121094 49.16464844 -1.08789062 48.33789062 C-1.07951172 47.50451172 -1.07113281 46.67113281 -1.0625 45.8125 C-1.05798828 44.96751953 -1.05347656 44.12253906 -1.04882812 43.25195312 C-1.03705403 41.16793845 -1.0191189 39.08396023 -1 37 C-4.40764711 47.24710904 -7.45804382 57.50200734 -10 68 C-13.31907902 81.63139043 -17.40420661 94.89769679 -22.25 108.0625 C-22.49621094 108.73603516 -22.74242187 109.40957031 -22.99609375 110.10351562 C-24.05926325 112.91415984 -24.8497821 114.8497821 -27 117 C-28.32 117 -29.64 117 -31 117 C-30.612679 106.1368563 -28.45807617 95.98466045 -26 85.4375 C-25.59628302 83.67813221 -25.19288681 81.91869079 -24.78979492 80.15917969 C-20.77209288 62.71221426 -16.53883713 45.31877853 -12 28 C-11.70996094 26.89011719 -11.41992188 25.78023437 -11.12109375 24.63671875 C-10.37620824 21.83350227 -9.60383019 19.04040968 -8.8125 16.25 C-8.61116455 15.50073242 -8.4098291 14.75146484 -8.20239258 13.97949219 C-6.56080961 8.45198967 -3.66711801 4.4114596 0 0 Z " fill="#00bfff" transform="translate(672,194)"/>
<path d="M0 0 C5.23121964 3.98065871 9.73541753 8.46746411 12.375 14.5625 C12.70957898 18.66109246 12.70036063 20.07445905 10.375 23.5625 C5.32578084 22.81446753 2.33150961 19.64826767 -0.9375 15.9375 C-2.625 13.5625 -2.625 13.5625 -2.625 11.5625 C-3.21152344 11.28277344 -3.79804687 11.00304687 -4.40234375 10.71484375 C-6.46771646 9.64404419 -8.27881014 8.44830334 -10.1875 7.125 C-20.24649685 0.82881308 -31.42298529 0.39975615 -42.8125 2.5625 C-59.95572517 6.97540612 -74.49308568 17.08142752 -84.1953125 31.97265625 C-91.01164601 44.32027679 -94.15793317 57.54785918 -90.94140625 71.53515625 C-90.00857367 73.72982875 -88.9608735 75.59009743 -87.625 77.5625 C-87.22410156 78.24183594 -86.82320312 78.92117187 -86.41015625 79.62109375 C-81.20951654 87.59540797 -72.48581109 92.78127759 -63.35546875 95.1328125 C-49.38487037 97.33133299 -36.59779043 95.0118848 -24.625 87.5625 C-21.90082032 85.39015129 -19.37213712 83.11976303 -16.859375 80.70703125 C-14.99074693 78.91354032 -13.10256923 77.33620062 -11.0625 75.75 C-6.09345641 71.51799159 1.04073072 64.3423142 1.62890625 57.69140625 C1.54511719 56.98886719 1.46132812 56.28632812 1.375 55.5625 C-4.3047554 53.97755481 -9.54934817 53.19864712 -15.4296875 52.96484375 C-16.6374736 52.90605797 -16.6374736 52.90605797 -17.86965942 52.84608459 C-20.41281897 52.72315899 -22.95628456 52.6107747 -25.5 52.5 C-28.06504575 52.38439027 -30.62991952 52.26643865 -33.1946106 52.14320374 C-34.78364486 52.06720801 -36.37290613 51.99579114 -37.96237183 51.9294281 C-43.40109339 51.67445331 -43.40109339 51.67445331 -45.625 50.5625 C-45.375 48.1875 -45.375 48.1875 -44.625 45.5625 C-39.45684416 41.42797533 -29.98016607 42.40355148 -23.62890625 42.39453125 C-22.79592514 42.39120285 -21.96294403 42.38787445 -21.10472107 42.38444519 C-19.35424344 42.37941399 -17.60375634 42.37703568 -15.85327148 42.37719727 C-13.19824227 42.37500885 -10.54362795 42.35680722 -7.88867188 42.33789062 C-6.17708473 42.33495614 -4.46549565 42.33297171 -2.75390625 42.33203125 C-1.97237686 42.32484573 -1.19084747 42.31766022 -0.38563538 42.31025696 C4.87179669 42.33170068 10.4625005 42.52944986 15.375 44.5625 C16.49759208 47.93027625 16.34071016 48.31965796 15.00390625 51.40625 C14.51929932 52.52616333 14.51929932 52.52616333 14.02490234 53.66870117 C13.48663818 54.85363159 13.48663818 54.85363159 12.9375 56.0625 C12.57350098 56.87114502 12.20950195 57.67979004 11.83447266 58.51293945 C8.74881656 65.15605841 5.03663394 70.90335541 0.375 76.5625 C-0.29015625 77.46935547 -0.29015625 77.46935547 -0.96875 78.39453125 C-11.71308061 92.38181531 -30.06591695 102.22472706 -47.25 105.1875 C-61.79814348 106.70410183 -75.43267386 105.20863233 -87.625 96.5625 C-95.83062873 89.40331226 -100.97131667 80.37758896 -102.625 69.5625 C-103.96544052 48.91456051 -96.09271967 30.96059283 -82.625 15.5625 C-60.82239358 -7.01877093 -27.67993573 -18.34262607 0 0 Z " fill="#00bfff" transform="translate(1045.625,11.4375)"/>
<path d="M0 0 C5.69614612 1.3105529 9.61416018 3.49050738 14.375 6.8125 C29.47644416 16.95240694 46.0623161 25.36430631 63 32 C63 32.33 63 32.66 63 33 C48.835881 33.49092582 37.19432173 32.16637713 24.4609375 25.3046875 C21.97475633 23.89993306 21.97475633 23.89993306 19 23 C16.60216935 35.15418612 16.69028068 47.27969351 16.59408569 59.61889648 C16.40019881 81.90820774 15.54787467 103.85934679 13 126 C12.74347047 128.45442509 12.48696001 130.90885216 12.23046875 133.36328125 C9.65901746 156.50329789 4.89523234 179.25736953 0 202 C-0.40605469 203.89032959 -0.40605469 203.89032959 -0.8203125 205.81884766 C-6.11780543 229.90133782 -14.26903447 253.39514924 -24.0625 276 C-24.34594269 276.65695862 -24.62938538 277.31391724 -24.92141724 277.99078369 C-29.61816661 288.80908331 -29.61816661 288.80908331 -32 290 C-30.38299858 282.54911109 -28.59424881 275.1477228 -26.75 267.75 C-26.2859375 265.88782837 -26.2859375 265.88782837 -25.8125 263.98803711 C-24.0052497 256.80393942 -22.0907928 249.6687907 -20 242.5625 C-13.46097328 220.13766505 -8.65835488 197.3900898 -4.60498047 174.40625 C-4.11205778 171.63092418 -3.59679814 168.86204961 -3.06640625 166.09375 C-2.2014917 161.41517818 -1.56756723 156.72320315 -1 152 C-0.86464844 150.906875 -0.72929687 149.81375 -0.58984375 148.6875 C2.10997453 125.53230181 2.29600336 102.34250548 2.31052017 79.06122589 C2.31247538 76.6552896 2.31759217 74.24937532 2.3230896 71.84344482 C3.16894787 43.13997329 3.16894787 43.13997329 -0.52445984 14.91201782 C-1.19951344 12.19781064 -1.13179915 9.60355254 -1.125 6.8125 C-1.12757813 5.74644531 -1.13015625 4.68039063 -1.1328125 3.58203125 C-1 1 -1 1 0 0 Z " fill="#00bfff" transform="translate(498,14)"/>
<path d="M0 0 C0.763125 0.226875 1.52625 0.45375 2.3125 0.6875 C2.62611081 7.70560139 1.43941505 14.08274982 0 20.9375 C-0.21333984 21.99324219 -0.42667969 23.04898438 -0.64648438 24.13671875 C-2.1299861 31.37266448 -3.84183188 38.53583683 -5.6875 45.6875 C3.06191071 43.02253464 11.17478376 39.59614233 19.375 35.5625 C21.14544678 34.70144653 21.14544678 34.70144653 22.95166016 33.82299805 C30.52005219 30.12112309 37.99863978 26.27542371 45.42724609 22.30200195 C51.38071083 19.13326419 57.4144353 16.15648274 63.5 13.25 C64.36157715 12.83661377 65.2231543 12.42322754 66.11083984 11.99731445 C79.4401109 5.6875 79.4401109 5.6875 85.3125 5.6875 C84.93035728 8.1860479 84.57326632 9.4306816 82.74829102 11.22802734 C78.06018095 14.56692126 73.31125125 17.57301944 68.25 20.3125 C67.10096191 20.94309326 67.10096191 20.94309326 65.92871094 21.58642578 C58.72144543 25.51779219 51.433346 29.29418354 44.14672852 33.07568359 C31.12761021 39.8423771 18.12564542 46.70483739 5.5 54.1875 C4.00533203 55.06921875 4.00533203 55.06921875 2.48046875 55.96875 C0.22017108 57.50345791 0.22017108 57.50345791 -0.65625 59.703125 C-0.70636693 62.88555008 1.28646728 64.57374927 3.35546875 66.796875 C9.99089939 73.2071513 17.69068561 78.48129275 25.0625 84 C28.48111303 86.5599168 31.89821134 89.12181789 35.3125 91.6875 C36.02680176 92.22407227 36.74110352 92.76064453 37.47705078 93.31347656 C53.71141477 105.57167261 53.71141477 105.57167261 56.3125 110.6875 C55.97265625 113.4140625 55.97265625 113.4140625 55.3125 115.6875 C46.47010043 114.3595778 39.33118839 107.73183316 32.36010742 102.49145508 C19.5932293 92.0470614 19.5932293 92.0470614 4.3125 87.6875 C4.065 88.780625 3.8175 89.87375 3.5625 91 C2.3125 94.6875 2.3125 94.6875 0.625 96.625 C-2.74246254 98.17221252 -5.02452407 98.20160188 -8.6875 97.6875 C-11.84704305 95.14612841 -13.40290886 93.54127341 -14.6875 89.6875 C-15.07421875 90.7496875 -15.4609375 91.811875 -15.859375 92.90625 C-22.79817076 111.79817076 -22.79817076 111.79817076 -26.6875 115.6875 C-29.25 115.875 -29.25 115.875 -31.6875 115.6875 C-32.6875 114.6875 -32.6875 114.6875 -32.85877991 111.55731201 C-32.68667561 107.66887417 -32.01792335 104.50392242 -30.94702148 100.77050781 C-30.57541092 99.44449229 -30.20483017 98.11818781 -29.83517456 96.79162598 C-29.54834368 95.77462364 -29.54834368 95.77462364 -29.25571823 94.73707581 C-28.33817551 91.42747878 -27.49891811 88.0988947 -26.66040039 84.76855469 C-26.49003989 84.09546391 -26.31967939 83.42237312 -26.14415646 82.72888565 C-25.79029436 81.33049367 -25.43687651 79.9319892 -25.08387947 78.5333786 C-24.51602884 76.28359351 -23.94692359 74.03412867 -23.37754822 71.784729 C-22.16730261 67.0025878 -20.95854775 62.22007052 -19.75 57.4375 C-18.94349992 54.24605821 -18.13687574 51.05464784 -17.33007812 47.86328125 C-17.03476228 46.69504696 -17.03476228 46.69504696 -16.73348045 45.50321198 C-15.2199258 39.51839174 -13.69913469 33.53542935 -12.17519569 27.55324554 C-11.1391099 23.48123712 -10.12001418 19.40540538 -9.11279297 15.32617188 C-8.67830544 13.59759451 -8.24359853 11.86907227 -7.80859375 10.140625 C-7.62998306 9.39649353 -7.45137238 8.65236206 -7.26734924 7.88568115 C-5.10407888 -0.59349754 -5.10407888 -0.59349754 0 0 Z " fill="#00bfff" transform="translate(941.6875,195.3125)"/>
<path d="M0 0 C2.13365447 0.008442 4.26456323 -0.02017142 6.39794922 -0.05200195 C15.37075377 -0.09912659 25.46541287 0.12240808 32.62109375 6.22558594 C38.11655922 12.13082307 38.13277322 18.65436433 37.93701172 26.47729492 C37.13271198 34.41097002 33.51155707 40.89493639 27.90966797 46.50854492 C15.95304924 55.78056435 -3.57847235 53.51928847 -17.90283203 53.57104492 C-19.58445435 53.57817505 -19.58445435 53.57817505 -21.30004883 53.58544922 C-22.34330322 53.58327393 -23.38655762 53.58109863 -24.46142578 53.57885742 C-25.40171631 53.57772949 -26.34200684 53.57660156 -27.31079102 53.57543945 C-29.46533203 53.44604492 -29.46533203 53.44604492 -30.46533203 52.44604492 C-30.38605027 44.22775002 -28.74342292 36.41567848 -26.65283203 28.50854492 C-26.38148437 27.46674072 -26.11013672 26.42493652 -25.83056641 25.3515625 C-25.29280634 23.30318842 -24.74988304 21.25616111 -24.20117188 19.21069336 C-23.57259317 16.84903933 -22.97545343 14.48295196 -22.39111328 12.11010742 C-21.93285156 10.38920898 -21.93285156 10.38920898 -21.46533203 8.63354492 C-21.21783203 7.67834961 -20.97033203 6.7231543 -20.71533203 5.73901367 C-16.78445378 -1.47169112 -7.0686542 -0.0425629 0 0 Z " fill="#ffffff" transform="translate(1176.46533203125,204.553955078125)"/> <!-- ***********************left value is a inside R************************ -->
<path d="M0 0 C9.6060621 -0.04650391 19.21208496 -0.08196047 28.8182354 -0.10362434 C33.27958043 -0.11402608 37.74084798 -0.12811874 42.20214844 -0.15087891 C46.51396564 -0.1727368 50.82570869 -0.18459573 55.13757706 -0.18975449 C56.77606497 -0.19342714 58.41454919 -0.2005984 60.05300522 -0.21146011 C68.54408567 -0.26547006 76.73604988 -0.25752783 85 2 C85 2.66 85 3.32 85 4 C80.76788717 5.56952792 77.03105352 6.32606003 72.53125 6.59765625 C71.25499756 6.6764502 69.97874512 6.75524414 68.66381836 6.83642578 C67.27591042 6.91236196 65.88796989 6.98770464 64.5 7.0625 C63.44233932 7.12361969 63.44233932 7.12361969 62.36331177 7.18597412 C44.25820675 8.23204348 26.12944133 8.63272317 8 9 C6.8479359 13.26508836 5.70914713 17.53344492 4.58203125 21.80517578 C4.19755792 23.2550144 3.80960075 24.70393415 3.41796875 26.15185547 C2.85257103 28.24469242 2.3001818 30.34061835 1.75 32.4375 C1.24726562 34.32275391 1.24726562 34.32275391 0.734375 36.24609375 C-0.65377597 43.24723188 -0.65377597 43.24723188 1.0625 49.9375 C6.64390671 52.99827142 14.39323237 52.178663 20.578125 52.24609375 C22.64713955 52.27903819 24.71614986 52.31224974 26.78515625 52.34570312 C30.01478125 52.39297429 33.24438981 52.4374316 36.47412109 52.47680664 C39.61313159 52.51687809 42.75180551 52.56833404 45.890625 52.62109375 C46.83995911 52.6295079 47.78929321 52.63792206 48.76739502 52.64659119 C55.34589909 52.76590825 61.56404163 53.64562296 68 55 C68 55.99 68 56.98 68 58 C53.99318255 60.05227387 40.07987001 61.30740413 25.9375 61.6875 C25.26083282 61.70610077 24.58416565 61.72470154 23.88699341 61.74386597 C13.92397151 62.00517973 3.96556539 62.03724362 -6 62 C-6.10183594 63.09183594 -6.20367188 64.18367188 -6.30859375 65.30859375 C-7.10648325 71.70156025 -9.09761173 77.7924782 -10.91601562 83.95507812 C-12.38697612 89.11590562 -13.56389655 93.62513791 -13 99 C-9.87357499 102.12642501 -6.72000533 102.12127237 -2.43774414 102.18945312 C-1.53903091 102.20617065 -0.64031769 102.22288818 0.28562927 102.2401123 C1.25227005 102.25368774 2.21891083 102.26726318 3.21484375 102.28125 C4.7249276 102.30886414 4.7249276 102.30886414 6.26551819 102.33703613 C9.48945315 102.39572591 12.71344307 102.44847672 15.9375 102.5 C52.09980253 103.0865787 52.09980253 103.0865787 58 106 C58.8125 108.125 58.8125 108.125 59 110 C53.92067476 112.47491223 50.23862732 113.37513169 44.49169922 113.37231445 C43.4195668 113.37779045 43.4195668 113.37779045 42.32577515 113.38337708 C39.98516383 113.39142171 37.64525808 113.37792674 35.3046875 113.36328125 C33.66757203 113.36276202 32.03045592 113.36328214 30.39334106 113.36479187 C26.97225567 113.36470243 23.55140729 113.35432817 20.13037109 113.33618164 C15.75120586 113.31345946 11.37238543 113.31295988 6.99317741 113.31969929 C3.61651559 113.32304402 0.23993203 113.31640026 -3.13671494 113.30657005 C-4.75140854 113.30272918 -6.36611087 113.30156521 -7.98080826 113.3031559 C-10.2375365 113.30352776 -12.49382611 113.29087422 -14.75048828 113.2746582 C-16.03287384 113.27005081 -17.3152594 113.26544342 -18.63650513 113.26069641 C-21.86351424 113.01057868 -24.10192359 112.39152863 -27 111 C-26.58229996 105.8831745 -25.57038135 101.17048577 -24.21484375 96.21630859 C-23.85033799 94.87143549 -23.48659433 93.52635565 -23.12353516 92.18109131 C-22.93680237 91.48967796 -22.75006958 90.79826462 -22.55767822 90.08589935 C-21.66498446 86.74693206 -20.80893076 83.39888859 -19.95703125 80.04931641 C-19.78500687 79.37318487 -19.61298248 78.69705334 -19.43574524 78.00043297 C-18.89388677 75.86767245 -18.35311431 73.7346387 -17.8125 71.6015625 C-17.4242722 70.07187981 -17.03600636 68.54220677 -16.64770508 67.01254272 C-15.84035362 63.83111222 -15.03370878 60.64950359 -14.22753906 57.46777344 C-13.20733598 53.44169827 -12.18496414 49.41617742 -11.16200256 45.39080238 C-10.36130544 42.23871758 -9.56198672 39.08628438 -8.76303101 35.93375778 C-8.38721463 34.45166796 -8.01095277 32.96969101 -7.63418579 31.48784256 C-4.97311983 21.01818811 -2.44437423 10.52235049 0 0 Z " fill="#00bfff" transform="translate(1046,198)"/>
<path d="M0 0 C9.45840729 -0.04653726 18.91677459 -0.08197717 28.3752718 -0.10362434 C32.76820765 -0.11401891 37.16106461 -0.12809814 41.55395508 -0.15087891 C45.80093844 -0.17276278 50.04784638 -0.18460109 54.29488182 -0.18975449 C55.90742364 -0.19342254 57.51996177 -0.20058454 59.13247108 -0.21146011 C67.93847748 -0.26843833 76.37852846 -0.06330439 85 2 C85 2.66 85 3.32 85 4 C79.09269405 6.00080427 73.58183778 6.418061 67.37109375 6.6328125 C66.345569 6.67437469 65.32004425 6.71593689 64.26344299 6.75875854 C62.09090674 6.84502835 59.91820201 6.92714303 57.74536133 7.00537109 C54.4997015 7.12275048 51.25481123 7.25354043 48.00976562 7.38671875 C34.33397941 7.92575463 20.68553574 8.10744455 7 8 C6.94417252 8.5873291 6.88834503 9.1746582 6.83082581 9.77978516 C6.3902799 14.10785441 5.84864652 18.19519795 4.58984375 22.375 C4.32236328 23.29796875 4.05488281 24.2209375 3.77929688 25.171875 C3.21778003 27.05836315 2.65266973 28.94378541 2.08398438 30.828125 C-0.36888355 39.29387547 -0.36888355 39.29387547 0 48 C1.57334883 49.89889769 2.79174637 50.89587319 5 52 C6.57537493 52.10845929 8.15512153 52.15628838 9.73413086 52.17358398 C11.21223488 52.19381874 11.21223488 52.19381874 12.72019958 52.21446228 C14.32629845 52.23011986 14.32629845 52.23011986 15.96484375 52.24609375 C18.2324253 52.27906226 20.50000333 52.31227335 22.76757812 52.34570312 C26.34185091 52.39289712 29.91611264 52.43726339 33.49047852 52.47680664 C36.9404273 52.51686375 40.3900686 52.56835684 43.83984375 52.62109375 C44.89235825 52.6295079 45.94487274 52.63792206 47.02928162 52.64659119 C53.73914579 52.75673975 60.52948294 53.0695293 67 55 C67.33 55.66 67.66 56.32 68 57 C60.78981043 59.05820492 53.87460064 60.25517257 46.40625 60.59375 C45.59133591 60.6334642 44.77642181 60.67317841 43.93681335 60.71409607 C33.89806573 61.15672623 23.85853796 61.10876293 13.8125 61.0625 C11.87565222 61.05746585 9.93880315 61.05290639 8.00195312 61.04882812 C3.33460244 61.0379951 -1.33268372 61.02084053 -6 61 C-6.1139209 61.75821045 -6.2278418 62.5164209 -6.34521484 63.29760742 C-7.49423858 70.60391208 -9.14863861 77.51432548 -11.3203125 84.57226562 C-12.67222932 89.16314982 -13.42100134 93.15848454 -13 98 C-11.39248953 101.036861 -11.39248953 101.036861 -9.30004883 101.65380859 C0.41998039 103.11681692 10.42065792 103.07313309 20.23046875 103.2109375 C21.69010544 103.23247894 21.69010544 103.23247894 23.17922974 103.25445557 C27.21132604 103.31187106 31.24326836 103.36693794 35.27563477 103.40136719 C38.26091668 103.42890537 41.24546814 103.47468003 44.23046875 103.5234375 C45.13878952 103.52669037 46.04711029 103.52994324 46.98295593 103.53329468 C51.81883053 103.62766636 55.03253673 103.91277118 59 107 C58.875 108.875 58.875 108.875 58 111 C53.62736648 112.86159008 49.84847277 113.24859542 45.12768555 113.24291992 C44.46826965 113.24481827 43.80885376 113.24671661 43.12945557 113.24867249 C40.96508614 113.25235507 38.80105801 113.24170793 36.63671875 113.23046875 C35.11985819 113.22927485 33.60299688 113.22882423 32.08613586 113.2290802 C28.91129913 113.22751939 25.73657578 113.21926364 22.56176758 113.20581055 C18.51373319 113.1888651 14.46582369 113.18499534 10.41775799 113.18575573 C7.28543428 113.18548228 4.15313728 113.17997239 1.02082253 113.17275429 C-0.47055039 113.16959506 -1.96192631 113.16760671 -3.45330238 113.16686058 C-11.03047806 113.15892139 -18.48306597 113.04684675 -26 112 C-27.26577649 107.80258859 -26.42995448 104.53321472 -25.375 100.375 C-25.22160156 99.73304687 -25.06820313 99.09109375 -24.91015625 98.4296875 C-23.82323299 93.98242897 -22.60041458 89.57888553 -21.35002136 85.17503357 C-17.89826075 72.97159271 -14.97684447 60.65346652 -12.0625 48.3125 C-8.24140086 32.15256318 -4.26711363 16.04847814 0 0 Z " fill="#00bfff" transform="translate(1093,4)"/>
<path d="M0 0 C6.61617698 -0.05112911 13.23230213 -0.0859119 19.84863281 -0.10986328 C22.09474593 -0.1198589 24.34084625 -0.13345988 26.58691406 -0.15087891 C29.83401672 -0.17541257 33.08094586 -0.1865478 36.328125 -0.1953125 C37.31613098 -0.20563507 38.30413696 -0.21595764 39.32208252 -0.22659302 C49.54428321 -0.22820139 59.87869063 0.17027236 68 7 C74.7530994 14.27256859 73.52438286 23.17733316 73.17919922 32.55224609 C72.47441374 42.17919331 68.18044777 50.01321383 61.328125 56.609375 C46.7605572 68.68676027 28.25156054 69.30892331 10.3125 70.625 C8.53186103 70.75988952 6.7512616 70.89530206 4.97070312 71.03125 C0.64756754 71.36019679 -3.6760411 71.68206653 -8 72 C-8.1858667 72.69448242 -8.3717334 73.38896484 -8.56323242 74.10449219 C-17.01085651 105.47915027 -17.01085651 105.47915027 -23 113 C-24.32 112.67 -25.64 112.34 -27 112 C-27.29072566 106.06468533 -26.22566392 100.98281717 -24.734375 95.25390625 C-24.3823703 93.8607444 -24.3823703 93.8607444 -24.02325439 92.43943787 C-23.27325975 89.47842267 -22.51189824 86.52047208 -21.75 83.5625 C-21.25313881 81.6102212 -20.75703827 79.65774864 -20.26171875 77.70507812 C-19.2946682 73.89692509 -18.32388298 70.08975862 -17.34960938 66.28344727 C-14.46992831 55.02433523 -11.68194472 43.74545468 -9 32.4375 C-3.01757226 7.39601045 -3.01757226 7.39601045 0 0 Z M7 7 C3.59700129 18.7648083 0.57524073 30.60025674 -2.3125 42.5 C-2.58622437 43.62328201 -2.58622437 43.62328201 -2.86547852 44.76925659 C-3.38841123 46.91841479 -3.90780584 49.06839225 -4.42578125 51.21875 C-4.72911377 52.47623047 -5.03244629 53.73371094 -5.3449707 55.02929688 C-6.07177471 57.8185039 -6.07177471 57.8185039 -6 60 C0.08312305 60.09951 6.16576338 60.17177017 12.24951172 60.21972656 C14.31535098 60.23973625 16.38113437 60.26695283 18.44677734 60.30175781 C21.43080503 60.35074716 24.41407846 60.37307564 27.3984375 60.390625 C28.30927094 60.41127014 29.22010437 60.43191528 30.15853882 60.45318604 C38.04433156 60.45589292 44.70190828 58.50552704 51.0234375 53.703125 C59.65782766 44.69582098 63.36314585 37.43690376 63.2109375 24.91015625 C62.83054246 19.6621136 60.91189792 16.63162298 57.0625 13.25 C46.87032544 5.76187175 34.41183968 6.73174858 22.3125 6.875 C20.8209696 6.88505708 19.32943258 6.89417808 17.83789062 6.90234375 C14.22512026 6.92412456 10.61260407 6.9585015 7 7 Z " fill="#00bfff" transform="translate(724,4)"/>
<path d="M0 0 C0.66 0.33 1.32 0.66 2 1 C2.70276651 3.46407747 3.28223728 5.87138948 3.8046875 8.375 C4.05256516 9.51098633 4.05256516 9.51098633 4.30545044 10.66992188 C4.83660673 13.11163476 5.35616415 15.55564244 5.875 18 C6.38690838 20.37661352 6.90123422 22.75269255 7.41612244 25.12866211 C7.75914531 26.71253764 8.10090716 28.29668679 8.44142151 29.88110352 C9.77822136 36.07375073 11.21130963 42.24056377 12.71615601 48.39453125 C13.94777118 53.50443914 15.06113978 58.71752259 15 64 C13.18352269 65.81647731 10.36422928 65.13041871 7.921875 65.1328125 C6.62830078 65.13474609 5.33472656 65.13667969 4.00195312 65.13867188 C2.58463407 65.13455511 1.16731626 65.12998772 -0.25 65.125 C-0.95842041 65.12411377 -1.66684082 65.12322754 -2.39672852 65.12231445 C-17.27855988 65.10052553 -32.13199199 64.63354159 -47 64 C-42.6489444 57.05971101 -38.16887354 50.24883886 -33.4375 43.5625 C-32.21331124 41.82568323 -30.98936003 40.088699 -29.765625 38.3515625 C-29.14494141 37.47145508 -28.52425781 36.59134766 -27.88476562 35.68457031 C-26.00991802 33.01412675 -24.15100963 30.33329522 -22.296875 27.6484375 C-5.88849387 3.92566258 -5.88849387 3.92566258 0 0 Z " fill="#ffffff" transform="translate(855,213)"/> <!-- ****************************left value is a inside A at the bottom*************************** -->
<path d="M0 0 C0.66 0 1.32 0 2 0 C5.57303825 12.30290831 8.69700879 24.64360416 11.3125 37.1875 C11.56660645 38.39108154 11.82071289 39.59466309 12.08251953 40.8347168 C13.51995806 47.88070625 14.53561095 54.82249767 15 62 C8.72744968 64.75376928 3.6508084 65.43304048 -3.16015625 65.36328125 C-4.10886093 65.36377975 -5.05756561 65.36427826 -6.03501892 65.36479187 C-8.02930815 65.36246364 -10.023601 65.35280957 -12.01782227 65.33618164 C-15.05707258 65.31254221 -18.09544634 65.31563653 -21.13476562 65.32226562 C-23.08073435 65.31668927 -25.02669942 65.30957965 -26.97265625 65.30078125 C-27.87387711 65.30169266 -28.77509796 65.30260406 -29.70362854 65.30354309 C-34.84700592 65.24617254 -39.12609731 64.66439076 -44 63 C-43.51333781 57.91924672 -41.005357 54.65691177 -38.125 50.625 C-37.63467285 49.92600586 -37.1443457 49.22701172 -36.63916016 48.50683594 C-31.53265928 41.26026623 -26.29067234 34.112746 -21 27 C-20.23945312 25.97261719 -19.47890625 24.94523437 -18.6953125 23.88671875 C-3.57836788 3.57836788 -3.57836788 3.57836788 0 0 Z " fill="#ffffff" transform="translate(876,19)"/> <!-- ****************************left value is a inside A at the top*************************** -->
<path d="M0 0 C0.99 0.495 0.99 0.495 2 1 C2.32887146 14.44911166 -1.66958571 27.39994427 -6 40 C-6.27440918 40.81178711 -6.54881836 41.62357422 -6.83154297 42.45996094 C-24.78561616 95.20067125 -55.82326849 142.29664214 -93.375 183.125 C-94.23121948 184.06653931 -94.23121948 184.06653931 -95.10473633 185.02709961 C-98.47373871 188.64748329 -101.76954689 191.43105416 -106 194 C-104.52511914 189.72601729 -102.27679404 186.3023167 -99.625 182.6875 C-99.18438232 182.07777344 -98.74376465 181.46804687 -98.28979492 180.83984375 C-95.49923405 176.99604757 -92.6453227 173.20321133 -89.77099609 169.421875 C-55.82219275 124.68719473 -26.62442041 74.40123468 -9.42089844 20.75244141 C-7.0028601 13.33263411 -3.98893451 6.71077582 0 0 Z " fill="#00bfff" transform="translate(655,74)"/>
</svg>
