<svg width="218" height="90" viewBox="0 0 218 90" fill="none" xmlns="http://www.w3.org/2000/svg">
<rect width="218" height="90" fill="#F5F5F5"/>
<g filter="url(#filter0_d_4_2)">
<path d="M4 41C4 18.3563 22.3563 0 45 0H173C195.644 0 214 18.3563 214 41C214 63.6437 195.644 82 173 82H45C22.3563 82 4 63.6437 4 41Z" fill="#00BBFF"/>
<path d="M45 0.5H173C195.368 0.5 213.5 18.6325 213.5 41C213.5 63.3675 195.368 81.5 173 81.5H45C22.6325 81.5 4.5 63.3675 4.5 41C4.5 18.6325 22.6325 0.5 45 0.5Z" stroke="white"/>
</g>
<path d="M49.672 29.08C50.312 29.1013 50.856 29.1227 51.304 29.144C51.752 29.144 52.1573 29.144 52.52 29.144C52.776 29.144 53.2453 29.144 53.928 29.144C54.6107 29.144 55.432 29.144 56.392 29.144C57.3733 29.144 58.4187 29.144 59.528 29.144C60.6373 29.144 61.736 29.144 62.824 29.144C63.9333 29.144 64.968 29.144 65.928 29.144C66.888 29.144 67.6987 29.144 68.36 29.144C69.0213 29.144 69.4693 29.144 69.704 29.144C70.0453 29.144 70.472 29.144 70.984 29.144C71.5173 29.1227 72.0293 29.1013 72.52 29.08C72.4987 29.464 72.4773 29.88 72.456 30.328C72.456 30.7547 72.456 31.1707 72.456 31.576C72.456 31.7893 72.456 32.216 72.456 32.856C72.456 33.4747 72.456 34.232 72.456 35.128C72.456 36.024 72.456 36.9947 72.456 38.04C72.456 39.064 72.456 40.088 72.456 41.112C72.456 42.136 72.456 43.0853 72.456 43.96C72.456 44.8347 72.456 45.5813 72.456 46.2C72.456 46.7973 72.456 47.1813 72.456 47.352C72.456 47.5867 72.456 47.9067 72.456 48.312C72.456 48.7173 72.456 49.1227 72.456 49.528C72.4773 49.9333 72.488 50.296 72.488 50.616C72.5093 50.9147 72.52 51.1173 72.52 51.224H69.768C69.768 51.096 69.768 50.84 69.768 50.456C69.7893 50.0507 69.8 49.6027 69.8 49.112C69.8213 48.6 69.832 48.12 69.832 47.672C69.832 47.5227 69.832 47.1173 69.832 46.456C69.832 45.7947 69.832 44.984 69.832 44.024C69.832 43.0427 69.832 41.9973 69.832 40.888C69.832 39.7573 69.832 38.6587 69.832 37.592C69.832 36.504 69.832 35.512 69.832 34.616C69.832 33.72 69.832 33.0053 69.832 32.472C69.832 31.9387 69.832 31.672 69.832 31.672H52.328C52.328 31.672 52.328 31.9387 52.328 32.472C52.328 32.984 52.328 33.688 52.328 34.584C52.328 35.48 52.328 36.472 52.328 37.56C52.328 38.6267 52.328 39.7147 52.328 40.824C52.328 41.9333 52.328 42.9787 52.328 43.96C52.328 44.92 52.328 45.7307 52.328 46.392C52.328 47.0533 52.328 47.48 52.328 47.672C52.328 47.9493 52.328 48.2693 52.328 48.632C52.328 48.9947 52.328 49.3573 52.328 49.72C52.3493 50.0613 52.36 50.3707 52.36 50.648C52.3813 50.9253 52.392 51.1173 52.392 51.224H49.64C49.64 51.1173 49.64 50.9147 49.64 50.616C49.6613 50.296 49.672 49.9333 49.672 49.528C49.6933 49.1227 49.704 48.728 49.704 48.344C49.704 47.9387 49.704 47.5973 49.704 47.32C49.704 47.1493 49.704 46.7547 49.704 46.136C49.704 45.5173 49.704 44.76 49.704 43.864C49.704 42.968 49.704 42.008 49.704 40.984C49.704 39.9387 49.704 38.904 49.704 37.88C49.704 36.8347 49.704 35.8747 49.704 35C49.704 34.104 49.704 33.3573 49.704 32.76C49.704 32.1413 49.704 31.7467 49.704 31.576C49.704 31.192 49.704 30.776 49.704 30.328C49.704 29.88 49.6933 29.464 49.672 29.08ZM70.856 46.872V49.368H51.08V46.872H70.856ZM101.48 25.4C101.757 25.7627 102.056 26.2107 102.376 26.744C102.696 27.256 103.005 27.7787 103.304 28.312C103.603 28.8453 103.869 29.336 104.104 29.784L102.376 30.552C102.056 29.912 101.651 29.1653 101.16 28.312C100.669 27.4587 100.211 26.7333 99.784 26.136L101.48 25.4ZM105 24.12C105.277 24.504 105.576 24.9627 105.896 25.496C106.237 26.0293 106.568 26.5627 106.888 27.096C107.208 27.608 107.475 28.0667 107.688 28.472L105.96 29.24C105.619 28.536 105.203 27.7787 104.712 26.968C104.221 26.1573 103.752 25.4533 103.304 24.856L105 24.12ZM103.592 31.768C103.464 31.9813 103.336 32.2587 103.208 32.6C103.08 32.92 102.963 33.208 102.856 33.464C102.579 34.5307 102.173 35.704 101.64 36.984C101.128 38.2427 100.499 39.5227 99.752 40.824C99.0053 42.104 98.152 43.3307 97.192 44.504C95.7413 46.2747 94.0027 47.8853 91.976 49.336C89.9493 50.7867 87.4427 52.0773 84.456 53.208L82.12 51.096C84.0827 50.52 85.8427 49.8267 87.4 49.016C88.9573 48.184 90.3547 47.2667 91.592 46.264C92.8507 45.2613 93.96 44.1947 94.92 43.064C95.752 42.0827 96.5093 41.0053 97.192 39.832C97.8747 38.6587 98.4613 37.4853 98.952 36.312C99.464 35.1173 99.816 34.04 100.008 33.08H88.168L89.192 30.776C89.448 30.776 89.928 30.776 90.632 30.776C91.336 30.776 92.136 30.776 93.032 30.776C93.9493 30.776 94.856 30.776 95.752 30.776C96.648 30.776 97.4267 30.776 98.088 30.776C98.7493 30.776 99.1867 30.776 99.4 30.776C99.8267 30.776 100.211 30.7547 100.552 30.712C100.915 30.6693 101.224 30.5947 101.48 30.488L103.592 31.768ZM92.872 26.936C92.616 27.3627 92.36 27.8107 92.104 28.28C91.848 28.7493 91.6347 29.1333 91.464 29.432C90.8453 30.6053 90.056 31.8747 89.096 33.24C88.136 34.584 86.984 35.928 85.64 37.272C84.3173 38.5947 82.8027 39.8213 81.096 40.952L78.856 39.32C80.2427 38.488 81.48 37.6027 82.568 36.664C83.6773 35.704 84.6373 34.7333 85.448 33.752C86.28 32.7707 86.984 31.832 87.56 30.936C88.136 30.0187 88.5947 29.208 88.936 28.504C89.1067 28.2267 89.288 27.8427 89.48 27.352C89.6933 26.84 89.8427 26.3707 89.928 25.944L92.872 26.936ZM111.752 39.448C114.525 38.7013 117.107 37.7947 119.496 36.728C121.885 35.6613 123.965 34.5733 125.736 33.464C126.845 32.76 127.923 32.0027 128.968 31.192C130.035 30.36 131.037 29.496 131.976 28.6C132.915 27.704 133.747 26.8187 134.472 25.944L136.616 27.928C135.72 28.888 134.749 29.8267 133.704 30.744C132.659 31.6613 131.549 32.5467 130.376 33.4C129.224 34.232 128.019 35.0427 126.76 35.832C125.587 36.536 124.264 37.2613 122.792 38.008C121.32 38.7547 119.752 39.4587 118.088 40.12C116.424 40.7813 114.739 41.3893 113.032 41.944L111.752 39.448ZM125.224 34.808L127.976 33.976V48.568C127.976 48.9733 127.976 49.4 127.976 49.848C127.997 50.296 128.019 50.712 128.04 51.096C128.083 51.48 128.125 51.7787 128.168 51.992H125.032C125.053 51.7787 125.075 51.48 125.096 51.096C125.139 50.712 125.171 50.296 125.192 49.848C125.213 49.4 125.224 48.9733 125.224 48.568V34.808ZM148.264 27.544C148.84 27.928 149.501 28.408 150.248 28.984C150.995 29.5387 151.752 30.136 152.52 30.776C153.309 31.3947 154.045 32.0027 154.728 32.6C155.411 33.1973 155.976 33.72 156.424 34.168L154.408 36.184C154.003 35.7787 153.48 35.2773 152.84 34.68C152.2 34.0827 151.496 33.464 150.728 32.824C149.96 32.1627 149.203 31.544 148.456 30.968C147.709 30.3707 147.037 29.88 146.44 29.496L148.264 27.544ZM145.512 48.984C147.389 48.7067 149.096 48.3227 150.632 47.832C152.189 47.3413 153.608 46.7867 154.888 46.168C156.168 45.5493 157.309 44.9307 158.312 44.312C159.955 43.288 161.469 42.1147 162.856 40.792C164.243 39.448 165.459 38.0613 166.504 36.632C167.549 35.2027 168.381 33.8373 169 32.536L170.536 35.256C169.811 36.5787 168.915 37.9227 167.848 39.288C166.781 40.6533 165.576 41.9653 164.232 43.224C162.888 44.4827 161.405 45.624 159.784 46.648C158.717 47.3093 157.544 47.96 156.264 48.6C155.005 49.24 153.619 49.8267 152.104 50.36C150.611 50.872 148.979 51.288 147.208 51.608L145.512 48.984Z" fill="white"/>
<defs>
<filter id="filter0_d_4_2" x="0" y="0" width="218" height="90" filterUnits="userSpaceOnUse" color-interpolation-filters="sRGB">
<feFlood flood-opacity="0" result="BackgroundImageFix"/>
<feColorMatrix in="SourceAlpha" type="matrix" values="0 0 0 0 0 0 0 0 0 0 0 0 0 0 0 0 0 0 127 0" result="hardAlpha"/>
<feOffset dy="4"/>
<feGaussianBlur stdDeviation="2"/>
<feComposite in2="hardAlpha" operator="out"/>
<feColorMatrix type="matrix" values="0 0 0 0 0 0 0 0 0 0 0 0 0 0 0 0 0 0 0.25 0"/>
<feBlend mode="normal" in2="BackgroundImageFix" result="effect1_dropShadow_4_2"/>
<feBlend mode="normal" in="SourceGraphic" in2="effect1_dropShadow_4_2" result="shape"/>
</filter>
</defs>
</svg>
