<?xml version="1.0" encoding="UTF-8"?>
<svg version="1.1" xmlns="http://www.w3.org/2000/svg" width="1280" height="1280">
<path d="M0 0 C422.4 0 844.8 0 1280 0 C1280 422.4 1280 844.8 1280 1280 C857.6 1280 435.2 1280 0 1280 C0 857.6 0 435.2 0 0 Z " fill="#FEFEFE" transform="translate(0,0)"/>
<path d="M0 0 C5.17127322 1.72375774 10.27072787 3.4305943 15.36328125 5.33984375 C16.49830078 5.76330078 17.63332031 6.18675781 18.80273438 6.62304688 C21.13101791 7.49501951 23.45914457 8.36741115 25.78710938 9.24023438 C32.1990339 11.63155201 38.62806719 13.91918336 45.12963867 16.05493164 C47.90639281 16.96917977 50.67265993 17.90978097 53.4375 18.859375 C88.0358823 30.66498788 123.44429348 39.16133974 159.09338379 47.07562256 C175.55764699 50.73197853 191.96201677 54.58567521 208.32983398 58.65185547 C209.88519464 59.03767388 211.44061331 59.42325852 212.99609375 59.80859375 C213.74040146 59.99309082 214.48470917 60.17758789 215.25157166 60.36767578 C221.45535536 61.89295834 227.68411641 63.29252749 233.93003845 64.63438416 C238.34296103 65.59133286 242.667992 66.71463891 247 68 C252.31757207 69.57740261 257.64294551 70.8416953 263.0625 72 C268.23025484 73.10787616 273.27642359 74.31316966 278.3125 75.9375 C283.7601563 77.69436916 289.23895101 79.03334169 294.8125 80.3125 C303.78641104 82.38126734 312.59588324 84.86022256 321.4206543 87.48803711 C326.80027181 89.08435892 332.16537587 90.57959622 337.625 91.875 C346.73373567 94.07857317 355.6724445 96.85344576 364.63745117 99.57275391 C372.97934559 102.1021265 381.33490615 104.5681777 389.73901367 106.88427734 C395.13828925 108.39455605 400.44868844 110.12394228 405.76196289 111.91267395 C411.04583191 113.68976085 416.34564623 115.4134801 421.65234375 117.12109375 C423.35352979 117.66987796 425.05470152 118.21870656 426.75585938 118.76757812 C429.34569111 119.60282636 431.93585333 120.43697202 434.52709961 121.26782227 C445.81018661 124.88793278 456.936617 128.75416555 468 133 C470.41456113 133.90160329 472.83233589 134.79422513 475.25 135.6875 C514.83653266 150.51631696 554.42077029 166.60538857 591.64013672 186.73779297 C594.22822572 188.12206983 596.83246806 189.47185251 599.44140625 190.81640625 C620.83167701 201.84839629 620.83167701 201.84839629 626 206 C626 206.66 626 207.32 626 208 C623.61689501 209.88410458 621.21766784 211.67028129 618.75 213.4375 C611.35701338 218.86054807 604.5842017 224.60769966 598 231 C597.48421387 231.49532227 596.96842773 231.99064453 596.43701172 232.50097656 C586.60890129 241.39326187 586.60890129 241.39326187 579 252 C579.44675599 255.12729195 579.76081245 256.76081245 582 259 C583.75782003 259.10634568 585.5199189 259.14242771 587.28092957 259.15148926 C588.42637238 259.15983292 589.57181519 259.16817657 590.75196838 259.17677307 C592.01999802 259.18095749 593.28802765 259.18514191 594.59448242 259.18945312 C595.93463402 259.19739108 597.27478302 259.20577868 598.6149292 259.21458435 C601.50800514 259.23267974 604.40107521 259.247682 607.29417992 259.26036072 C611.87041761 259.28054757 616.44659108 259.3082076 621.02278137 259.33703613 C630.74432411 259.39720988 640.46590571 259.44895741 650.1875 259.5 C660.6645685 259.55508031 671.14161742 259.61168264 681.61862451 259.67754889 C686.16551993 259.70585275 690.71240816 259.72946648 695.25934732 259.74947357 C698.0938025 259.76289891 700.9282232 259.78031012 703.76264954 259.79878426 C705.69854615 259.81019328 707.63446927 259.81678712 709.57038879 259.82322693 C710.72993073 259.83157059 711.88947266 259.83991425 713.08415222 259.84851074 C714.58933552 259.85624134 714.58933552 259.85624134 716.12492657 259.86412811 C719 260 719 260 722.22130299 260.61103058 C725.08904847 261.33055414 725.08904847 261.33055414 727.375 259.375 C729.32189995 256.52953084 729.57695125 255.37928588 729 252 C727.16240406 247.78433873 724.33241831 245.48429509 720.8671875 242.64453125 C718.99898847 240.99910909 717.46619297 239.28680647 715.875 237.375 C707.55944284 227.67964906 697.70899168 219.72437252 687.38525391 212.27661133 C686.6844873 211.76122803 685.9837207 211.24584473 685.26171875 210.71484375 C684.63225342 210.26230225 684.00278809 209.80976074 683.35424805 209.34350586 C682.90734619 208.90014893 682.46044434 208.45679199 682 208 C682 207.01 682 206.02 682 205 C687.98697817 201.64296056 693.98860921 198.31312493 700 195 C700.9904834 194.45408203 701.9809668 193.90816406 703.00146484 193.34570312 C718.75923711 184.68971118 734.6849286 176.55335953 751 169 C751.6280957 168.70893372 752.25619141 168.41786743 752.90332031 168.11798096 C756.98515811 166.22817145 761.07226056 164.3502833 765.16519165 162.48461914 C766.48617277 161.88228668 767.80649575 161.27850818 769.12606812 160.6730957 C776.99127288 157.0716298 784.89510817 153.84461966 793.07983398 151.05224609 C795.47167468 150.19037557 797.64177446 149.2628341 799.875 148.0625 C804.01652458 145.8845554 808.33627641 144.29973738 812.7253418 142.69018555 C817.23227939 141.03732674 821.71667891 139.33838025 826.1875 137.58984375 C848.43909008 128.93238581 871.07094146 121.3392309 893.98168945 114.609375 C896.16990714 113.94870107 898.33467369 113.2319693 900.5 112.5 C904.3903344 111.18495739 908.30787587 109.99353621 912.25 108.84375 C914.56154137 108.13452708 916.84946477 107.38470626 919.140625 106.61328125 C924.3162207 104.87917889 929.52723563 103.27304601 934.75 101.6875 C935.74644531 101.38481201 936.74289062 101.08212402 937.76953125 100.77026367 C951.70292352 96.55699785 965.69224815 92.54961773 979.7734375 88.859375 C984.20607796 87.67876858 988.61106798 86.41307199 993.0078125 85.10546875 C1000.82640803 82.80300014 1008.68717495 80.85399257 1016.62109375 78.99682617 C1023.31387704 77.42194848 1029.9742345 75.74355048 1036.625 74 C1037.58817139 73.74766602 1038.55134277 73.49533203 1039.54370117 73.23535156 C1044.03574602 72.05429451 1048.52413513 70.86086957 1053.0078125 69.6484375 C1061.61839758 67.33050698 1070.22134997 65.2828133 1078.96166992 63.51464844 C1084.23297683 62.42764736 1089.39237647 61.11743098 1094.5625 59.625 C1106.25616296 56.25893946 1118.13184202 53.66919525 1130 51 C1133.60445369 50.18876587 1137.20873145 49.37677283 1140.8125 48.5625 C1141.68253662 48.36599854 1142.55257324 48.16949707 1143.44897461 47.96704102 C1152.52529034 45.90360951 1161.57011913 43.7112363 1170.61474609 41.51367188 C1176.88102417 39.99125735 1183.15073834 38.49765973 1189.4375 37.0625 C1212.61677546 31.63699856 1235.16392194 24.87728693 1257.65991211 17.14526367 C1260.51620617 16.1658853 1263.37647673 15.20137543 1266.2421875 14.25 C1268.60764658 13.4631529 1270.96583979 12.65375555 1273.3125 11.8125 C1276 11 1276 11 1280 11 C1280 127.16 1280 243.32 1280 363 C857.6 363 435.2 363 0 363 C0 243.21 0 123.42 0 0 Z " fill="#FEFEFE" transform="translate(0,917)"/>
<path d="M0 0 C54.80307533 3.49782015 108.44855926 12.6644561 161.62768555 26.15576172 C173.03196038 29.04454534 184.48692592 31.5879657 196 34 C199.75678702 34.79130479 203.51305379 35.58493642 207.26855469 36.38232422 C209.74110454 36.90706485 212.21438181 37.42839314 214.68847656 37.94580078 C215.81350586 38.18411621 216.93853516 38.42243164 218.09765625 38.66796875 C219.59051147 38.98157349 219.59051147 38.98157349 221.11352539 39.30151367 C224.14616181 40.03536911 227.04849073 40.99209888 230 42 C231.99427 42.48265577 233.99475464 42.94018914 236 43.375 C240.61803551 44.41340572 245.14928227 45.59342855 249.6875 46.9375 C258.03593793 49.37323579 266.50355429 51.16969547 275 53 C287.5426807 55.71475295 287.5426807 55.71475295 291.8125 57.4375 C296.07381433 59.14377576 300.46243914 60.16280213 304.91625977 61.24682617 C322.16382119 65.46478081 339.25985544 70.29746585 356.30957031 75.24707031 C361.62661862 76.78394374 366.93961597 78.2484932 372.3203125 79.546875 C376.37046757 80.53723047 380.17225983 81.74555925 384.04248047 83.28125 C388.57751746 84.94639703 393.33608517 85.95179619 398.02148438 87.10546875 C402.92368087 88.34783332 407.35296357 89.97123667 412 92 C414.70324336 92.82614714 417.4042286 93.61258924 420.125 94.375 C432.06944632 97.83057456 443.74590828 102.05802719 455.44970703 106.24169922 C464.09676058 109.32487861 472.76091376 112.23896076 481.54956055 114.89453125 C486.84946432 116.59254047 491.89554763 118.79654547 497 121 C505.89543836 124.6723414 514.81875611 128.09346097 524 131 C524 131.66 524 132.32 524 133 C525.02782593 133.16411377 525.02782593 133.16411377 526.07641602 133.33154297 C529.50292789 134.11499095 532.53370364 135.33902974 535.77734375 136.6953125 C536.42514297 136.96584442 537.0729422 137.23637634 537.7403717 137.5151062 C539.11214007 138.08947834 540.48292664 138.66620025 541.8527832 139.24511719 C543.89704477 140.10792533 545.94524918 140.9607554 547.99414062 141.8125 C555.86481091 145.10846174 563.53102471 148.66318011 571.11767578 152.57006836 C573.38405632 153.69442808 575.54348374 154.64374907 577.9375 155.4375 C583.88307131 157.5197043 589.33387324 160.84107642 594.85351562 163.84228516 C597.79463062 165.42858717 600.75548774 166.97596212 603.71704102 168.52368164 C611.63547106 172.66381635 619.51979856 176.86613161 627.375 181.125 C628.30586426 181.62829834 629.23672852 182.13159668 630.19580078 182.65014648 C634.22144416 184.8474858 638.19300683 187.06736086 642.03515625 189.57421875 C642.62184082 189.95626465 643.20852539 190.33831055 643.81298828 190.73193359 C645.30448977 191.72402641 646.77638246 192.74543479 648.24609375 193.76953125 C652.1101557 195.49602702 653.91507993 195.15333986 658 194 C661.61344938 192.21102677 665.01402032 190.12593275 668.4375 188 C670.40683039 186.8074012 672.37688718 185.61600112 674.34765625 184.42578125 C675.31074707 183.84006348 676.27383789 183.2543457 677.26611328 182.65087891 C693.23236226 173.00953442 709.9309602 164.95399872 726.75610352 156.94384766 C732.70955607 154.10744599 738.63099927 151.22661287 744.5 148.21875 C746.92796906 147.03511508 749.3881583 145.96264077 751.87548828 144.91064453 C754.45869489 143.80338635 757.02372771 142.65802784 759.58984375 141.51171875 C769.98957008 136.87806382 780.35746918 132.33369867 791.0625 128.453125 C795.6913274 126.76948389 800.24732175 124.91031025 804.8125 123.0625 C814.46960408 119.16987875 824.20537606 115.53049402 834 112 C834.96462158 111.64953613 834.96462158 111.64953613 835.94873047 111.29199219 C863.92674167 101.1408734 892.3207992 91.98006116 921.00292969 84.03979492 C925.32026856 82.83123491 929.4650655 81.44577017 933.65161133 79.83056641 C939.21427819 77.8631901 944.94212269 76.39017479 950.625 74.8125 C952.04551135 74.41567965 953.46600255 74.01878714 954.88647461 73.62182617 C973.94615178 68.30903396 993.07605091 63.2558301 1012.22949219 58.29272461 C1017.64617144 56.88627025 1023.05414415 55.4507955 1028.45703125 53.9921875 C1051.84068252 47.68304783 1051.84068252 47.68304783 1063.08251953 45.29418945 C1067.49574233 44.35343484 1071.83828459 43.26375709 1076.1875 42.0625 C1083.48838469 40.06279474 1090.85527829 38.46370495 1098.26635742 36.92602539 C1103.59977938 35.80282792 1108.85774734 34.5221737 1114.1171875 33.08984375 C1121.80289537 31.00996366 1129.53961025 29.25744251 1137.31851196 27.56454468 C1141.2725227 26.70388986 1145.22420607 25.83269642 1149.17578125 24.9609375 C1149.94663559 24.79101791 1150.71748993 24.62109833 1151.51170349 24.44602966 C1158.37622796 22.92761482 1165.21905065 21.32505481 1172.04345703 19.63500977 C1184.9804306 16.46864826 1198.11647354 14.2239637 1211.23266602 11.94775391 C1213.79933648 11.50228465 1216.365524 11.05411625 1218.93164062 10.60546875 C1227.18476438 9.16516361 1235.44127822 7.74490178 1243.703125 6.35546875 C1244.76168449 6.17600708 1244.76168449 6.17600708 1245.84162903 5.99291992 C1257.1982418 4.09581426 1268.46309732 2.67501683 1280 3 C1280 7.95 1280 12.9 1280 18 C1276.90755208 18.94401042 1273.81510417 19.88802083 1270.72265625 20.83203125 C1264.7614942 22.70232239 1258.84858262 24.6845716 1252.96875 26.796875 C1233.52714311 33.76573519 1213.80168662 39.22591892 1193.69140625 43.890625 C1189.70617398 44.82006006 1185.75850905 45.85201386 1181.8125 46.9375 C1167.99787138 50.67158231 1153.98666714 53.65767795 1140.02629089 56.79150391 C1136.15329458 57.66152886 1132.28103745 58.53482221 1128.40878296 59.40814209 C1125.57643765 60.04530464 1122.74296938 60.67728238 1119.90942383 61.30908203 C1110.68109539 63.3813295 1101.54792187 65.62259564 1092.45306396 68.21948242 C1084.955233 70.34046214 1077.37541747 71.97433929 1069.75 73.5625 C1060.8573526 75.41855402 1052.09063509 77.455376 1043.36767578 80.02026367 C1037.96384683 81.59236499 1032.51372678 82.97803163 1027.0625 84.375 C1024.71480824 84.98033105 1022.36715267 85.58580246 1020.01953125 86.19140625 C1018.85244629 86.49191895 1017.68536133 86.79243164 1016.48291016 87.10205078 C1011.06987491 88.49761672 1005.65957878 89.90360408 1000.25 91.3125 C999.31679932 91.55468262 998.38359863 91.79686523 997.42211914 92.04638672 C992.59554866 93.30348632 987.7938139 94.62213732 983 96 C980.85519301 96.56640084 978.70929364 97.12867621 976.5625 97.6875 C966.70988214 100.28800509 956.94675067 103.19795611 947.17138672 106.07226562 C944.03484255 106.98980741 940.895077 107.89531116 937.75390625 108.796875 C927.9039929 111.63031548 918.09158063 114.50384687 908.40869141 117.87133789 C904.16237203 119.3355676 899.88837118 120.60932853 895.5625 121.8203125 C887.16631427 124.19529123 878.89778478 126.91690582 870.625 129.6875 C869.44695801 130.0809259 869.44695801 130.0809259 868.24511719 130.4822998 C850.16219933 136.53040179 832.35676359 143.18429458 814.67773438 150.32641602 C809.71017977 152.33164409 804.71838455 154.22309564 799.66918945 156.0144043 C794.7132199 157.84439141 789.86818742 159.95014385 785 162 C783.88786133 162.46784912 782.77572266 162.93569824 781.62988281 163.41772461 C763.88053655 170.8385688 763.88053655 170.8385688 746.55859375 179.1875 C743.71445968 180.63610396 740.86160755 182.02025491 737.97265625 183.375 C718.82412124 192.35577295 700.21427719 202.24872824 682 213 C685.54383757 216.69533992 689.28845718 219.85141157 693.375 222.9375 C703.86612755 231.0311368 713.81626968 240.00589107 722.38671875 250.1328125 C724.02601243 252.08002145 724.02601243 252.08002145 726.08203125 254.0546875 C728 256 728 256 730 259 C729.86714936 262.71981784 729.75057131 265.110434 727.3125 268 C724.20837606 269.34232386 722.30725428 268.58459053 719 268 C717.03616218 267.91648835 715.06995051 267.87952058 713.1043396 267.88215637 C711.94913315 267.88103851 710.7939267 267.87992065 709.60371399 267.87876892 C708.35051865 267.88243973 707.0973233 267.88611053 705.80615234 267.88989258 C704.46202087 267.89013495 703.11788922 267.88985678 701.77375793 267.88909912 C698.88784589 267.88799621 696.00194982 267.88941725 693.11603928 267.89246559 C688.55255587 267.89610668 683.98915493 267.88694305 679.4256897 267.87467957 C678.6545579 267.87265764 677.8834261 267.87063571 677.08892667 267.86855251 C675.51270667 267.86438438 673.93648675 267.86018163 672.36026692 267.85594499 C661.7417561 267.82781439 651.12342703 267.80771119 640.50488281 267.82495117 C633.33305772 267.83649962 626.16160503 267.82695403 618.98984683 267.79289359 C615.19679812 267.77572737 611.40442187 267.76946638 607.61137009 267.789011 C604.04704984 267.80721367 600.48389053 267.79766901 596.9196682 267.76675415 C594.9881817 267.75733903 593.05662212 267.77768652 591.12522888 267.7988739 C582.8990593 267.68998292 582.8990593 267.68998292 580.30528641 265.69939232 C578.56271439 263.25268757 577.92039859 261.55101867 578.3515625 258.56640625 C580.6587809 254.97436243 583.41685523 252.00400894 586.375 248.9375 C587.00494873 248.2770166 587.63489746 247.6165332 588.28393555 246.93603516 C589.57383699 245.58814419 590.86737035 244.24371932 592.16455078 242.90283203 C593.78984401 241.21787122 595.39542674 239.51687776 596.99609375 237.80859375 C615.30870021 218.5637666 615.30870021 218.5637666 626 215 C618.86328516 207.17040022 607.70108978 202.75235159 598.27807617 198.1262207 C594.79079814 196.41068835 591.33525358 194.65959204 587.921875 192.80078125 C573.01981723 184.69827765 557.57412259 177.80929212 542.08306885 170.92565918 C540.07996447 170.03553404 538.0778011 169.14331863 536.07568359 168.25097656 C512.74701803 157.87227032 489.07806544 148.50516872 465 140 C463.47264538 139.45575966 461.9453001 138.91149313 460.41796875 138.3671875 C444.35569706 132.68529547 428.18246295 127.32783347 412 122 C410.9495752 121.65404785 409.89915039 121.3080957 408.81689453 120.95166016 C395.53390654 116.59848864 382.13799705 112.70705607 368.6875 108.90625 C363.06311251 107.31288515 357.4653868 105.6456258 351.875 103.9375 C334.11342993 98.54104649 316.09615534 94.00445684 298.1328125 89.3359375 C289.97782738 87.21570118 281.82269835 85.09413264 273.71875 82.78515625 C265.36106369 80.41021519 257.00987581 78.27275518 248.515625 76.44262695 C244.03620844 75.47147317 239.60997104 74.39829254 235.1875 73.1875 C214.30619112 67.52807984 193.16263854 62.88230199 172.0625 58.125 C107.89270965 43.64858408 107.89270965 43.64858408 88.31689453 37.70166016 C85.85979948 36.95754096 83.39740259 36.23327951 80.93359375 35.51171875 C70.74172867 32.51354062 60.63184182 29.31418026 50.57910156 25.87890625 C48.73344237 25.2499425 46.88625785 24.62544774 45.03808594 24.00390625 C29.78338107 18.87358974 14.81200773 13.29881641 0 7 C0 4.69 0 2.38 0 0 Z " fill="#0B0C30" transform="translate(0,910)"/>
<path d="M0 0 C0.90063171 0.00030212 1.80126343 0.00060425 2.72918701 0.00091553 C3.69286194 0.02156067 4.65653687 0.04220581 5.64941406 0.06347656 C6.64257629 0.06913635 7.63573853 0.07479614 8.65899658 0.08062744 C11.82816965 0.1030013 14.99620826 0.15320051 18.16503906 0.20410156 C20.31476231 0.22416521 22.46450329 0.24241622 24.61425781 0.25878906 C29.88197256 0.2994664 35.14723749 0.37775661 40.41503906 0.45410156 C40.41503906 9.36410156 40.41503906 18.27410156 40.41503906 27.45410156 C29.97753906 27.89160156 29.97753906 27.89160156 26.68286133 28.0222168 C25.4075354 28.07937866 25.4075354 28.07937866 24.10644531 28.13769531 C23.23189697 28.17435303 22.35734863 28.21101074 21.45629883 28.2487793 C19.42229887 28.23591222 19.42229887 28.23591222 18.41503906 29.45410156 C18.31492464 31.20440393 18.28422691 32.95875198 18.28222656 34.71191406 C18.28029297 35.8042334 18.27835937 36.89655273 18.27636719 38.02197266 C18.28087891 39.1958252 18.28539062 40.36967773 18.29003906 41.57910156 C18.29293945 43.37661865 18.29293945 43.37661865 18.29589844 45.21044922 C18.33022469 52.24637724 18.61035599 59.16003081 19.19238281 66.16894531 C19.8918428 76.87479765 19.46626868 87.74711252 19.41503906 98.45410156 C10.17503906 98.45410156 0.93503906 98.45410156 -8.58496094 98.45410156 C-8.67527605 86.2671187 -8.7486851 74.08035757 -8.79220963 61.893116 C-8.81309762 56.23428174 -8.84143776 50.57568801 -8.88671875 44.91699219 C-8.9301327 39.45754375 -8.95408891 33.99832689 -8.96446991 28.53871918 C-8.97186924 26.4542552 -8.98631818 24.36980411 -9.00788116 22.28543854 C-9.03685567 19.3690487 -9.0409194 16.45361964 -9.0390625 13.53710938 C-9.0534436 12.67252106 -9.06782471 11.80793274 -9.0826416 10.91714478 C-9.05651667 7.13319255 -9.02309833 5.09283827 -6.84313965 1.91479492 C-4.28896048 0.26263491 -3.0160194 -0.03388786 0 0 Z " fill="#0B0C30" transform="translate(356.5849609375,102.5458984375)"/>
<path d="M0 0 C9.24 0 18.48 0 28 0 C28 34.32 28 68.64 28 104 C19.09 104 10.18 104 1 104 C0 103 0 103 -0.12304783 101.268363 C-0.12212604 100.50972737 -0.12120424 99.75109175 -0.12025452 98.96946716 C-0.12162918 98.10143463 -0.12300385 97.2334021 -0.12442017 96.33906555 C-0.12082489 95.37953476 -0.11722961 94.42000397 -0.11352539 93.43139648 C-0.11367142 92.42663269 -0.11381744 91.4218689 -0.1139679 90.38665771 C-0.1132683 87.04811483 -0.10547374 83.70962695 -0.09765625 80.37109375 C-0.09579224 78.06323782 -0.09436826 75.75538149 -0.09336853 73.44752502 C-0.08954204 67.35982174 -0.07971065 61.27214214 -0.06866455 55.18444824 C-0.05845323 48.97778646 -0.05387151 42.77112087 -0.04882812 36.56445312 C-0.0380885 24.37628998 -0.02049064 12.18815066 0 0 Z " fill="#0C0D31" transform="translate(931,102)"/>
<path d="M0 0 C3.06327199 1.48275399 5.16375355 3.13053033 7 6 C8.59345666 11.42494938 9.29787118 16.38587006 9.29052734 22.04907227 C9.30060318 23.18975662 9.30060318 23.18975662 9.31088257 24.35348511 C9.32971993 26.84119378 9.33377867 29.32863093 9.3359375 31.81640625 C9.34237255 33.55940356 9.34910143 35.3023998 9.35610962 37.0453949 C9.36804463 40.68743393 9.37179406 44.32937835 9.37060547 47.97143555 C9.37040185 52.62741248 9.39776512 57.28278202 9.43214989 61.93861485 C9.45442813 65.53410102 9.45844282 69.12944081 9.45738602 72.72498894 C9.45973822 74.44132529 9.46854025 76.15766591 9.48405075 77.87393379 C9.50374165 80.27649339 9.4978628 82.67773959 9.48583984 85.08032227 C9.49707886 85.78129532 9.50831787 86.48226837 9.51989746 87.20448303 C9.45149671 92.60855312 7.94634483 95.62976601 5 100 C0.36699151 103.5285149 -6.5090282 102.68126201 -12 102 C-14.86217982 100.64696954 -15.91438241 99.49115434 -18 97 C-19.23885343 93.28343971 -19.16356122 89.8238183 -19.17700195 85.9519043 C-19.18357315 85.13205048 -19.19014435 84.31219666 -19.19691467 83.46749878 C-19.21663279 80.75307117 -19.22830657 78.03869883 -19.23828125 75.32421875 C-19.24235678 74.39669107 -19.2464323 73.4691634 -19.25063133 72.51352882 C-19.2714851 67.60480599 -19.28579018 62.69611106 -19.29516602 57.78735352 C-19.30623281 52.71977875 -19.34063779 47.6526428 -19.38033772 42.5852232 C-19.40649191 38.68611336 -19.41485676 34.78710832 -19.41844749 30.88791847 C-19.42331605 29.02002814 -19.43493771 27.15214258 -19.45348549 25.284338 C-19.4778531 22.66796518 -19.47691653 20.05273103 -19.4699707 17.4362793 C-19.48278076 16.66775131 -19.49559082 15.89922333 -19.50878906 15.10740662 C-19.45865842 9.91577651 -18.24467594 7.01641824 -15 3 C-10.63616592 -1.18608116 -5.7303863 -0.97934568 0 0 Z " fill="#04A8FD" transform="translate(659,575)"/>
<path d="M0 0 C3.85558415 2.07608378 6.6242034 3.74753777 8 8 C9.06124408 13.10142423 9.16056107 18.03005363 9.17700195 23.21484375 C9.18357315 24.12291779 9.19014435 25.03099182 9.19691467 25.96658325 C9.21654808 28.95688979 9.22828442 31.94714648 9.23828125 34.9375 C9.24235678 35.96156952 9.2464323 36.98563904 9.25063133 38.04074097 C9.27144379 43.45521846 9.28576957 48.86967092 9.29516602 54.28417969 C9.30625518 59.87291513 9.34069783 65.46125517 9.38033772 71.04985046 C9.40647281 75.3529942 9.41485481 79.6560429 9.41844749 83.95925903 C9.42331692 86.01973153 9.43494101 88.08019968 9.45348549 90.14059448 C9.47782349 93.0224364 9.47692227 95.9032431 9.4699707 98.78515625 C9.48278076 99.63312775 9.49559082 100.48109924 9.50878906 101.35476685 C9.4617213 106.71311929 8.54979471 109.74295582 5 114 C2.27602821 116.15050405 0.48005064 116.91828925 -2.9375 117.5 C-7.14073738 116.81375716 -9.02342115 114.97657885 -12 112 C-14.78260302 108.11607547 -14.28057156 103.63560122 -14.25878906 99.05981445 C-14.2622937 98.15685135 -14.26579834 97.25388824 -14.26940918 96.32356262 C-14.27821487 93.33672404 -14.27237892 90.35012228 -14.265625 87.36328125 C-14.26697257 85.28305516 -14.26891387 83.20282938 -14.27142334 81.12260437 C-14.27437352 76.75887051 -14.2700825 72.39521849 -14.26074219 68.03149414 C-14.24938317 62.45431862 -14.25588526 56.87733636 -14.26788712 51.30016804 C-14.27513882 47.00118066 -14.272802 42.70223853 -14.26763153 38.40324974 C-14.26630234 36.348075 -14.26791701 34.29289607 -14.27259064 32.23772621 C-14.27770637 29.35409419 -14.26987356 26.47076767 -14.25878906 23.5871582 C-14.26283752 22.74683044 -14.26688599 21.90650269 -14.27105713 21.04071045 C-14.17825174 7.91678585 -14.17825174 7.91678585 -10.75589371 3.3340807 C-7.31024016 0.13854757 -4.57681405 -0.85815263 0 0 Z " fill="#07A8FC" transform="translate(508,378)"/>
<path d="M0 0 C4.37239218 0.98155743 7.03162522 3.46458633 10.0625 6.6875 C11.19988996 8.96227992 11.19743448 10.23264576 11.21640015 12.75994873 C11.22500061 13.61227081 11.23360107 14.4645929 11.24246216 15.34274292 C11.24672211 16.27990143 11.25098206 17.21705994 11.25537109 18.18261719 C11.26354858 19.16813568 11.27172607 20.15365417 11.28015137 21.16903687 C11.30502827 24.44081001 11.32152756 27.71253969 11.3359375 30.984375 C11.34126118 32.10037331 11.34658485 33.21637161 11.35206985 34.36618805 C11.3788118 40.27341526 11.39818312 46.18062126 11.41259766 52.08789062 C11.42924522 58.19247188 11.47402152 64.29651324 11.5249691 70.40089035 C11.55861132 75.0917829 11.57017185 79.78254687 11.57582474 84.47354889 C11.58254586 86.7238299 11.59779012 88.9741022 11.62171555 91.22426605 C11.65330302 94.37489403 11.653413 97.5240602 11.64599609 100.67480469 C11.66240143 101.60386627 11.67880676 102.53292786 11.69570923 103.49014282 C11.65360967 107.86080125 11.45383246 110.77729053 8.65103149 114.25079346 C5.63305603 117.09175582 4.90710258 117.60628821 0.8125 118 C-3.59796321 117.6324614 -5.53780631 116.45469254 -8.9375 113.6875 C-10.9740846 110.63262311 -11.18787012 110.04103487 -11.19146729 106.60868835 C-11.19710693 105.78023407 -11.20274658 104.95177979 -11.20855713 104.09822083 C-11.20450867 103.19270981 -11.20046021 102.28719879 -11.19628906 101.35424805 C-11.1997937 100.39784424 -11.20329834 99.44144043 -11.20690918 98.45605469 C-11.215728 95.28703602 -11.20987536 92.11823979 -11.203125 88.94921875 C-11.20447194 86.74827532 -11.20641271 84.54733218 -11.20892334 82.34638977 C-11.21187509 77.72870049 -11.20757654 73.11108851 -11.19824219 68.4934082 C-11.18686774 62.57849032 -11.19339413 56.66375434 -11.20538712 50.74884319 C-11.21262145 46.20120377 -11.21031019 41.6536073 -11.20513153 37.10596657 C-11.20379835 34.92550447 -11.20543114 32.74503845 -11.21009064 30.56458092 C-11.2151794 27.51259447 -11.20741152 24.46090028 -11.19628906 21.40893555 C-11.20033752 20.50949722 -11.20438599 19.6100589 -11.20855713 18.68336487 C-11.16566464 12.3181965 -10.77111421 7.60446031 -6.1875 2.8125 C-2.9375 0.6875 -2.9375 0.6875 0 0 Z " fill="#01A7FE" transform="translate(801.9375,377.3125)"/>
<path d="M0 0 C9.24 0 18.48 0 28 0 C28 26.4 28 52.8 28 80 C18.76 80 9.52 80 0 80 C0 53.6 0 27.2 0 0 Z " fill="#0E0E31" transform="translate(348,451)"/>
<path d="M0 0 C0 26.07 0 52.14 0 79 C-12 80 -12 80 -28 80 C-28 53.93 -28 27.86 -28 1 C-5 0 -5 0 0 0 Z " fill="#0D0D30" transform="translate(376,232)"/>
<path d="M0 0 C9.24 0 18.48 0 28 0 C28 25.41 28 50.82 28 77 C18.76 77 9.52 77 0 77 C0 51.59 0 26.18 0 0 Z " fill="#0D0E31" transform="translate(931,338)"/>
<path d="M0 0 C0 25.08 0 50.16 0 76 C-9.24 76 -18.48 76 -28 76 C-28 51.25 -28 26.5 -28 1 C-18.6768323 0.45157837 -9.33928382 0 0 0 Z " fill="#0C0C2F" transform="translate(376,343)"/>
<path d="M0 0 C20 0 20 0 28 1 C28 24.43 28 47.86 28 72 C18.76 72 9.52 72 0 72 C0 48.24 0 24.48 0 0 Z " fill="#0D0D30" transform="translate(348,562)"/>
<path d="M0 0 C9.24 0 18.48 0 28 0 C28 22.44 28 44.88 28 68 C18.76 68 9.52 68 0 68 C0 45.56 0 23.12 0 0 Z " fill="#0D0D30" transform="translate(931,238)"/>
<path d="M0 0 C9.24 0 18.48 0 28 0 C28.1027402 22.69416883 28.07537771 45.32554656 27 68 C22.70363247 69.43212251 18.56431635 69.30490803 14.0625 69.375 C12.7022168 69.43107422 12.7022168 69.43107422 11.31445312 69.48828125 C10.00057617 69.50568359 10.00057617 69.50568359 8.66015625 69.5234375 C7.86230713 69.54325684 7.06445801 69.56307617 6.24243164 69.58349609 C2.8617963 68.70383159 1.8913773 66.87097401 0 64 C-0.48101807 60.96903992 -0.48101807 60.96903992 -0.45410156 57.55737305 C-0.45379944 56.27642258 -0.45349731 54.99547211 -0.45318604 53.67570496 C-0.43276253 52.28770316 -0.4118986 50.89970778 -0.390625 49.51171875 C-0.38315903 48.08397719 -0.37746778 46.65622534 -0.37347412 45.22846985 C-0.35824547 41.48159189 -0.31898877 37.73534009 -0.2746582 33.9887085 C-0.22642655 29.48752532 -0.20815817 24.98613206 -0.18484497 20.4847641 C-0.14613471 13.65607471 -0.06946462 6.82875758 0 0 Z " fill="#0C0D31" transform="translate(348,861)"/>
<path d="M0 0 C9.24 0 18.48 0 28 0 C28 21.78 28 43.56 28 66 C4 66 4 66 0 65 C0 43.55 0 22.1 0 0 Z " fill="#0C0D31" transform="translate(348,666)"/>
<path d="M0 0 C17 0 17 0 28 1 C28 22.45 28 43.9 28 66 C18.76 66 9.52 66 0 66 C0 44.22 0 22.44 0 0 Z " fill="#0C0D31" transform="translate(348,763)"/>
<path d="M0 0 C8.91 0 17.82 0 27 0 C27 21.12 27 42.24 27 64 C17.76 64 8.52 64 -1 64 C-1.04010881 48.31745555 -1.04010881 48.31745555 -1.04882812 41.65429688 C-1.05481573 37.10016725 -1.06191383 32.54605765 -1.07543945 27.99194336 C-1.0862712 24.32207456 -1.09227744 20.65222722 -1.09487724 16.98234367 C-1.09673097 15.57925008 -1.1003506 14.17615771 -1.10573006 12.7730732 C-1.11294419 10.8143032 -1.11340809 8.8555118 -1.11352539 6.89672852 C-1.115746 5.77976089 -1.11796661 4.66279327 -1.12025452 3.51197815 C-1 1 -1 1 0 0 Z " fill="#0E0D30" transform="translate(932,447)"/>
<path d="M0 0 C9.24 0 18.48 0 28 0 C28 20.13 28 40.26 28 61 C18.84207876 62.83158425 9.33928382 62 0 62 C0 41.54 0 21.08 0 0 Z " fill="#0C0E31" transform="translate(931,636)"/>
<path d="M0 0 C19.47 0 38.94 0 59 0 C59 9.24 59 18.48 59 28 C39.53 28 20.06 28 0 28 C0 18.76 0 9.52 0 0 Z " fill="#0C0D31" transform="translate(594,102)"/>
<path d="M0 0 C18.81 0 37.62 0 57 0 C57 9.24 57 18.48 57 28 C38.19 28 19.38 28 0 28 C0 18.76 0 9.52 0 0 Z " fill="#0B0C30" transform="translate(505,102)"/>
<path d="M0 0 C7.27758461 -0.02094604 14.55506063 -0.04098406 21.83264923 -0.05175018 C25.22137231 -0.05703969 28.61007056 -0.0641128 31.9987793 -0.07543945 C35.88329777 -0.08834267 39.76780597 -0.09322924 43.65234375 -0.09765625 C44.87211411 -0.10281754 46.09188446 -0.10797882 47.34861755 -0.11329651 C49.03024742 -0.11340981 49.03024742 -0.11340981 50.74584961 -0.11352539 C51.73846298 -0.115746 52.73107635 -0.11796661 53.75376892 -0.12025452 C56 0 56 0 57 1 C57 9.91 57 18.82 57 28 C38.19 28 19.38 28 0 28 C0 18.76 0 9.52 0 0 Z " fill="#0D0E31" transform="translate(657,902)"/>
<path d="M0 0 C8.91 0 17.82 0 27 0 C27 19.47 27 38.94 27 59 C18.09 59 9.18 59 0 59 C0 39.53 0 20.06 0 0 Z " fill="#08082C" transform="translate(932,544)"/>
<path d="M0 0 C18.48 0 36.96 0 56 0 C56 9.24 56 18.48 56 28 C37.52 28 19.04 28 0 28 C0 18.76 0 9.52 0 0 Z " fill="#0E0E32" transform="translate(569,902)"/>
<path d="M0 0 C18.15 0 36.3 0 55 0 C55 9.24 55 18.48 55 28 C47.18542926 28.02290171 39.370974 28.04283103 31.55639648 28.05493164 C28.89558519 28.05997383 26.23477668 28.06680736 23.57397461 28.07543945 C19.75894484 28.08751009 15.94395156 28.09322929 12.12890625 28.09765625 C10.33206139 28.10539818 10.33206139 28.10539818 8.49891663 28.11329651 C6.84731789 28.11340981 6.84731789 28.11340981 5.16235352 28.11352539 C4.18750504 28.115746 3.21265656 28.11796661 2.20826721 28.12025452 C0 28 0 28 -1 27 C-1.0992724 25.4243784 -1.13079953 23.84436956 -1.1328125 22.265625 C-1.13410156 21.29882812 -1.13539063 20.33203125 -1.13671875 19.3359375 C-1.13285156 18.31757812 -1.12898437 17.29921875 -1.125 16.25 C-1.12886719 15.24710938 -1.13273438 14.24421875 -1.13671875 13.2109375 C-1.13542969 12.23898438 -1.13414062 11.26703125 -1.1328125 10.265625 C-1.13112061 8.93192871 -1.13112061 8.93192871 -1.12939453 7.57128906 C-1 5 -1 5 0 0 Z " fill="#0C0D31" transform="translate(768,102)"/>
<path d="M0 0 C9.24 0 18.48 0 28 0 C28 17.82 28 35.64 28 54 C18.76 54 9.52 54 0 54 C0 36.18 0 18.36 0 0 Z " fill="#0C0E31" transform="translate(931,730)"/>
<path d="M0 0 C1.12591553 0.00523682 2.25183105 0.01047363 3.41186523 0.01586914 C4.50571533 0.0183667 5.59956543 0.02086426 6.7265625 0.0234375 C8.82729126 0.03709351 8.82729126 0.03709351 10.97045898 0.05102539 C17.62202148 0.08196289 17.62202148 0.08196289 24.40795898 0.11352539 C24.40795898 17.27352539 24.40795898 34.43352539 24.40795898 52.11352539 C15.16795898 52.11352539 5.92795898 52.11352539 -3.59204102 52.11352539 C-3.61494379 44.86861325 -3.63487278 37.6238257 -3.64697266 30.37890625 C-3.65201458 27.91210506 -3.65884792 25.44530687 -3.66748047 22.97851562 C-3.67955226 19.4414801 -3.68527057 15.90448394 -3.68969727 12.36743164 C-3.69485855 11.25703018 -3.70001984 10.14662872 -3.70533752 9.00257874 C-3.70541306 7.98159592 -3.70548859 6.9606131 -3.70556641 5.90869141 C-3.70778702 5.0049025 -3.71000763 4.10111359 -3.71229553 3.16993713 C-3.53059252 0.06272574 -3.13314663 0.13722456 0 0 Z " fill="#0D0E32" transform="translate(934.592041015625,815.886474609375)"/>
<path d="M0 0 C5.39729522 0 9.78355941 0.03242253 14.95849609 0.7572937 C18.73063508 1.20574834 22.51770788 1.23828178 26.3125 1.31640625 C27.16682617 1.33718735 28.02115234 1.35796844 28.90136719 1.37937927 C31.60083842 1.44418599 34.30039765 1.50343565 37 1.5625 C38.84245661 1.60575092 40.68490469 1.64936718 42.52734375 1.69335938 C47.01814154 1.79979557 51.50902684 1.90125193 56 2 C56.08701039 5.60401481 56.14039388 9.20776012 56.1875 12.8125 C56.21263672 13.83666016 56.23777344 14.86082031 56.26367188 15.91601562 C56.27333984 16.89892578 56.28300781 17.88183594 56.29296875 18.89453125 C56.3086792 19.80050049 56.32438965 20.70646973 56.34057617 21.63989258 C56 24 56 24 54.82788086 25.78710938 C52.31284244 27.4559635 50.47012045 27.43278538 47.4609375 27.51171875 C46.33397461 27.54724854 45.20701172 27.58277832 44.04589844 27.61938477 C42.22880371 27.65310181 42.22880371 27.65310181 40.375 27.6875 C38.5192334 27.73765259 38.5192334 27.73765259 36.62597656 27.78881836 C24.41654879 28.08791671 12.21219903 28.07100116 0 28 C0 18.76 0 9.52 0 0 Z " fill="#0A0B2F" transform="translate(903,902)"/>
<path d="M0 0 C16.83 0 33.66 0 51 0 C51 9.24 51 18.48 51 28 C34.17 28 17.34 28 0 28 C0 18.76 0 9.52 0 0 Z " fill="#0D0E31" transform="translate(746,902)"/>
<path d="M0 0 C16.83 0 33.66 0 51 0 C50.67 9.24 50.34 18.48 50 28 C33.5 28 17 28 0 28 C0 18.76 0 9.52 0 0 Z " fill="#0C0D31" transform="translate(685,102)"/>
<path d="M0 0 C16.17 0 32.34 0 49 0 C49 9.24 49 18.48 49 28 C32.83 28 16.66 28 0 28 C0 18.76 0 9.52 0 0 Z " fill="#0C0D31" transform="translate(413,902)"/>
<path d="M0 0 C4.51666764 -0.02312287 9.03312473 -0.04298528 13.54980469 -0.05493164 C15.08203838 -0.05991896 16.61426742 -0.06671122 18.14648438 -0.07543945 C36.68818973 -0.17831445 36.68818973 -0.17831445 43 1 C45.78772868 3.78772868 45.06870166 11.13628255 45.09765625 14.9375 C45.09111544 16.62502801 45.07934864 18.31254342 45.0625 20 C45.05798828 20.87011719 45.05347656 21.74023438 45.04882812 22.63671875 C45.0371736 24.75784293 45.01924357 26.8789311 45 29 C29.95440818 29.10378473 15.00930638 29.11180047 0 28 C0 18.76 0 9.52 0 0 Z " fill="#0E0F32" transform="translate(855,102)"/>
<path d="M0 0 C14.52 0 29.04 0 44 0 C44 9.24 44 18.48 44 28 C29.48 28 14.96 28 0 28 C0 18.76 0 9.52 0 0 Z " fill="#0E0F32" transform="translate(429,102)"/>
<path d="M0 0 C1.77206192 0.00015919 3.54412846 0.00585754 5.31616211 0.01586914 C6.24698105 0.01728409 7.17779999 0.01869904 8.13682556 0.02015686 C11.12241777 0.02577367 14.10793615 0.03832899 17.09350586 0.05102539 C19.11238499 0.05603823 21.13126529 0.06060151 23.15014648 0.06469727 C28.11048456 0.07489952 33.07066216 0.09447157 38.03100586 0.11352539 C38.03100586 9.35352539 38.03100586 18.59352539 38.03100586 28.11352539 C23.84100586 28.11352539 9.65100586 28.11352539 -4.96899414 28.11352539 C-4.98961914 23.67915039 -5.01024414 19.24477539 -5.03149414 14.67602539 C-5.04059814 13.27553955 -5.04970215 11.87505371 -5.05908203 10.43212891 C-5.06157959 9.33827881 -5.06407715 8.24442871 -5.06665039 7.11743164 C-5.07188721 5.99151611 -5.07712402 4.86560059 -5.08251953 3.70556641 C-4.89859126 -0.49393132 -4.4355607 0.12687062 0 0 Z " fill="#08092E" transform="translate(498.968994140625,901.886474609375)"/>
<path d="M0 0 C13.86 0 27.72 0 42 0 C42 9.24 42 18.48 42 28 C28.14 28 14.28 28 0 28 C0 18.76 0 9.52 0 0 Z " fill="#0D0E31" transform="translate(829,902)"/>
<path d="M0 0 C2.24038535 1.19297857 4.22924853 2.44418414 6.27734375 3.9375 C17.52045002 11.61434552 31.44450368 18.44158809 44.46484375 22.3125 C44.46484375 22.6425 44.46484375 22.9725 44.46484375 23.3125 C14.10484375 23.3125 -16.25515625 23.3125 -47.53515625 23.3125 C-46.26677934 20.77574619 -45.40645821 20.67132782 -42.80859375 19.6484375 C-41.64251587 19.17833252 -41.64251587 19.17833252 -40.45288086 18.69873047 C-39.61378174 18.36502441 -38.77468262 18.03131836 -37.91015625 17.6875 C-31.61339405 15.11098645 -25.4632867 12.4175578 -19.47265625 9.1875 C-18.86486328 8.86007812 -18.25707031 8.53265625 -17.63085938 8.1953125 C-13.16188234 5.74252598 -8.87619066 3.04647817 -4.68359375 0.1484375 C-2.53515625 -0.6875 -2.53515625 -0.6875 0 0 Z " fill="#FAF9FB" transform="translate(655.53515625,1140.6875)"/>
<path d="M0 0 C1.875 1.5 1.875 1.5 3 3 C1.948125 2.896875 0.89625 2.79375 -0.1875 2.6875 C-4.12436693 2.63878717 -4.12436693 2.63878717 -6.8125 5.375 C-7.534375 6.24125 -8.25625 7.1075 -9 8 C-9.66 8.66 -10.32 9.32 -11 10 C-11.20427599 13.06681813 -11.28312151 16.04369887 -11.2746582 19.11206055 C-11.27976913 20.05695847 -11.28488007 21.00185638 -11.29014587 21.97538757 C-11.30409381 25.11256168 -11.30308055 28.24951724 -11.30078125 31.38671875 C-11.30466666 33.56427594 -11.30900101 35.74183237 -11.31376648 37.91938782 C-11.32124085 42.49177502 -11.32092959 47.06408503 -11.31567383 51.63647461 C-11.30989189 57.48972805 -11.32677355 63.34266374 -11.3500185 69.19586468 C-11.364772 73.69722841 -11.36562508 78.19851604 -11.36250877 82.69989967 C-11.36302164 84.85721272 -11.36825291 87.01453007 -11.37832069 89.17181969 C-11.39069238 92.19507626 -11.38388762 95.21771963 -11.37231445 98.2409668 C-11.37995819 99.12903015 -11.38760193 100.01709351 -11.39547729 100.93206787 C-11.34956416 106.37358182 -10.48196033 110.14263701 -8 115 C-11.16115776 113.63016497 -11.9927092 113.0109362 -14 110 C-14.25168228 108.1014967 -14.25168228 108.1014967 -14.25396729 105.92118835 C-14.25960693 105.09273407 -14.26524658 104.26427979 -14.27105713 103.41072083 C-14.26700867 102.50520981 -14.26296021 101.59969879 -14.25878906 100.66674805 C-14.2622937 99.71034424 -14.26579834 98.75394043 -14.26940918 97.76855469 C-14.278228 94.59953602 -14.27237536 91.43073979 -14.265625 88.26171875 C-14.26697194 86.06077532 -14.26891271 83.85983218 -14.27142334 81.65888977 C-14.27437509 77.04120049 -14.27007654 72.42358851 -14.26074219 67.8059082 C-14.24936774 61.89099032 -14.25589413 55.97625434 -14.26788712 50.06134319 C-14.27512145 45.51370377 -14.27281019 40.9661073 -14.26763153 36.41846657 C-14.26629835 34.23800447 -14.26793114 32.05753845 -14.27259064 29.87708092 C-14.2776794 26.82509447 -14.26991152 23.77340028 -14.25878906 20.72143555 C-14.26283752 19.82199722 -14.26688599 18.9225589 -14.27105713 17.99586487 C-14.22816464 11.6306965 -13.83361421 6.91696031 -9.25 2.125 C-5.68892806 -0.20339319 -4.15400037 -0.73848895 0 0 Z " fill="#29A5E6" transform="translate(805,378)"/>
<path d="M0 0 C4.67521292 3.58357579 4.67521292 3.58357579 5.47548294 7.07362175 C5.65102304 9.67155856 5.67542112 12.23185217 5.64697266 14.83569336 C5.66011505 16.31462822 5.66011505 16.31462822 5.67352295 17.82344055 C5.69551106 21.07935732 5.68096438 24.3339134 5.6640625 27.58984375 C5.66743105 29.85519165 5.67228399 32.1205378 5.67855835 34.38587952 C5.68592915 39.13299776 5.67521793 43.87964546 5.65185547 48.62670898 C5.62338453 54.70779653 5.6397607 60.78777994 5.66971779 66.86882687 C5.68779864 71.54692378 5.68202868 76.22475961 5.66907883 80.90286446 C5.66574618 83.14473158 5.66982687 85.3866225 5.68147659 87.62846184 C5.69419579 90.7645823 5.67479084 93.89892391 5.64697266 97.03491211 C5.65709381 97.95926056 5.66721497 98.88360901 5.67764282 99.83596802 C5.60617733 104.19140686 5.37621586 107.10085544 2.58456421 110.56031799 C-0.57131442 113.53928841 -1.16249465 113.95513364 -5.5 114.1875 C-9 114 -9 114 -11 112 C-6.05 111.505 -6.05 111.505 -1 111 C-1.33 110.01 -1.66 109.02 -2 108 C-1.01 107.505 -1.01 107.505 0 107 C0 107.66 0 108.32 0 109 C0.66 109 1.32 109 2 109 C2.33 74.35 2.66 39.7 3 4 C2.34 4 1.68 4 1 4 C0.67 2.68 0.34 1.36 0 0 Z " fill="#21A3E5" transform="translate(808,381)"/>
<path d="M0 0 C3.13735845 0.93272819 4.71557415 1.63430962 6.75 4.25 C9.35995777 9.9919071 9.15737842 16.02637636 9.17700195 22.21484375 C9.18357315 23.12291779 9.19014435 24.03099182 9.19691467 24.96658325 C9.21654808 27.95688979 9.22828442 30.94714648 9.23828125 33.9375 C9.24235678 34.96156952 9.2464323 35.98563904 9.25063133 37.04074097 C9.27144379 42.45521846 9.28576957 47.86967092 9.29516602 53.28417969 C9.30625518 58.87291513 9.34069783 64.46125517 9.38033772 70.04985046 C9.40647281 74.3529942 9.41485481 78.6560429 9.41844749 82.95925903 C9.42331692 85.01973153 9.43494101 87.08019968 9.45348549 89.14059448 C9.47782349 92.0224364 9.47692227 94.9032431 9.4699707 97.78515625 C9.48278076 98.63312775 9.49559082 99.48109924 9.50878906 100.35476685 C9.4617213 105.71311929 8.54979471 108.74295582 5 113 C2.20390326 115.20744479 0.46618551 115.93340207 -3.0625 116.4375 C-6.63988574 115.90469787 -7.75828653 114.75903196 -10 112 C-9.484375 112.165 -8.96875 112.33 -8.4375 112.5 C-5.21876586 113.16025316 -2.27722861 113.17875792 1 113 C4.24849977 111.27773504 4.24849977 111.27773504 5 108 C5.66 108 6.32 108 7 108 C6.67 74.01 6.34 40.02 6 5 C5.01 4.67 4.02 4.34 3 4 C3 3.34 3 2.68 3 2 C1.68 1.67 0.36 1.34 -1 1 C-0.67 0.67 -0.34 0.34 0 0 Z " fill="#41B1E9" transform="translate(508,379)"/>
<path d="M0 0 C0.99 0.33 1.98 0.66 3 1 C2.360625 1.556875 1.72125 2.11375 1.0625 2.6875 C-3.09480356 7.34871914 -2.13712999 13.67908897 -2.11352539 19.60791016 C-2.11367142 20.5694249 -2.11381744 21.53093964 -2.1139679 22.52159119 C-2.11327229 25.69410472 -2.10549482 28.86655924 -2.09765625 32.0390625 C-2.09579039 34.24433358 -2.09436728 36.44960507 -2.09336853 38.65487671 C-2.08955303 44.45696153 -2.07973322 50.25902127 -2.06866455 56.06109619 C-2.05844309 61.97041486 -2.05386577 67.87973754 -2.04882812 73.7890625 C-2.03858242 84.89228611 -2.02280031 95.99549325 -2.00279331 107.09870338 C-2.00039305 108.73246743 -2 110.3662342 -2 112 C-4.67827364 109.44352016 -5.22972184 107.3676683 -5.3742218 103.80093384 C-5.38900709 102.05175915 -5.38713871 100.30239702 -5.37231445 98.55322266 C-5.37596512 97.59667282 -5.37961578 96.64012299 -5.38337708 95.65458679 C-5.39148613 92.49089835 -5.37786724 89.32772161 -5.36328125 86.1640625 C-5.3627626 83.96454875 -5.36328049 81.76503453 -5.36479187 79.56552124 C-5.36470212 74.95376675 -5.35426944 70.34218699 -5.33618164 65.73046875 C-5.31352122 59.82341469 -5.31294539 53.91661656 -5.31969929 48.00953102 C-5.32304394 43.46617363 -5.31639933 38.9228744 -5.30657005 34.37952805 C-5.30272435 32.20186035 -5.30156723 30.02418617 -5.3031559 27.84651566 C-5.30352747 24.79940769 -5.29087948 21.75262537 -5.2746582 18.70556641 C-5.27713562 17.80769913 -5.27961304 16.90983185 -5.28216553 15.98475647 C-5.24208469 11.25826582 -4.82465396 7.44340676 -3 3 C-2.34 3 -1.68 3 -1 3 C-0.67 2.01 -0.34 1.02 0 0 Z " fill="#CEFDFF" transform="translate(794,379)"/>
<path d="M0 0 C4.875 1.875 4.875 1.875 6 3 C6.09531163 4.3534059 6.1218872 5.71173984 6.12025452 7.0684967 C6.12162918 7.94494339 6.12300385 8.82139008 6.12442017 9.72439575 C6.12082489 10.69327728 6.11722961 11.66215881 6.11352539 12.66040039 C6.11367142 13.67491776 6.11381744 14.68943512 6.1139679 15.73469543 C6.11326829 19.10570373 6.10547368 22.47665754 6.09765625 25.84765625 C6.09579224 28.17793243 6.09436826 30.508209 6.09336853 32.83848572 C6.08954202 38.98537265 6.0797106 45.13223613 6.06866455 51.27911377 C6.05845329 57.54609866 6.05387152 63.81308732 6.04882812 70.08007812 C6.03808845 82.38672908 6.02101044 94.69336259 6 107 C5.34 107 4.68 107 4 107 C3.99413376 105.73323929 3.98826752 104.46647858 3.98222351 103.16133118 C3.92503048 91.22796949 3.85228659 79.29479062 3.76428509 67.36161518 C3.71954237 61.22652307 3.68029468 55.09149796 3.65356445 48.95629883 C3.62757067 43.03637739 3.58719568 37.11671328 3.53681374 31.19695091 C3.52011852 28.93754462 3.50862082 26.67809379 3.50238609 24.41863441 C3.49277409 21.25578406 3.46474869 18.09359602 3.43237305 14.9309082 C3.43380814 13.99510925 3.43524323 13.0593103 3.4367218 12.09515381 C3.36620499 7.22957898 3.12359082 3.98527774 0 0 Z " fill="#C5F7FE" transform="translate(809,381)"/>
<path d="M0 0 C2.77622258 1.64569895 4.884606 3.57415569 7 6 C6.67 6.66 6.34 7.32 6 8 C4.2925002 6.71937515 2.62626404 5.38232443 1 4 C1 3.34 1 2.68 1 2 C-2.96 2 -6.92 2 -11 2 C-11.66 3.32 -12.32 4.64 -13 6 C-13.66 6 -14.32 6 -15 6 C-15.144375 7.134375 -15.28875 8.26875 -15.4375 9.4375 C-16 13 -16 13 -17 14 C-17.10561229 16.41791043 -17.14678383 18.80740075 -17.14526367 21.22607422 C-17.14862228 21.98217987 -17.1519809 22.73828552 -17.15544128 23.51730347 C-17.16498041 26.02978129 -17.16689597 28.54219267 -17.16796875 31.0546875 C-17.17117962 32.79485095 -17.17454356 34.53501413 -17.17805481 36.275177 C-17.18405374 39.92873765 -17.18589396 43.58227462 -17.18530273 47.23583984 C-17.18520115 51.92249129 -17.19884642 56.60899111 -17.21607494 61.29560661 C-17.22718296 64.89178162 -17.2292223 68.48791985 -17.22869301 72.08411026 C-17.2298752 73.81210985 -17.23431034 75.54011033 -17.24202538 77.26809311 C-17.25179982 79.6838828 -17.24895725 82.09934195 -17.24291992 84.51513672 C-17.24853943 85.23213745 -17.25415894 85.94913818 -17.25994873 86.68786621 C-17.23660279 90.35567344 -17.09382618 91.85926073 -15 95 C-15 95.99 -15 96.98 -15 98 C-11.68929162 99.00109515 -8.69915231 99.10356134 -5.25 99.0625 C-4.26515625 99.05347656 -3.2803125 99.04445313 -2.265625 99.03515625 C-1.51796875 99.02355469 -0.7703125 99.01195312 0 99 C-0.495 98.01 -0.495 98.01 -1 97 C0.98 97.33 2.96 97.66 5 98 C5 98.66 5 99.32 5 100 C-0.19276838 103.15365689 -6.1397358 102.72707993 -12 102 C-14.86217982 100.64696954 -15.91438241 99.49115434 -18 97 C-19.23885343 93.28343971 -19.16356122 89.8238183 -19.17700195 85.9519043 C-19.18357315 85.13205048 -19.19014435 84.31219666 -19.19691467 83.46749878 C-19.21663279 80.75307117 -19.22830657 78.03869883 -19.23828125 75.32421875 C-19.24235678 74.39669107 -19.2464323 73.4691634 -19.25063133 72.51352882 C-19.2714851 67.60480599 -19.28579018 62.69611106 -19.29516602 57.78735352 C-19.30623281 52.71977875 -19.34063779 47.6526428 -19.38033772 42.5852232 C-19.40649191 38.68611336 -19.41485676 34.78710832 -19.41844749 30.88791847 C-19.42331605 29.02002814 -19.43493771 27.15214258 -19.45348549 25.284338 C-19.4778531 22.66796518 -19.47691653 20.05273103 -19.4699707 17.4362793 C-19.48278076 16.66775131 -19.49559082 15.89922333 -19.50878906 15.10740662 C-19.45865842 9.91577651 -18.24467594 7.01641824 -15 3 C-10.66230479 -1.16100701 -5.70137416 -1.03588347 0 0 Z " fill="#24A5E6" transform="translate(659,575)"/>
<path d="M0 0 C2 1 2 1 2.61216736 2.73529053 C3.04554859 5.2659764 3.16186736 7.66735922 3.20532227 10.23535156 C3.22525238 11.28850555 3.2451825 12.34165955 3.26571655 13.42672729 C3.28244415 14.56981354 3.29917175 15.71289978 3.31640625 16.890625 C3.3373233 18.08761017 3.35824036 19.28459534 3.37979126 20.51785278 C3.43479374 23.75835267 3.48533271 26.99887679 3.5328331 30.23949432 C3.56245844 32.24718329 3.59338314 34.25484841 3.62466431 36.26251221 C3.87536209 52.44955661 4.11168038 68.6380543 4.17623901 84.82702637 C4.18370325 86.51592711 4.19434711 88.20481701 4.20828247 89.89367676 C4.22588453 92.20786896 4.23030714 94.52168716 4.23046875 96.8359375 C4.23457764 98.11001465 4.23868652 99.3840918 4.24291992 100.69677734 C4.00438897 103.94031887 3.518196 106.13748966 2 109 C-0.71000304 110.56894913 -2.20711542 111.12857588 -5.3125 110.625 C-5.869375 110.41875 -6.42625 110.2125 -7 110 C-6.05125 109.4225 -5.1025 108.845 -4.125 108.25 C-1.07719829 106.05558277 -0.29455253 105.32913451 1 102 C1.2928422 100.04756379 1.2928422 100.04756379 1.24723816 98.00421143 C1.25143265 97.21934357 1.25562714 96.43447571 1.25994873 95.62582397 C1.25432922 94.77380402 1.24870972 93.92178406 1.24291992 93.04394531 C1.24481827 92.13937592 1.24671661 91.23480652 1.24867249 90.30282593 C1.25237813 87.31117087 1.2416754 84.31975852 1.23046875 81.328125 C1.22927626 79.24550403 1.22882393 77.16288252 1.2290802 75.08026123 C1.22751547 70.71232746 1.21922918 66.34447565 1.20581055 61.9765625 C1.18886299 56.39036464 1.1849951 50.80425721 1.18575573 45.21803665 C1.18548306 40.91480656 1.17998567 36.61159605 1.17275429 32.3083725 C1.16958146 30.24958189 1.16760346 28.19078907 1.16686058 26.13199615 C1.16467988 23.24583709 1.15589733 20.35977159 1.14526367 17.47363281 C1.14571686 16.62970978 1.14617004 15.78578674 1.14663696 14.91629028 C1.11955123 9.86017929 0.72110553 5.00580327 0 0 Z " fill="#DDFEFE" transform="translate(515,384)"/>
<path d="M0 0 C0.99 0.33 1.98 0.66 3 1 C3 1.66 3 2.32 3 3 C47.88 3 92.76 3 139 3 C139 3.33 139 3.66 139 4 C93.79 4 48.58 4 2 4 C1.34 2.68 0.68 1.36 0 0 Z " fill="#15142F" transform="translate(580,1173)"/>
<path d="M0 0 C-0.99 0.33 -1.98 0.66 -3 1 C-3 1.66 -3 2.32 -3 3 C-1.97713898 2.9830307 -0.95427795 2.9660614 0.09957886 2.94857788 C9.72317155 2.79023943 19.34687587 2.64249888 28.97079277 2.50522423 C33.91894459 2.43430111 38.86698013 2.35960068 43.81494141 2.27636719 C48.58696737 2.19623057 53.35904507 2.12588617 58.13132095 2.06242752 C59.95509312 2.03643615 61.77881788 2.00687267 63.60247421 1.97373581 C66.15015291 1.92804392 68.69770203 1.89487669 71.24560547 1.86474609 C72.00517548 1.8482048 72.76474548 1.83166351 73.54733276 1.81462097 C75.36587781 1.79974932 77.18470208 1.89036089 79 2 C79.99 2.99 79.99 2.99 81 4 C50.64 4 20.28 4 -11 4 C-9.71264403 1.42528807 -8.71510189 1.29583343 -6.0625 0.3125 C-5.35222656 0.04050781 -4.64195312 -0.23148438 -3.91015625 -0.51171875 C-2 -1 -2 -1 0 0 Z " fill="#ECECF9" transform="translate(619,1160)"/>
<path d="M0 0 C1.77206192 0.00015919 3.54412846 0.00585754 5.31616211 0.01586914 C6.24698105 0.01728409 7.17779999 0.01869904 8.13682556 0.02015686 C11.12241777 0.02577367 14.10793615 0.03832899 17.09350586 0.05102539 C19.11238499 0.05603823 21.13126529 0.06060151 23.15014648 0.06469727 C28.11046158 0.07574856 33.07072118 0.09302444 38.03100586 0.11352539 C38.03100586 0.44352539 38.03100586 0.77352539 38.03100586 1.11352539 C24.50100586 1.44352539 10.97100586 1.77352539 -2.96899414 2.11352539 C-2.96899414 10.69352539 -2.96899414 19.27352539 -2.96899414 28.11352539 C-3.62899414 28.11352539 -4.28899414 28.11352539 -4.96899414 28.11352539 C-4.99785753 23.63437211 -5.01574601 19.15524248 -5.03149414 14.67602539 C-5.03987305 13.39663086 -5.04825195 12.11723633 -5.05688477 10.79907227 C-5.06010742 9.58413086 -5.06333008 8.36918945 -5.06665039 7.11743164 C-5.07188721 5.99151611 -5.07712402 4.86560059 -5.08251953 3.70556641 C-4.89859126 -0.49393132 -4.4355607 0.12687062 0 0 Z " fill="#47475E" transform="translate(498.968994140625,901.886474609375)"/>
<path d="M0 0 C9 0 9 0 12 2 C9.94921875 2.22786458 7.8984375 2.45572917 5.84765625 2.68359375 C3.98859771 2.81886614 3.98859771 2.81886614 3 4 C2.74853876 7.45114703 2.81477581 10.91577203 2.8125 14.375 C2.80025391 15.34695313 2.78800781 16.31890625 2.77539062 17.3203125 C2.77345703 18.25359375 2.77152344 19.186875 2.76953125 20.1484375 C2.76542236 21.00614746 2.76131348 21.86385742 2.75708008 22.74755859 C2.85498878 25.28329201 2.85498878 25.28329201 5 28 C3.35 28 1.7 28 0 28 C0 18.76 0 9.52 0 0 Z " fill="#222239" transform="translate(903,902)"/>
<path d="M0 0 C0.75 1.6875 0.75 1.6875 1 4 C-0.78517826 6.64698845 -2.12021246 8.56010623 -5 10 C-7.61518725 10.09868631 -10.19784734 10.13896965 -12.8125 10.125 C-13.52470703 10.12886719 -14.23691406 10.13273438 -14.97070312 10.13671875 C-18.77280929 10.12968433 -22.30487007 9.914708 -26 9 C-26 7.68 -26 6.36 -26 5 C-24 6 -22 7 -20 8 C-17.87681936 8.0972886 -15.75040309 8.12977619 -13.625 8.125 C-12.48289062 8.12757813 -11.34078125 8.13015625 -10.1640625 8.1328125 C-7.55394747 8.02325212 -5.44060122 7.89584421 -3 7 C-1.55852701 4.72399002 -0.85554578 2.56663734 0 0 Z " fill="#C5F6FE" transform="translate(667,668)"/>
<path d="M0 0 C0.33 1.32 0.66 2.64 1 4 C0.34 4 -0.32 4 -1 4 C-1.33 5.32 -1.66 6.64 -2 8 C-3.72722728 8.22384382 -5.45696007 8.42839969 -7.1875 8.625 C-8.15042969 8.74101562 -9.11335937 8.85703125 -10.10546875 8.9765625 C-13.27823871 9.00225295 -15.20656633 8.47652922 -18 7 C-18.8125 4.875 -18.8125 4.875 -19 3 C-18.154375 3.495 -17.30875 3.99 -16.4375 4.5 C-12.51760133 6.21050124 -10.2289006 6.61511282 -6 6 C-3.1028059 3.68726558 -3.1028059 3.68726558 -1 1 C-0.67 0.67 -0.34 0.34 0 0 Z " fill="#DBFBFE" transform="translate(812,488)"/>
<path d="M0 0 C1.98 0 3.96 0 6 0 C6 0.66 6 1.32 6 2 C5.01 2.495 5.01 2.495 4 3 C4 3.99 4 4.98 4 6 C4.99 6 5.98 6 7 6 C7.66 7.32 8.32 8.64 9 10 C6.03 9.01 3.06 8.02 0 7 C0 4.69 0 2.38 0 0 Z " fill="#21213F" transform="translate(0,910)"/>
<path d="M0 0 C3.02093215 3.02093215 2.46676834 6.56372072 2.625 10.625 C2.66367187 11.42679688 2.70234375 12.22859375 2.7421875 13.0546875 C2.83653931 15.03607556 2.91936215 17.01800645 3 19 C2.01 19.33 1.02 19.66 0 20 C0 13.4 0 6.8 0 0 Z " fill="#0F102A" transform="translate(413,910)"/>
<path d="M0 0 C0.99 0.33 1.98 0.66 3 1 C2.38125 1.495 1.7625 1.99 1.125 2.5 C-3.34680939 7.76095222 -3.41433331 15.34189451 -4 22 C-4.33 22 -4.66 22 -5 22 C-5.05451714 19.95863605 -5.09302485 17.91684144 -5.125 15.875 C-5.14820313 14.73804688 -5.17140625 13.60109375 -5.1953125 12.4296875 C-4.99672109 8.94242233 -4.2524801 6.2446138 -3 3 C-2.34 3 -1.68 3 -1 3 C-0.67 2.01 -0.34 1.02 0 0 Z " fill="#E9FFFF" transform="translate(794,379)"/>
<path d="M0 0 C2.125 0.375 2.125 0.375 4 1 C3.02885254 1.5710144 3.02885254 1.5710144 2.03808594 2.15356445 C-0.22516361 3.84297457 -0.22516361 3.84297457 -0.54589844 6.54370117 C-0.5668457 7.53345947 -0.58779297 8.52321777 -0.609375 9.54296875 C-0.64160156 10.61611328 -0.67382812 11.68925781 -0.70703125 12.79492188 C-0.72121094 13.91447266 -0.73539062 15.03402344 -0.75 16.1875 C-0.77964844 17.31865234 -0.80929687 18.44980469 -0.83984375 19.61523438 C-0.91060309 22.41022833 -0.96326976 25.20438528 -1 28 C-1.33 28 -1.66 28 -2 28 C-2.05783842 23.70838953 -2.0935412 19.41687855 -2.125 15.125 C-2.14175781 13.90167969 -2.15851563 12.67835938 -2.17578125 11.41796875 C-2.18222656 10.25136719 -2.18867188 9.08476562 -2.1953125 7.8828125 C-2.20578613 6.80402832 -2.21625977 5.72524414 -2.22705078 4.61376953 C-2 2 -2 2 0 0 Z " fill="#AAA9BA" transform="translate(376,130)"/>
<path d="M0 0 C0.33 1.32 0.66 2.64 1 4 C-1.98025136 6.88994071 -3.48916683 7.94805086 -7.6875 8.375 C-11 8 -11 8 -13 6 C-9.7 5.67 -6.4 5.34 -3 5 C-3.33 4.01 -3.66 3.02 -4 2 C-3.34 1.67 -2.68 1.34 -2 1 C-2 1.66 -2 2.32 -2 3 C-1.34 3 -0.68 3 0 3 C0 2.01 0 1.02 0 0 Z " fill="#37B0EE" transform="translate(810,487)"/>
<path d="M0 0 C0.33 0 0.66 0 1 0 C1.31563182 5.26053037 0.66590937 8.44573816 -2 13 C-2.33 13 -2.66 13 -3 13 C-3.27131956 7.66404866 -3.4266889 4.38616179 0 0 Z " fill="#2CAEEE" transform="translate(643,579)"/>
<path d="M0 0 C0.33 0 0.66 0 1 0 C1.13277344 0.67546875 1.26554688 1.3509375 1.40234375 2.046875 C1.57894531 2.93890625 1.75554688 3.8309375 1.9375 4.75 C2.11152344 5.63171875 2.28554688 6.5134375 2.46484375 7.421875 C2.92368488 9.63235053 3.43336074 11.81512068 4 14 C4.66 14 5.32 14 6 14 C6.33 14.99 6.66 15.98 7 17 C4.45436943 16.03441599 3.05364796 15.06131195 1.25 13 C-0.55131741 8.67683821 -0.24227996 4.62126599 0 0 Z " fill="#27A6E6" transform="translate(640,659)"/>
<path d="M0 0 C0.33 0 0.66 0 1 0 C1.33 1.98 1.66 3.96 2 6 C-3.41538462 9.07692308 -3.41538462 9.07692308 -6.375 8.6875 C-6.91125 8.460625 -7.4475 8.23375 -8 8 C-7.05125 7.4225 -6.1025 6.845 -5.125 6.25 C-2.23865902 4.17183449 -1.15904259 3.24531925 0 0 Z " fill="#CCF5FE" transform="translate(516,486)"/>
<path d="M0 0 C0.33 0.66 0.66 1.32 1 2 C-0.051875 1.896875 -1.10375 1.79375 -2.1875 1.6875 C-6.94373459 2.07735529 -7.96754493 3.46213576 -11 7 C-11.99 7.66 -12.98 8.32 -14 9 C-13.7550929 5.69375418 -12.72277662 4.70957551 -10.375 2.25 C-7.01309754 -0.41830608 -4.25599681 -0.42559968 0 0 Z " fill="#0FA5F2" transform="translate(807,379)"/>
<path d="M0 0 C3.66881155 0.70554068 6.70450534 2.27735506 10 4 C10 4.33 10 4.66 10 5 C3.51707705 5.3669579 3.51707705 5.3669579 1.0625 3.625 C0 2 0 2 0 0 Z " fill="#161733" transform="translate(606,1081)"/>
<path d="M0 0 C-0.33 1.65 -0.66 3.3 -1 5 C0.32 5.33 1.64 5.66 3 6 C1 7 1 7 -1.1640625 6.44140625 C-1.97617187 6.15136719 -2.78828125 5.86132812 -3.625 5.5625 C-4.44226563 5.27503906 -5.25953125 4.98757813 -6.1015625 4.69140625 C-6.72804688 4.46324219 -7.35453125 4.23507812 -8 4 C-6.68 3.67 -5.36 3.34 -4 3 C-4 2.34 -4 1.68 -4 1 C-2 0 -2 0 0 0 Z " fill="#2F2F4E" transform="translate(464,1043)"/>
<path d="M0 0 C-0.99 0.33 -1.98 0.66 -3 1 C-3.33 1.99 -3.66 2.98 -4 4 C-6.31 4 -8.62 4 -11 4 C-9.71264403 1.42528807 -8.71510189 1.29583343 -6.0625 0.3125 C-5.35222656 0.04050781 -4.64195312 -0.23148438 -3.91015625 -0.51171875 C-2 -1 -2 -1 0 0 Z " fill="#D4D2E2" transform="translate(619,1160)"/>
<path d="M0 0 C1.32 0 2.64 0 4 0 C4.66 1.65 5.32 3.3 6 5 C2.37 4.01 -1.26 3.02 -5 2 C-3.68 1.67 -2.36 1.34 -1 1 C-0.67 0.67 -0.34 0.34 0 0 Z " fill="#383852" transform="translate(429,1034)"/>
<path d="M0 0 C0.99 0.33 1.98 0.66 3 1 C2.8125 2.8125 2.8125 2.8125 2 5 C-0.375 6.8125 -0.375 6.8125 -3 8 C-3.99 7.67 -4.98 7.34 -6 7 C-1.25 3 -1.25 3 1 3 C0.67 2.01 0.34 1.02 0 0 Z " fill="#2D2E49" transform="translate(625,1122)"/>
<path d="M0 0 C3.23150461 0.96071759 4.75851173 1.69411485 6.875 4.375 C8 7 8 7 7.6875 9.3125 C7.460625 9.869375 7.23375 10.42625 7 11 C6.67 9.02 6.34 7.04 6 5 C5.01 4.67 4.02 4.34 3 4 C3 3.34 3 2.68 3 2 C1.68 1.67 0.36 1.34 -1 1 C-0.67 0.67 -0.34 0.34 0 0 Z " fill="#31AAEA" transform="translate(508,379)"/>
<path d="M0 0 C-6.625 4 -6.625 4 -10 4 C-10.99 3.34 -11.98 2.68 -13 2 C-11.5882217 1.46605821 -10.17029756 0.94834896 -8.75 0.4375 C-7.96109375 0.14746094 -7.1721875 -0.14257812 -6.359375 -0.44140625 C-3.80896548 -1.04522837 -2.44677771 -0.8473932 0 0 Z " fill="#2A2A44" transform="translate(933,992)"/>
<path d="M0 0 C0.928125 0.20625 1.85625 0.4125 2.8125 0.625 C3.1425 1.615 3.4725 2.605 3.8125 3.625 C0.5125 2.965 -2.7875 2.305 -6.1875 1.625 C-3.1875 -0.375 -3.1875 -0.375 0 0 Z " fill="#282842" transform="translate(238.1875,980.375)"/>
<path d="M0 0 C0 0.66 0 1.32 0 2 C-3.25 3.625 -3.25 3.625 -7 5 C-9.4375 4.1875 -9.4375 4.1875 -11 3 C-9.73160474 2.49384702 -8.46016898 1.99530901 -7.1875 1.5 C-6.12595703 1.08234375 -6.12595703 1.08234375 -5.04296875 0.65625 C-3 0 -3 0 0 0 Z " fill="#30304A" transform="translate(815,1030)"/>
<path d="M0 0 C3.63 0 7.26 0 11 0 C11.33 0.99 11.66 1.98 12 3 C10.56163249 2.88541307 9.12429034 2.75790884 7.6875 2.625 C6.88699219 2.55539062 6.08648437 2.48578125 5.26171875 2.4140625 C3 2 3 2 0 0 Z " fill="#414159" transform="translate(116,954)"/>
<path d="M0 0 C1.0625 1.8125 1.0625 1.8125 2 4 C1.67 4.99 1.34 5.98 1 7 C-0.65 6.67 -2.3 6.34 -4 6 C-2.68 4.02 -1.36 2.04 0 0 Z " fill="#191B38" transform="translate(586,1159)"/>
<path d="M0 0 C-0.78375 0.598125 -1.5675 1.19625 -2.375 1.8125 C-5.14574323 3.91085249 -5.14574323 3.91085249 -7 7 C-6.67 4.69 -6.34 2.38 -6 0 C-3 -1 -3 -1 0 0 Z " fill="#D1F7FE" transform="translate(502,379)"/>
<path d="M0 0 C0 0.33 0 0.66 0 1 C-5.94 1.495 -5.94 1.495 -12 2 C-8.17961144 -1.82038856 -4.9914244 -0.84760037 0 0 Z " fill="#2D2E46" transform="translate(989,1004)"/>
<path d="M0 0 C0.99 0.33 1.98 0.66 3 1 C2.360625 1.556875 1.72125 2.11375 1.0625 2.6875 C-1.19680987 5.22066561 -1.63149047 6.68341424 -2 10 C-2.33 10 -2.66 10 -3 10 C-3 7.69 -3 5.38 -3 3 C-2.34 3 -1.68 3 -1 3 C-0.67 2.01 -0.34 1.02 0 0 Z " fill="#C3F4FE" transform="translate(794,379)"/>
<path d="M0 0 C1.98 0 3.96 0 6 0 C6 0.99 6 1.98 6 3 C4.02 3 2.04 3 0 3 C0 2.01 0 1.02 0 0 Z " fill="#181935" transform="translate(300,971)"/>
<path d="M0 0 C2.95409701 1.37154504 5.44008376 2.98863724 8 5 C5.36 4.67 2.72 4.34 0 4 C0 2.68 0 1.36 0 0 Z " fill="#DEFAFE" transform="translate(641,673)"/>
<path d="M0 0 C2.475 0.495 2.475 0.495 5 1 C5.33 2.98 5.66 4.96 6 7 C1.125 2.25 1.125 2.25 0 0 Z " fill="#CAF3FE" transform="translate(661,576)"/>
</svg>
