<svg width="1263" height="915" viewBox="0 0 1263 915" fill="none" xmlns="http://www.w3.org/2000/svg">
<rect width="1263" height="915" fill="none"/>
<g clip-path="url(#clip0_0_1)">
<path d="M0.909576 647.933C35.9635 650.545 70.2629 657.19 104.253 666.913C111.543 668.995 118.865 670.832 126.225 672.574C128.627 673.146 131.028 673.72 133.429 674.296C135.009 674.675 136.591 675.051 138.172 675.425C138.891 675.597 139.611 675.77 140.352 675.947C141.306 676.174 141.306 676.174 142.28 676.405C144.218 676.934 146.073 677.622 147.958 678.346C149.233 678.694 150.512 679.024 151.794 679.338C154.746 680.088 157.642 680.938 160.542 681.905C165.877 683.657 171.291 684.955 176.722 686.277C184.74 688.238 184.74 688.238 187.468 689.474C190.19 690.698 192.995 691.434 195.842 692.215C206.866 695.257 217.792 698.735 228.688 702.297C232.086 703.403 235.482 704.458 238.921 705.394C241.51 706.108 243.94 706.977 246.412 708.079C249.309 709.274 252.351 710.001 255.346 710.833C258.48 711.728 261.309 712.894 264.278 714.348C266.005 714.943 267.731 715.509 269.47 716.057C277.103 718.544 284.564 721.58 292.041 724.585C297.566 726.799 303.102 728.893 308.718 730.803C312.105 732.024 315.328 733.604 318.589 735.185C324.271 737.819 329.971 740.275 335.838 742.364C335.837 742.834 335.835 743.304 335.833 743.788C336.491 743.908 336.491 743.908 337.161 744.029C339.351 744.595 341.287 745.473 343.359 746.446C343.773 746.64 344.187 746.834 344.613 747.034C345.489 747.446 346.365 747.859 347.24 748.275C348.546 748.893 349.854 749.505 351.163 750.116C356.19 752.48 361.086 755.028 365.931 757.827C367.378 758.632 368.757 759.313 370.287 759.883C374.086 761.379 377.565 763.756 381.089 765.905C382.967 767.041 384.857 768.149 386.748 769.258C391.804 772.223 396.838 775.233 401.854 778.283C402.448 778.643 403.042 779.003 403.655 779.375C406.225 780.948 408.76 782.537 411.212 784.331C411.587 784.604 411.961 784.877 412.347 785.159C413.299 785.869 414.238 786.599 415.176 787.332C417.644 788.57 418.799 788.33 421.415 787.517C423.732 786.252 425.913 784.774 428.108 783.268C429.371 782.424 430.634 781.58 431.898 780.736C432.516 780.322 433.133 779.907 433.77 779.479C444.008 772.65 454.712 766.951 465.496 761.285C469.312 759.278 473.108 757.24 476.87 755.112C478.426 754.274 480.003 753.516 481.597 752.772C483.252 751.99 484.896 751.18 486.541 750.369C493.206 747.093 499.85 743.88 506.709 741.141C509.675 739.952 512.594 738.639 515.519 737.333C521.707 734.583 527.945 732.013 534.22 729.521C534.838 729.274 534.838 729.274 535.469 729.021C553.394 721.855 571.583 715.395 589.953 709.805C592.718 708.954 595.373 707.977 598.056 706.836C601.62 705.447 605.288 704.411 608.928 703.301C609.837 703.021 610.747 702.742 611.657 702.462C623.864 698.722 636.116 695.166 648.382 691.674C651.851 690.685 655.315 689.675 658.775 688.648C673.751 684.208 673.751 684.208 680.949 682.532C683.775 681.871 686.556 681.105 689.342 680.259C694.018 678.852 698.735 677.729 703.48 676.651C706.895 675.863 710.263 674.963 713.631 673.955C718.553 672.491 723.508 671.26 728.489 670.072C731.02 669.468 733.551 668.856 736.081 668.244C736.575 668.125 737.068 668.006 737.577 667.883C741.973 666.817 746.354 665.691 750.725 664.503C759.01 662.277 767.419 660.707 775.817 659.116C777.46 658.804 779.103 658.491 780.746 658.177C786.029 657.17 791.315 656.177 796.605 655.206C797.282 655.08 797.282 655.08 797.974 654.952C805.244 653.626 812.455 652.64 819.835 652.897C819.823 656.421 819.811 659.946 819.799 663.577C817.818 664.242 815.837 664.907 813.856 665.573C810.037 666.891 806.25 668.29 802.483 669.781C790.027 674.7 777.393 678.544 764.515 681.821C761.963 682.474 759.435 683.2 756.908 683.964C748.06 686.592 739.089 688.687 730.149 690.888C727.669 691.499 725.19 692.112 722.71 692.725C720.896 693.173 719.082 693.616 717.267 694.06C711.358 695.515 705.509 697.091 699.684 698.92C694.882 700.413 690.028 701.56 685.146 702.674C679.452 703.976 673.838 705.406 668.251 707.213C664.789 708.321 661.299 709.295 657.808 710.278C656.305 710.704 654.801 711.13 653.298 711.556C652.55 711.767 651.803 711.979 651.033 712.196C647.566 713.178 644.101 714.167 640.637 715.158C640.039 715.329 639.441 715.499 638.826 715.675C635.734 716.559 632.659 717.487 629.589 718.458C628.215 718.856 626.841 719.252 625.466 719.645C619.156 721.475 612.902 723.525 606.641 725.55C604.632 726.197 602.621 726.834 600.609 727.469C594.3 729.465 588.015 731.489 581.812 733.866C579.092 734.899 576.354 735.796 573.583 736.649C568.206 738.322 562.909 740.241 557.609 742.196C556.855 742.473 556.855 742.473 556.085 742.756C544.501 747.023 533.092 751.721 521.764 756.767C518.581 758.184 515.382 759.52 512.148 760.784C508.972 762.076 505.867 763.565 502.748 765.013C502.035 765.344 501.322 765.675 500.588 766.015C489.214 771.26 489.214 771.26 478.111 777.166C476.288 778.191 474.459 779.171 472.607 780.129C460.334 786.481 448.404 793.484 436.724 801.099C438.982 803.738 441.37 805.993 443.977 808.199C450.669 813.985 457.013 820.397 462.472 827.627C463.516 829.017 463.516 829.017 464.826 830.428C466.048 831.817 466.048 831.817 467.321 833.957C467.227 836.606 467.146 838.307 465.579 840.36C463.59 841.308 462.375 840.765 460.261 840.341C459.005 840.277 457.747 840.247 456.489 840.244C455.75 840.241 455.011 840.238 454.249 840.234C453.448 840.234 452.646 840.234 451.82 840.234C450.96 840.231 450.1 840.228 449.24 840.224C447.394 840.217 445.547 840.212 443.701 840.207C440.781 840.2 437.862 840.183 434.942 840.165C434.449 840.161 433.955 840.158 433.447 840.155C432.438 840.149 431.43 840.142 430.422 840.136C423.628 840.092 416.834 840.054 410.041 840.043C405.452 840.035 400.864 840.013 396.276 839.973C393.849 839.952 391.423 839.939 388.996 839.945C386.715 839.95 384.436 839.935 382.155 839.905C380.92 839.894 379.684 839.905 378.448 839.915C373.185 839.82 373.185 839.82 371.531 838.397C370.422 836.651 370.015 835.438 370.298 833.314C371.783 830.761 373.555 828.652 375.455 826.475C375.86 826.007 376.265 825.538 376.682 825.055C377.51 824.098 378.341 823.143 379.174 822.191C380.218 820.995 381.25 819.788 382.278 818.575C394.042 804.913 394.042 804.913 400.891 802.399C396.344 796.808 389.213 793.638 383.196 790.323C380.969 789.094 378.762 787.84 376.583 786.509C367.069 780.707 357.204 775.767 347.31 770.832C346.03 770.194 344.751 769.554 343.473 768.914C328.573 761.473 313.453 754.751 298.068 748.642C297.093 748.251 296.117 747.86 295.141 747.47C284.878 743.388 274.544 739.538 264.204 735.709C263.533 735.46 262.861 735.212 262.17 734.955C253.682 731.827 245.121 729.026 236.525 726.29C232.93 725.143 229.353 723.944 225.781 722.715C214.43 718.834 202.914 715.564 191.433 712.2C186.221 710.672 181.008 709.144 175.829 707.482C170.488 705.772 165.15 704.232 159.72 702.91C156.856 702.209 154.027 701.435 151.201 700.563C137.855 696.487 124.339 693.133 110.851 689.699C69.8311 679.25 69.8311 679.25 57.3213 674.972C55.7511 674.437 54.1775 673.916 52.6029 673.397C46.0896 671.239 39.6293 668.939 33.206 666.471C32.0267 666.019 30.8465 665.57 29.6656 665.124C19.9183 661.437 10.3535 657.435 0.892368 652.917C0.898047 651.272 0.903726 649.628 0.909576 647.933Z" fill="#0B0C30"/>
<path d="M231.035 73.8019C231.611 73.8041 232.187 73.8063 232.781 73.8085C233.397 73.8254 234.014 73.8422 234.649 73.8595C235.284 73.8658 235.92 73.872 236.574 73.8784C238.602 73.9013 240.629 73.9441 242.656 73.9873C244.031 74.0063 245.407 74.0241 246.782 74.0405C250.152 74.0811 253.521 74.1485 256.891 74.2145C256.869 80.5585 256.847 86.9026 256.824 93.4389C250.145 93.7273 250.145 93.7273 248.037 93.813C247.221 93.8509 247.221 93.8509 246.389 93.8896C245.829 93.9137 245.269 93.9379 244.693 93.9628C243.391 93.9491 243.391 93.9491 242.744 94.8143C242.676 96.0603 242.652 97.3094 242.646 98.5576C242.642 99.3354 242.638 100.113 242.634 100.914C242.634 101.75 242.634 102.586 242.634 103.447C242.632 104.727 242.632 104.727 242.629 106.033C242.634 111.043 242.796 115.966 243.151 120.957C243.572 128.582 243.273 136.322 243.214 143.945C237.303 143.925 231.391 143.905 225.3 143.884C225.272 135.206 225.255 126.529 225.257 117.851C225.258 113.822 225.254 109.793 225.239 105.764C225.224 101.876 225.222 97.9894 225.229 94.102C225.229 92.6179 225.225 91.1337 225.217 89.6495C225.205 87.5729 225.21 85.4971 225.218 83.4205C225.211 82.8049 225.204 82.1892 225.197 81.555C225.223 78.8608 225.249 77.4081 226.652 75.1501C228.29 73.9794 229.105 73.7711 231.035 73.8019Z" fill="#0B0C30"/>
<path d="M598.542 74.682C604.454 74.7024 610.365 74.7229 616.456 74.7439C616.372 99.1802 616.287 123.617 616.2 148.793C610.5 148.774 604.799 148.754 598.926 148.734C598.289 148.02 598.289 148.02 598.214 146.786C598.217 146.246 598.219 145.706 598.222 145.149C598.223 144.531 598.224 143.913 598.225 143.277C598.23 142.593 598.235 141.91 598.24 141.206C598.242 140.491 598.244 139.775 598.247 139.038C598.255 136.661 598.269 134.284 598.282 131.907C598.289 130.264 598.295 128.621 598.302 126.978C598.319 122.643 598.34 118.309 598.362 113.974C598.384 109.555 598.402 105.136 598.421 100.716C598.458 92.0382 598.499 83.3601 598.542 74.682Z" fill="#0C0D31"/>
<path d="M423.356 410.864C425.312 411.926 426.652 413.104 427.82 415.152C428.826 419.018 429.264 422.551 429.246 426.584C429.249 427.396 429.249 427.396 429.253 428.225C429.259 429.996 429.255 431.767 429.251 433.538C429.25 434.779 429.25 436.02 429.251 437.261C429.249 439.855 429.243 442.448 429.233 445.041C429.221 448.356 429.228 451.671 429.238 454.986C429.244 457.546 429.237 460.106 429.228 462.666C429.225 463.888 429.226 465.11 429.232 466.332C429.239 468.043 429.229 469.753 429.216 471.463C429.221 471.962 429.226 472.462 429.232 472.976C429.175 476.823 428.205 478.971 426.309 482.076C423.336 484.579 418.939 483.96 415.427 483.463C413.6 482.493 412.929 481.668 411.601 479.89C410.818 477.241 410.874 474.777 410.875 472.021C410.873 471.437 410.871 470.853 410.869 470.252C410.863 468.319 410.862 466.386 410.862 464.453C410.862 463.793 410.861 463.133 410.861 462.452C410.86 458.957 410.863 455.462 410.869 451.967C410.874 448.359 410.865 444.751 410.852 441.142C410.845 438.366 410.849 435.59 410.856 432.814C410.858 431.484 410.855 430.154 410.847 428.824C410.838 426.961 410.845 425.099 410.856 423.236C410.85 422.689 410.844 422.141 410.837 421.578C410.882 417.881 411.666 415.819 413.752 412.967C416.554 409.996 419.692 410.154 423.356 410.864Z" fill="#04A8FD"/>
<path d="M327.232 270.264C329.693 271.75 331.46 272.947 332.33 275.977C332.997 279.612 333.048 283.121 333.046 286.813C333.048 287.46 333.05 288.106 333.052 288.772C333.057 290.902 333.057 293.031 333.056 295.16C333.056 295.889 333.056 296.618 333.056 297.37C333.056 301.225 333.052 305.08 333.045 308.935C333.038 312.915 333.047 316.894 333.058 320.873C333.064 323.937 333.059 327.001 333.051 330.065C333.049 331.532 333.051 332.999 333.058 334.466C333.067 336.518 333.059 338.569 333.047 340.621C333.054 341.225 333.06 341.829 333.066 342.451C333.023 346.266 332.432 348.421 330.15 351.444C328.402 352.969 327.251 353.512 325.063 353.919C322.376 353.421 321.176 352.109 319.279 349.983C317.508 347.211 317.84 344.022 317.865 340.764C317.865 340.121 317.865 339.478 317.865 338.816C317.867 336.689 317.878 334.563 317.89 332.436C317.894 330.955 317.898 329.474 317.901 327.992C317.91 324.885 317.924 321.778 317.94 318.671C317.961 314.7 317.971 310.73 317.977 306.759C317.983 303.698 317.995 300.637 318.009 297.576C318.015 296.112 318.019 294.649 318.021 293.186C318.025 291.133 318.037 289.08 318.051 287.026C318.05 286.428 318.05 285.83 318.049 285.213C318.141 275.869 318.141 275.869 320.342 272.614C322.554 270.346 324.305 269.642 327.232 270.264Z" fill="#07A8FC"/>
<path d="M515.292 270.423C518.087 271.132 519.782 272.906 521.713 275.207C522.435 276.829 522.431 277.734 522.437 279.533C522.44 280.14 522.444 280.747 522.447 281.372C522.447 282.04 522.448 282.707 522.448 283.395C522.451 284.096 522.454 284.798 522.457 285.521C522.465 287.851 522.467 290.18 522.468 292.51C522.469 293.304 522.47 294.099 522.47 294.918C522.473 299.124 522.471 303.33 522.466 307.536C522.461 311.883 522.475 316.229 522.492 320.575C522.502 323.915 522.498 327.255 522.49 330.595C522.489 332.198 522.493 333.8 522.503 335.402C522.516 337.645 522.508 339.888 522.495 342.131C522.504 342.793 522.512 343.454 522.52 344.136C522.483 347.248 522.348 349.324 520.546 351.791C518.608 353.807 518.142 354.172 515.522 354.443C512.701 354.171 511.463 353.329 509.294 351.351C507.999 349.171 507.864 348.749 507.87 346.306C507.868 345.716 507.866 345.126 507.865 344.518C507.87 343.873 507.875 343.229 507.879 342.564C507.88 341.883 507.88 341.202 507.88 340.501C507.882 338.244 507.893 335.988 507.906 333.732C507.91 332.165 507.914 330.598 507.918 329.03C507.928 325.743 507.942 322.455 507.959 319.167C507.981 314.955 507.991 310.744 507.998 306.533C508.005 303.295 508.017 300.057 508.032 296.819C508.038 295.266 508.042 293.714 508.045 292.161C508.049 289.988 508.061 287.815 508.076 285.642C508.076 285.002 508.075 284.361 508.075 283.701C508.118 279.169 508.382 275.814 511.326 272.412C513.411 270.906 513.411 270.906 515.292 270.423Z" fill="#01A7FE"/>
<path d="M224.685 321.887C230.597 321.908 236.509 321.928 242.6 321.949C242.535 340.746 242.47 359.543 242.403 378.91C236.491 378.89 230.58 378.869 224.489 378.848C224.554 360.051 224.619 341.254 224.685 321.887Z" fill="#0E0E31"/>
<path d="M243.138 166.018C243.074 184.58 243.01 203.142 242.944 222.267C235.264 222.953 235.264 222.953 225.027 222.917C225.091 204.355 225.155 185.793 225.221 166.668C239.939 166.007 239.939 166.007 243.138 166.018Z" fill="#0D0D30"/>
<path d="M597.962 242.717C603.873 242.738 609.785 242.758 615.876 242.779C615.813 260.872 615.751 278.964 615.687 297.604C609.775 297.584 603.863 297.564 597.772 297.543C597.835 279.45 597.897 261.358 597.962 242.717Z" fill="#0D0E31"/>
<path d="M242.865 245.052C242.803 262.909 242.742 280.766 242.678 299.165C236.767 299.144 230.855 299.124 224.764 299.103C224.825 281.48 224.886 263.858 224.948 245.702C230.915 245.332 236.89 245.031 242.865 245.052Z" fill="#0C0C2F"/>
<path d="M224.413 400.921C237.208 400.965 237.208 400.965 242.324 401.695C242.267 418.377 242.209 435.06 242.15 452.248C236.238 452.227 230.326 452.207 224.236 452.186C224.294 435.268 224.352 418.351 224.413 400.921Z" fill="#0D0D30"/>
<path d="M598.208 171.516C604.119 171.536 610.031 171.557 616.122 171.578C616.067 187.555 616.011 203.533 615.955 219.995C610.043 219.974 604.131 219.954 598.04 219.933C598.096 203.955 598.151 187.978 598.208 171.516Z" fill="#0D0D30"/>
<path d="M223.678 613.813C229.589 613.834 235.501 613.854 241.592 613.875C241.602 630.034 241.528 646.148 240.785 662.29C238.032 663.3 235.384 663.2 232.504 663.24C231.634 663.277 231.634 663.277 230.746 663.315C229.905 663.324 229.905 663.324 229.047 663.334C228.537 663.346 228.026 663.359 227.5 663.371C225.34 662.738 224.723 661.43 223.52 659.382C223.22 657.223 223.22 657.223 223.245 654.794C223.249 653.882 223.252 652.97 223.256 652.03C223.272 651.042 223.289 650.054 223.306 649.065C223.314 648.049 223.321 647.032 223.327 646.016C223.346 643.348 223.381 640.68 223.418 638.013C223.46 634.808 223.483 631.603 223.509 628.398C223.55 623.536 223.616 618.675 223.678 613.813Z" fill="#0C0D31"/>
<path d="M224.157 474.97C230.069 474.991 235.98 475.011 242.071 475.032C242.018 490.54 241.964 506.047 241.909 522.025C226.554 521.972 226.554 521.972 223.997 521.251C224.05 505.979 224.103 490.706 224.157 474.97Z" fill="#0C0D31"/>
<path d="M223.918 544.036C234.795 544.073 234.795 544.073 241.83 544.81C241.777 560.082 241.725 575.355 241.67 591.091C235.759 591.07 229.847 591.05 223.756 591.029C223.81 575.521 223.863 560.013 223.918 544.036Z" fill="#0C0D31"/>
<path d="M598.334 320.329C604.034 320.349 609.735 320.369 615.608 320.389C615.556 335.427 615.504 350.464 615.451 365.958C609.539 365.937 603.627 365.917 597.536 365.896C597.549 354.73 597.549 354.73 597.56 349.985C597.567 346.743 597.574 343.5 597.577 340.257C597.579 337.644 597.584 335.031 597.591 332.418C597.594 331.419 597.595 330.42 597.595 329.421C597.595 328.027 597.599 326.632 597.604 325.237C597.605 324.442 597.607 323.647 597.608 322.827C597.691 321.039 597.691 321.039 598.334 320.329Z" fill="#0E0D30"/>
<path d="M597.229 454.898C603.141 454.918 609.052 454.939 615.143 454.96C615.094 469.292 615.044 483.625 614.993 498.392C609.13 499.676 603.052 499.063 597.077 499.043C597.127 484.475 597.177 469.907 597.229 454.898Z" fill="#0C0E31"/>
<path d="M382.932 73.9376C395.389 73.9806 407.846 74.0236 420.68 74.0679C420.657 80.647 420.634 87.226 420.611 94.0043C408.154 93.9613 395.698 93.9183 382.863 93.874C382.886 87.295 382.909 80.716 382.932 73.9376Z" fill="#0C0D31"/>
<path d="M325.991 73.741C338.025 73.7826 350.06 73.8241 362.459 73.8669C362.436 80.4459 362.413 87.025 362.39 93.8033C350.356 93.7618 338.321 93.7202 325.922 93.6774C325.945 87.0984 325.967 80.5194 325.991 73.741Z" fill="#0B0C30"/>
<path d="M421.272 643.688C425.928 643.689 430.585 643.691 435.241 643.7C437.409 643.703 439.577 643.706 441.745 643.705C444.23 643.705 446.716 643.71 449.201 643.715C449.981 643.714 450.762 643.713 451.566 643.712C452.642 643.716 452.642 643.716 453.739 643.72C454.374 643.72 455.009 643.721 455.664 643.721C457.101 643.812 457.101 643.812 457.738 644.526C457.716 650.87 457.694 657.214 457.672 663.751C445.637 663.709 433.603 663.667 421.203 663.625C421.226 657.046 421.249 650.467 421.272 643.688Z" fill="#0D0E31"/>
<path d="M598.095 389.395C603.796 389.414 609.496 389.434 615.369 389.454C615.322 403.317 615.274 417.18 615.224 431.463C609.524 431.443 603.823 431.424 597.95 431.403C597.998 417.541 598.046 403.678 598.095 389.395Z" fill="#08082C"/>
<path d="M364.971 643.494C376.794 643.535 388.617 643.576 400.799 643.618C400.776 650.197 400.754 656.776 400.73 663.554C388.907 663.513 377.083 663.472 364.902 663.43C364.925 656.851 364.947 650.272 364.971 643.494Z" fill="#0E0E32"/>
<path d="M494.256 74.322C505.868 74.3621 517.48 74.4022 529.444 74.4435C529.422 81.0225 529.399 87.6015 529.376 94.3799C524.376 94.3789 519.376 94.3758 514.376 94.3672C512.674 94.3649 510.972 94.3639 509.269 94.3642C506.828 94.3643 504.388 94.36 501.947 94.3547C500.797 94.3562 500.797 94.3562 499.624 94.3578C498.568 94.3542 498.568 94.3542 497.49 94.3506C496.866 94.35 496.242 94.3495 495.6 94.3489C494.187 94.2584 494.187 94.2584 493.55 93.5441C493.49 92.4221 493.474 91.297 493.476 90.1729C493.478 89.4845 493.479 88.7962 493.481 88.0869C493.486 87.3618 493.491 86.6368 493.496 85.8897C493.496 85.1756 493.496 84.4616 493.496 83.7258C493.499 83.0338 493.503 82.3418 493.506 81.6287C493.51 80.6791 493.51 80.6791 493.515 79.7103C493.604 77.8798 493.604 77.8798 494.256 74.322Z" fill="#0C0D31"/>
<path d="M596.998 521.827C602.91 521.847 608.821 521.868 614.912 521.889C614.868 534.577 614.825 547.265 614.779 560.338C608.868 560.317 602.956 560.297 596.865 560.276C596.909 547.588 596.953 534.9 596.998 521.827Z" fill="#0C0E31"/>
<path d="M599.085 582.987C599.805 582.994 600.526 583 601.268 583.006C601.968 583.01 602.668 583.015 603.389 583.019C604.733 583.033 604.733 583.033 606.104 583.048C610.359 583.085 610.359 583.085 614.701 583.122C614.659 595.34 614.616 607.558 614.573 620.147C608.661 620.126 602.75 620.106 596.659 620.085C596.662 614.926 596.667 609.768 596.677 604.61C596.68 602.853 596.682 601.097 596.682 599.34C596.683 596.822 596.688 594.303 596.694 591.785C596.693 590.994 596.693 590.204 596.692 589.389C596.695 588.662 596.697 587.935 596.7 587.186C596.701 586.543 596.701 585.899 596.702 585.236C596.826 583.024 597.08 583.078 599.085 582.987Z" fill="#0D0E32"/>
<path d="M578.661 644.232C582.114 644.244 584.92 644.276 588.229 644.804C590.642 645.132 593.065 645.163 595.492 645.227C596.039 645.244 596.585 645.26 597.149 645.278C598.875 645.33 600.602 645.378 602.329 645.426C603.508 645.461 604.687 645.496 605.866 645.531C608.738 645.617 611.611 645.699 614.484 645.779C614.531 648.346 614.557 650.912 614.578 653.478C614.591 654.208 614.605 654.937 614.619 655.688C614.623 656.388 614.626 657.088 614.63 657.809C614.638 658.454 614.646 659.099 614.654 659.764C614.43 661.444 614.43 661.444 613.676 662.714C612.063 663.896 610.884 663.876 608.959 663.925C608.237 663.948 607.516 663.971 606.773 663.994C605.611 664.014 605.611 664.014 604.425 664.035C603.237 664.066 603.237 664.066 602.026 664.099C594.213 664.285 586.405 664.246 578.592 664.168C578.615 657.589 578.638 651.01 578.661 644.232Z" fill="#0A0B2F"/>
<path d="M478.214 643.885C488.981 643.922 499.749 643.959 510.843 643.998C510.82 650.577 510.798 657.156 510.774 663.934C500.007 663.897 489.239 663.86 478.145 663.821C478.168 657.242 478.19 650.663 478.214 643.885Z" fill="#0D0E31"/>
<path d="M441.153 74.1386C451.921 74.1758 462.689 74.213 473.782 74.2513C473.549 80.8296 473.315 87.4079 473.074 94.1855C462.517 94.149 451.961 94.1126 441.084 94.075C441.107 87.496 441.13 80.917 441.153 74.1386Z" fill="#0C0D31"/>
<path d="M265.163 643.149C275.509 643.185 285.854 643.221 296.513 643.258C296.49 649.837 296.468 656.416 296.444 663.194C286.099 663.158 275.753 663.122 265.094 663.086C265.117 656.507 265.14 649.928 265.163 643.149Z" fill="#0C0D31"/>
<path d="M549.918 74.5142C552.807 74.5077 555.697 74.5035 558.587 74.505C559.567 74.5048 560.548 74.5034 561.528 74.5005C573.391 74.4682 573.391 74.4682 577.426 75.3212C579.203 77.3122 578.725 82.5429 578.734 85.2495C578.726 86.451 578.714 87.6525 578.699 88.854C578.694 89.4735 578.689 90.093 578.684 90.7313C578.671 92.2416 578.655 93.7518 578.637 95.262C569.011 95.3026 559.449 95.2753 549.849 94.4506C549.872 87.8716 549.894 81.2925 549.918 74.5142Z" fill="#0E0F32"/>
<path d="M277.367 73.5731C286.656 73.6052 295.946 73.6373 305.517 73.6703C305.495 80.2493 305.472 86.8283 305.449 93.6067C296.159 93.5746 286.869 93.5426 277.298 93.5095C277.32 86.9305 277.343 80.3515 277.367 73.5731Z" fill="#0E0F32"/>
<path d="M320.166 643.258C321.299 643.262 322.433 643.27 323.567 643.281C324.162 643.284 324.758 643.288 325.371 643.291C327.282 643.301 329.192 643.317 331.102 643.332C332.393 643.34 333.685 643.348 334.977 643.356C338.15 643.374 341.324 643.399 344.497 643.423C344.475 650.002 344.452 656.581 344.428 663.36C335.35 663.328 326.271 663.297 316.917 663.265C316.915 660.107 316.913 656.95 316.91 653.697C316.908 652.7 316.906 651.702 316.903 650.675C316.904 649.896 316.905 649.117 316.907 648.315C316.906 647.513 316.905 646.712 316.905 645.886C317.033 642.896 317.328 643.339 320.166 643.258Z" fill="#08092E"/>
<path d="M531.316 644.068C540.184 644.099 549.051 644.129 558.188 644.161C558.165 650.74 558.142 657.319 558.119 664.097C549.251 664.067 540.384 664.036 531.248 664.005C531.27 657.426 531.293 650.847 531.316 644.068Z" fill="#0D0E31"/>
<path d="M419.748 813.634C421.179 814.488 422.448 815.384 423.755 816.451C430.929 821.942 439.821 826.834 448.142 829.619C448.141 829.854 448.14 830.089 448.139 830.331C428.715 830.264 409.291 830.197 389.278 830.128C390.096 828.324 390.647 828.252 392.311 827.529C393.059 827.197 393.059 827.197 393.821 826.858C394.359 826.623 394.896 826.387 395.45 826.144C399.485 824.323 403.427 822.419 407.267 820.133C407.657 819.901 408.047 819.669 408.448 819.43C411.313 817.694 414.062 815.783 416.751 813.729C418.128 813.139 418.128 813.139 419.748 813.634Z" fill="#FAF9FB"/>
<path d="M519.162 273.062C522.144 275.624 522.144 275.624 522.647 278.111C522.753 279.961 522.763 281.784 522.738 283.638C522.743 284.691 522.743 284.691 522.748 285.765C522.754 288.084 522.736 290.401 522.718 292.719C522.714 294.332 522.712 295.945 522.71 297.558C522.703 300.938 522.685 304.318 522.658 307.698C522.625 312.028 522.62 316.357 522.625 320.686C522.625 324.017 522.61 327.348 522.59 330.679C522.582 332.275 522.579 333.871 522.581 335.468C522.582 337.701 522.561 339.932 522.536 342.165C522.54 342.823 522.544 343.481 522.549 344.16C522.492 347.261 522.338 349.332 520.543 351.789C518.517 353.903 518.138 354.197 515.362 354.353C513.123 354.212 513.123 354.212 511.849 352.784C515.017 352.442 515.017 352.442 518.249 352.094C518.04 351.388 517.832 350.682 517.617 349.955C518.251 349.605 518.251 349.605 518.899 349.248C518.897 349.718 518.895 350.188 518.894 350.672C519.316 350.673 519.738 350.675 520.173 350.676C520.47 326.006 520.766 301.335 521.071 275.917C520.649 275.916 520.227 275.914 519.792 275.913C519.584 274.972 519.376 274.031 519.162 273.062Z" fill="#21A3E5"/>
<path d="M327.229 270.976C329.234 271.647 330.242 272.15 331.537 274.017C333.193 278.111 333.048 282.407 333.046 286.813C333.048 287.46 333.05 288.106 333.052 288.772C333.057 290.902 333.057 293.031 333.056 295.16C333.056 295.889 333.056 296.618 333.056 297.37C333.056 301.225 333.052 305.08 333.045 308.935C333.038 312.915 333.047 316.894 333.058 320.873C333.064 323.937 333.059 327.001 333.051 330.065C333.049 331.532 333.051 332.999 333.058 334.466C333.067 336.518 333.059 338.569 333.047 340.621C333.054 341.225 333.06 341.829 333.066 342.451C333.023 346.266 332.432 348.421 330.15 351.444C328.356 353.01 327.242 353.523 324.983 353.874C322.696 353.487 321.983 352.669 320.556 350.699C320.885 350.818 321.215 350.936 321.554 351.059C323.612 351.536 325.494 351.555 327.591 351.435C329.674 350.216 329.674 350.216 330.163 347.884C330.585 347.886 331.007 347.887 331.442 347.889C331.315 323.687 331.187 299.484 331.056 274.549C330.423 274.312 329.79 274.075 329.139 273.83C329.14 273.36 329.142 272.89 329.144 272.406C328.3 272.168 327.456 271.931 326.587 271.685C326.799 271.451 327.011 271.217 327.229 270.976Z" fill="#41B1E9"/>
<path d="M423.356 410.864C425.128 412.042 426.472 413.42 427.82 415.152C427.607 415.621 427.394 416.09 427.175 416.573C426.086 415.658 425.023 414.702 423.986 413.714C423.987 413.244 423.989 412.774 423.991 412.29C421.457 412.281 418.923 412.273 416.313 412.264C415.888 413.202 415.462 414.14 415.024 415.107C414.601 415.106 414.179 415.104 413.744 415.103C413.649 415.91 413.554 416.718 413.456 417.549C413.087 420.085 413.087 420.085 412.445 420.795C412.371 422.516 412.339 424.217 412.334 425.939C412.33 426.478 412.326 427.016 412.322 427.571C412.31 429.36 412.302 431.148 412.295 432.937C412.289 434.176 412.283 435.415 412.276 436.654C412.263 439.256 412.253 441.857 412.245 444.459C412.233 447.796 412.213 451.132 412.19 454.469C412.174 457.03 412.164 459.59 412.156 462.151C412.151 463.381 412.144 464.612 412.134 465.842C412.122 467.562 412.118 469.282 412.116 471.002C412.111 471.512 412.105 472.023 412.1 472.549C412.106 475.16 412.193 476.231 413.525 478.472C413.523 479.177 413.52 479.882 413.518 480.608C415.634 481.328 417.546 481.408 419.753 481.386C420.383 481.382 421.014 481.378 421.663 481.373C422.141 481.367 422.62 481.36 423.112 481.353C422.798 480.647 422.798 480.647 422.477 479.927C423.743 480.166 425.009 480.406 426.314 480.652C426.312 481.122 426.311 481.592 426.309 482.076C422.979 484.31 419.175 483.994 415.427 483.463C413.6 482.493 412.929 481.668 411.601 479.89C410.818 477.241 410.874 474.777 410.875 472.021C410.873 471.437 410.871 470.853 410.869 470.252C410.863 468.319 410.862 466.386 410.862 464.453C410.862 463.793 410.861 463.133 410.861 462.452C410.86 458.957 410.863 455.462 410.869 451.967C410.874 448.359 410.865 444.751 410.852 441.142C410.845 438.366 410.849 435.59 410.856 432.814C410.858 431.484 410.855 430.154 410.847 428.824C410.838 426.961 410.845 425.099 410.856 423.236C410.85 422.689 410.844 422.141 410.837 421.578C410.882 417.881 411.666 415.819 413.752 412.967C416.537 410.014 419.711 410.114 423.356 410.864Z" fill="#24A5E6"/>
<path d="M371.342 836.474C371.975 836.711 372.607 836.948 373.259 837.193C373.257 837.663 373.256 838.133 373.254 838.617C401.968 838.716 430.682 838.815 460.266 838.917C460.265 839.152 460.264 839.387 460.263 839.629C431.338 839.529 402.413 839.429 372.612 839.327C372.193 838.385 371.774 837.444 371.342 836.474Z" fill="#15142F"/>
<path d="M396.326 827.304C395.692 827.537 395.058 827.77 394.404 828.009C394.402 828.479 394.401 828.949 394.399 829.433C395.054 829.424 395.708 829.414 396.382 829.404C402.54 829.312 408.697 829.228 414.855 829.152C418.021 829.112 421.187 829.07 424.353 829.022C427.406 828.975 430.459 828.936 433.513 828.901C434.68 828.886 435.847 828.869 437.013 828.85C438.644 828.823 440.274 828.805 441.904 828.789C442.39 828.779 442.876 828.769 443.376 828.759C444.54 828.752 445.703 828.82 446.865 828.903C447.496 829.61 447.496 829.61 448.139 830.331C428.715 830.264 409.291 830.197 389.278 830.128C390.108 828.297 390.747 828.207 392.446 827.513C392.902 827.321 393.357 827.129 393.826 826.931C395.049 826.588 395.049 826.588 396.326 827.304Z" fill="#ECECF9"/>
<path d="M320.166 643.258C321.299 643.262 322.433 643.27 323.567 643.281C324.162 643.284 324.758 643.288 325.371 643.291C327.282 643.301 329.192 643.317 331.102 643.332C332.393 643.34 333.685 643.348 334.977 643.356C338.15 643.374 341.324 643.398 344.497 643.423C344.496 643.658 344.496 643.893 344.495 644.135C335.838 644.34 327.18 644.545 318.261 644.757C318.24 650.866 318.219 656.975 318.197 663.269C317.775 663.268 317.352 663.266 316.917 663.265C316.91 660.075 316.91 656.886 316.91 653.697C316.908 652.786 316.906 651.875 316.904 650.936C316.905 650.071 316.906 649.206 316.907 648.315C316.906 647.513 316.905 646.712 316.905 645.886C317.033 642.896 317.328 643.339 320.166 643.258Z" fill="#47475E"/>
<path d="M578.661 644.232C584.419 644.252 584.419 644.252 586.334 645.682C585.021 645.84 583.708 645.998 582.396 646.155C581.206 646.248 581.206 646.248 580.571 647.086C580.401 649.543 580.435 652.01 580.425 654.473C580.415 655.165 580.405 655.857 580.394 656.57C580.391 657.235 580.387 657.899 580.383 658.584C580.379 659.194 580.374 659.805 580.369 660.434C580.425 662.24 580.425 662.24 581.791 664.179C580.736 664.175 579.68 664.172 578.592 664.168C578.615 657.589 578.638 651.01 578.661 644.232Z" fill="#222239"/>
<path d="M428.245 477.099C428.721 478.302 428.721 478.302 428.875 479.949C427.727 481.83 426.868 483.189 425.022 484.208C423.349 484.273 421.696 484.296 420.023 484.28C419.568 484.281 419.112 484.282 418.642 484.283C416.21 484.27 413.951 484.109 411.589 483.45C411.592 482.51 411.595 481.57 411.599 480.602C412.876 481.318 414.153 482.035 415.43 482.751C416.788 482.825 418.149 482.853 419.508 482.854C420.239 482.858 420.97 482.863 421.723 482.867C423.393 482.795 424.745 482.709 426.309 482.076C427.237 480.459 427.692 478.925 428.245 477.099Z" fill="#C5F6FE"/>
<path d="M521.458 349.257C521.666 350.197 521.873 351.138 522.088 352.107C521.665 352.106 521.243 352.104 520.808 352.103C520.594 353.042 520.379 353.981 520.158 354.948C519.053 355.104 517.946 355.246 516.838 355.382C516.222 355.462 515.605 355.543 514.97 355.626C512.94 355.637 511.708 355.259 509.924 354.201C509.41 352.686 509.41 352.686 509.294 351.351C509.834 351.705 510.374 352.059 510.93 352.424C513.434 353.651 514.897 353.944 517.604 353.516C519.464 351.875 519.464 351.875 520.815 349.966C521.027 349.732 521.239 349.498 521.458 349.257Z" fill="#DBFBFE"/>
</g>
<path d="M890.4 413.4C890.4 418.6 892.2 423.1 895.8 426.9C899.6 430.5 904.1 432.3 909.3 432.3C914.7 432.3 919.2 430.5 922.8 426.9C926.6 423.1 928.5 418.6 928.5 413.4C928.5 408 926.6 403.5 922.8 399.9C919.2 396.1 914.7 394.2 909.3 394.2C904.1 394.2 899.6 396.1 895.8 399.9C892.2 403.5 890.4 408 890.4 413.4ZM870.6 413.4C870.6 406 872.3 399.4 875.7 393.6C879.3 387.8 884 383.2 889.8 379.8C895.6 376.2 902.1 374.4 909.3 374.4C916.7 374.4 923.3 376.2 929.1 379.8C934.9 383.2 939.5 387.8 942.9 393.6C946.5 399.4 948.3 406 948.3 413.4C948.3 420.4 946.5 426.9 942.9 432.9C939.5 438.7 934.9 443.4 929.1 447C923.3 450.4 916.7 452.1 909.3 452.1C902.1 452.1 895.6 450.4 889.8 447C884 443.4 879.3 438.7 875.7 432.9C872.3 426.9 870.6 420.4 870.6 413.4ZM684 511.5C688.6 507.7 692.7 504.1 696.3 500.7C699.9 497.3 704.1 493.3 708.9 488.7C712.3 485.1 716.2 480.8 720.6 475.8C725 470.8 729.7 465.2 734.7 459C739.9 452.8 745.2 446.5 750.6 440.1C756 433.5 761.3 427.1 766.5 420.9C775.3 410.3 784.4 404.5 793.8 403.5C803.2 402.3 813.7 407.3 825.3 418.5C832.1 424.7 839 431.4 846 438.6C853.2 445.8 860.2 453 867 460.2C874 467.4 880.5 474.3 886.5 480.9C893.3 487.9 900.9 496 909.3 505.2C917.9 514.4 926.6 523.8 935.4 533.4C944.4 543 952.7 551.9 960.3 560.1L927.3 595.5C920.7 587.1 913.6 578.3 906 569.1C898.4 559.9 891 551 883.8 542.4C876.6 533.6 870 525.8 864 519C859.8 513.8 855 508.3 849.6 502.5C844.4 496.5 839.2 490.6 834 484.8C828.8 479 824 473.8 819.6 469.2C815.2 464.6 811.7 460.9 809.1 458.1C804.1 453.3 799.8 451.1 796.2 451.5C792.8 451.7 788.9 454.5 784.5 459.9C781.7 463.7 778.3 468.2 774.3 473.4C770.3 478.6 766.2 484.1 762 489.9C757.8 495.7 753.7 501.3 749.7 506.7C745.9 512.1 742.5 516.8 739.5 520.8C736.1 525.6 732.7 530.5 729.3 535.5C725.9 540.3 722.8 544.7 720 548.7L684 511.5Z" fill="#04A8FD"/>
<path d="M887.4 185.4C887.4 204 886 220.9 883.2 236.1C880.6 251.1 876 264.8 869.4 277.2C862.8 289.4 853.6 300.4 841.8 310.2C830 320 815.1 328.9 797.1 336.9L765 306.6C779.4 301.6 791.8 296 802.2 289.8C812.8 283.6 821.5 276 828.3 267C835.1 257.8 840.1 246.8 843.3 234C846.7 221 848.4 205.3 848.4 186.9V107.1C848.4 100.9 848.2 95.5 847.8 90.9C847.4 86.1 847 82.2 846.6 79.2H889.5C889.1 82.2 888.6 86.1 888 90.9C887.6 95.5 887.4 100.9 887.4 107.1V185.4ZM779.1 81.9C778.7 84.7 778.3 88.5 777.9 93.3C777.5 97.9 777.3 103.1 777.3 108.9V216.3C777.3 220.7 777.4 225 777.6 229.2C777.8 233.2 777.9 236.8 777.9 240C778.1 243 778.3 245.6 778.5 247.8H736.5C736.9 245.6 737.2 243 737.4 240C737.6 236.8 737.8 233.2 738 229.2C738.2 225 738.3 220.7 738.3 216.3V108.9C738.3 104.5 738.1 100 737.7 95.4C737.5 90.8 737.1 86.3 736.5 81.9H779.1ZM680.1 135.9C682.1 136.1 684.7 136.5 687.9 137.1C691.1 137.5 694.8 137.9 699 138.3C703.2 138.5 707.8 138.6 712.8 138.6H909.6C917.6 138.6 924.1 138.4 929.1 138C934.1 137.6 938.6 137.1 942.6 136.5V176.4C939.4 176 935.1 175.8 929.7 175.8C924.3 175.6 917.6 175.5 909.6 175.5H712.8C707.8 175.5 703.2 175.6 699 175.8C695 175.8 691.4 175.9 688.2 176.1C685.2 176.3 682.5 176.5 680.1 176.7V135.9Z" fill="#04A8FD"/>
<path d="M1257.2 123.4C1255.6 126.2 1253.9 129.6 1252.1 133.6C1250.3 137.4 1248.7 141.2 1247.3 145C1244.7 153.8 1241 163.9 1236.2 175.3C1231.6 186.5 1225.8 198.2 1218.8 210.4C1212 222.4 1204.1 234 1195.1 245.2C1180.7 262.4 1163.9 278 1144.7 292C1125.7 306 1102.1 318.6 1073.9 329.8L1038.5 298C1058.9 292 1076.5 285.1 1091.3 277.3C1106.1 269.5 1119 261.2 1130 252.4C1141 243.4 1150.8 233.9 1159.4 223.9C1166.4 216.1 1172.8 207.3 1178.6 197.5C1184.4 187.5 1189.4 177.6 1193.6 167.8C1197.8 158 1200.6 149.4 1202 142H1100.9L1114.7 108.1C1117.5 108.1 1121.8 108.1 1127.6 108.1C1133.6 108.1 1140.3 108.1 1147.7 108.1C1155.3 108.1 1162.7 108.1 1169.9 108.1C1177.3 108.1 1183.7 108.1 1189.1 108.1C1194.7 108.1 1198.5 108.1 1200.5 108.1C1205.1 108.1 1209.7 107.8 1214.3 107.2C1219.1 106.6 1223.2 105.7 1226.6 104.5L1257.2 123.4ZM1159.4 76C1155.8 81.2 1152.3 86.8 1148.9 92.8C1145.5 98.8 1142.9 103.4 1141.1 106.6C1134.3 118.6 1125.9 131.1 1115.9 144.1C1106.1 156.9 1094.9 169.4 1082.3 181.6C1069.7 193.6 1056.3 204.6 1042.1 214.6L1008.2 189.7C1021.4 181.5 1033 173.1 1043 164.5C1053.2 155.9 1062 147.4 1069.4 139C1076.8 130.4 1083.1 122.2 1088.3 114.4C1093.7 106.4 1098.3 99.3 1102.1 93.1C1104.5 89.3 1107 84.4 1109.6 78.4C1112.2 72.2 1114.2 66.6 1115.6 61.6L1159.4 76Z" fill="#04A8FD"/>
<path d="M1193.5 367.6C1196.3 371.8 1199.3 376.7 1202.5 382.3C1205.9 387.7 1209.2 393.2 1212.4 398.8C1215.6 404.2 1218.4 409.3 1220.8 414.1L1194.7 425.2C1191.7 418.8 1188.9 413.1 1186.3 408.1C1183.7 402.9 1180.9 397.9 1177.9 393.1C1175.1 388.1 1171.9 383.1 1168.3 378.1L1193.5 367.6ZM1234.6 353.2C1237.8 357 1241.1 361.6 1244.5 367C1247.9 372.4 1251.2 377.8 1254.4 383.2C1257.6 388.6 1260.4 393.5 1262.8 397.9L1237.3 409.3C1234.1 403.1 1231 397.5 1228 392.5C1225.2 387.5 1222.3 382.7 1219.3 378.1C1216.3 373.5 1212.9 368.7 1209.1 363.7L1234.6 353.2ZM1063 361.9C1068 364.5 1073.6 367.7 1079.8 371.5C1086 375.3 1092.3 379.3 1098.7 383.5C1105.1 387.5 1111.2 391.4 1117 395.2C1122.8 398.8 1127.6 402 1131.4 404.8L1109.2 437.8C1105 435 1100 431.7 1094.2 427.9C1088.6 424.1 1082.6 420.2 1076.2 416.2C1070 412.2 1063.8 408.4 1057.6 404.8C1051.6 401 1046.2 397.7 1041.4 394.9L1063 361.9ZM1007.5 574.9C1018.7 572.9 1030.1 570.4 1041.7 567.4C1053.3 564.4 1064.8 560.8 1076.2 556.6C1087.6 552.2 1098.7 547 1109.5 541C1126.5 531.4 1142.3 520.6 1156.9 508.6C1171.7 496.6 1185 483.9 1196.8 470.5C1208.6 456.9 1218.4 442.9 1226.2 428.5L1249.3 469.3C1235.5 490.1 1218.3 509.8 1197.7 528.4C1177.3 546.8 1154.8 563.1 1130.2 577.3C1120 582.9 1108.8 588.3 1096.6 593.5C1084.4 598.5 1072.4 602.8 1060.6 606.4C1049 610 1038.8 612.6 1030 614.2L1007.5 574.9ZM1016.8 430.3C1021.8 432.9 1027.5 436.1 1033.9 439.9C1040.3 443.7 1046.7 447.6 1053.1 451.6C1059.5 455.4 1065.5 459.2 1071.1 463C1076.9 466.6 1081.7 469.8 1085.5 472.6L1063.6 506.2C1059.2 503.2 1054.1 499.8 1048.3 496C1042.7 492.2 1036.7 488.3 1030.3 484.3C1024.1 480.3 1017.9 476.5 1011.7 472.9C1005.7 469.1 1000.2 465.9 995.2 463.3L1016.8 430.3Z" fill="#04A8FD"/>
<defs>
<clipPath id="clip0_0_1">
<rect width="818.938" height="911.384" fill="white" transform="translate(3.1467) rotate(0.197824)"/>
</clipPath>
</defs>
</svg>
