<svg width="218" height="90" viewBox="0 0 218 90" fill="none" xmlns="http://www.w3.org/2000/svg">
<rect width="218" height="90" fill="#F5F5F5"/>
<g filter="url(#filter0_d_4_2)">
<path d="M4 41C4 18.3563 22.3563 0 45 0H173C195.644 0 214 18.3563 214 41C214 63.6437 195.644 82 173 82H45C22.3563 82 4 63.6437 4 41Z" fill="#00BBFF"/>
<path d="M45 0.5H173C195.368 0.5 213.5 18.6325 213.5 41C213.5 63.3675 195.368 81.5 173 81.5H45C22.6325 81.5 4.5 63.3675 4.5 41C4.5 18.6325 22.6325 0.5 45 0.5Z" stroke="white"/>
</g>
<path d="M63.784 34.936H75.72V37.176H63.784V34.936ZM46.952 27.48H61.096V29.496H46.952V27.48ZM46.6 40.152H61.224V42.264H46.6V40.152ZM46.504 34.776H61.48V36.824H46.504V34.776ZM69.768 35.832H72.072V53.4H69.768V35.832ZM52.904 24.248H55.24V28.504H52.904V24.248ZM52.904 36.472H55.24V53.496H52.904V36.472ZM62.632 26.744L65.576 27.64C65.5547 27.8747 65.3413 28.024 64.936 28.088V37.976C64.936 39.1707 64.872 40.4507 64.744 41.816C64.6373 43.1813 64.4133 44.568 64.072 45.976C63.7307 47.3627 63.2187 48.7173 62.536 50.04C61.8533 51.3627 60.9573 52.5787 59.848 53.688C59.7413 53.5173 59.5813 53.3253 59.368 53.112C59.176 52.8987 58.9627 52.6853 58.728 52.472C58.5147 52.28 58.312 52.1413 58.12 52.056C59.144 51.0533 59.9547 49.9653 60.552 48.792C61.1707 47.6187 61.6187 46.4133 61.896 45.176C62.1947 43.9387 62.3867 42.712 62.472 41.496C62.5787 40.2587 62.632 39.0747 62.632 37.944V26.744ZM73.352 24.472L75.304 26.232C74.3013 26.68 73.16 27.1067 71.88 27.512C70.6 27.896 69.2773 28.248 67.912 28.568C66.568 28.8667 65.256 29.1333 63.976 29.368C63.912 29.112 63.8053 28.8027 63.656 28.44C63.5067 28.056 63.3573 27.7467 63.208 27.512C64.4027 27.256 65.6293 26.968 66.888 26.648C68.168 26.328 69.3733 25.9867 70.504 25.624C71.6347 25.24 72.584 24.856 73.352 24.472ZM54.984 42.84C55.24 43.0107 55.6133 43.2987 56.104 43.704C56.616 44.088 57.16 44.5147 57.736 44.984C58.312 45.4533 58.8347 45.8907 59.304 46.296C59.7733 46.68 60.1147 46.9573 60.328 47.128L58.888 48.92C58.632 48.6213 58.28 48.248 57.832 47.8C57.384 47.352 56.8933 46.8827 56.36 46.392C55.848 45.88 55.3467 45.4107 54.856 44.984C54.3867 44.536 54.0027 44.1947 53.704 43.96L54.984 42.84ZM48.872 30.104L50.792 29.656C51.112 30.36 51.4 31.1387 51.656 31.992C51.912 32.8453 52.0827 33.5813 52.168 34.2L50.12 34.744C50.0773 34.104 49.9387 33.3573 49.704 32.504C49.4693 31.6293 49.192 30.8293 48.872 30.104ZM57.096 29.592L59.272 30.072C58.9733 30.8827 58.664 31.704 58.344 32.536C58.024 33.368 57.7147 34.0827 57.416 34.68L55.464 34.2C55.656 33.7733 55.848 33.2933 56.04 32.76C56.2533 32.2267 56.456 31.6827 56.648 31.128C56.84 30.552 56.9893 30.04 57.096 29.592ZM52.904 41.24L54.632 41.912C54.0987 43.064 53.4373 44.2373 52.648 45.432C51.8587 46.6053 51.016 47.704 50.12 48.728C49.2453 49.7307 48.3813 50.5627 47.528 51.224C47.336 50.9467 47.08 50.648 46.76 50.328C46.4613 49.9867 46.1733 49.7093 45.896 49.496C46.7707 48.9413 47.6453 48.216 48.52 47.32C49.416 46.424 50.248 45.4427 51.016 44.376C51.784 43.3093 52.4133 42.264 52.904 41.24ZM79.08 29.432H90.472V31.608H79.08V29.432ZM78.408 36.856H91.08V39.064H78.408V36.856ZM83.688 24.44H85.96V35.512C85.96 36.92 85.896 38.424 85.768 40.024C85.6613 41.6027 85.4053 43.192 85 44.792C84.616 46.3707 84.008 47.8853 83.176 49.336C82.3653 50.7653 81.256 52.056 79.848 53.208C79.7413 53.016 79.592 52.8133 79.4 52.6C79.208 52.3867 79.0053 52.1733 78.792 51.96C78.6 51.7467 78.408 51.576 78.216 51.448C79.5173 50.4667 80.5413 49.3253 81.288 48.024C82.0347 46.7013 82.568 45.3147 82.888 43.864C83.2293 42.4133 83.4427 40.9733 83.528 39.544C83.6347 38.1147 83.688 36.7707 83.688 35.512V24.44ZM85.448 40.664C85.6613 40.856 85.96 41.1653 86.344 41.592C86.7493 42.0187 87.1867 42.4987 87.656 43.032C88.1467 43.544 88.6267 44.0667 89.096 44.6C89.5867 45.1333 90.0133 45.6133 90.376 46.04C90.76 46.4667 91.0267 46.776 91.176 46.968L89.544 48.76C89.2667 48.3547 88.8827 47.832 88.392 47.192C87.9013 46.552 87.3787 45.8907 86.824 45.208C86.2693 44.504 85.736 43.8533 85.224 43.256C84.712 42.6587 84.296 42.1893 83.976 41.848L85.448 40.664ZM94.504 32.696V35.832H103.688V32.696H94.504ZM94.504 37.816V41.048H103.688V37.816H94.504ZM94.504 27.544V30.68H103.688V27.544H94.504ZM92.264 25.368H105.992V43.192H92.264V25.368ZM99.912 42.264H102.184V50.008C102.184 50.3707 102.227 50.6053 102.312 50.712C102.397 50.8187 102.611 50.872 102.952 50.872C103.059 50.872 103.251 50.872 103.528 50.872C103.805 50.872 104.083 50.872 104.36 50.872C104.659 50.872 104.872 50.872 105 50.872C105.235 50.872 105.405 50.776 105.512 50.584C105.64 50.392 105.725 49.9973 105.768 49.4C105.832 48.8027 105.875 47.8747 105.896 46.616C106.067 46.744 106.269 46.872 106.504 47C106.739 47.128 106.984 47.2347 107.24 47.32C107.517 47.4053 107.752 47.48 107.944 47.544C107.88 48.9947 107.752 50.1147 107.56 50.904C107.389 51.6933 107.123 52.2373 106.76 52.536C106.397 52.8347 105.896 52.984 105.256 52.984C105.149 52.984 104.968 52.984 104.712 52.984C104.477 52.984 104.221 52.984 103.944 52.984C103.667 52.984 103.4 52.984 103.144 52.984C102.909 52.984 102.739 52.984 102.632 52.984C101.907 52.984 101.341 52.8987 100.936 52.728C100.552 52.5573 100.285 52.248 100.136 51.8C99.9867 51.3733 99.912 50.776 99.912 50.008V42.264ZM94.888 42.68H97.192C97.0427 43.96 96.808 45.1547 96.488 46.264C96.1893 47.352 95.752 48.3547 95.176 49.272C94.6213 50.168 93.8747 50.968 92.936 51.672C91.9973 52.3973 90.824 53.016 89.416 53.528C89.3093 53.2507 89.1067 52.9307 88.808 52.568C88.5307 52.2267 88.2747 51.9493 88.04 51.736C89.7467 51.1813 91.0693 50.4667 92.008 49.592C92.9467 48.7173 93.6187 47.704 94.024 46.552C94.4507 45.3787 94.7387 44.088 94.888 42.68ZM119.08 33.048H130.92V35.096H119.08V33.048ZM111.112 50.776H138.984V52.824H111.112V50.776ZM113 25.336H122.504V27.352H113V25.336ZM121.736 25.336H122.12L122.568 25.24L124.136 26.04C123.539 27.576 122.771 29.0053 121.832 30.328C120.915 31.6507 119.88 32.8667 118.728 33.976C117.576 35.0853 116.36 36.0773 115.08 36.952C113.821 37.8053 112.563 38.5307 111.304 39.128C111.133 38.872 110.909 38.5627 110.632 38.2C110.355 37.8373 110.088 37.5493 109.832 37.336C111.005 36.8453 112.189 36.2053 113.384 35.416C114.579 34.6267 115.709 33.7307 116.776 32.728C117.864 31.7253 118.835 30.6373 119.688 29.464C120.541 28.2907 121.224 27.064 121.736 25.784V25.336ZM127.144 24.184C127.955 25.9973 129.011 27.7253 130.312 29.368C131.635 31.0107 133.117 32.472 134.76 33.752C136.424 35.032 138.184 36.024 140.04 36.728C139.848 36.8987 139.645 37.1013 139.432 37.336C139.24 37.5493 139.048 37.784 138.856 38.04C138.685 38.2747 138.525 38.4987 138.376 38.712C136.499 37.8587 134.717 36.7387 133.032 35.352C131.368 33.9653 129.853 32.376 128.488 30.584C127.144 28.792 126.024 26.8827 125.128 24.856L127.144 24.184ZM112.136 29.88L113.448 28.536C114.024 28.856 114.6 29.2293 115.176 29.656C115.773 30.0613 116.317 30.4773 116.808 30.904C117.32 31.3307 117.725 31.736 118.024 32.12L116.712 33.592C116.243 33.0373 115.571 32.408 114.696 31.704C113.821 31 112.968 30.392 112.136 29.88ZM133.544 24.376L135.4 25.688C134.568 26.456 133.64 27.2347 132.616 28.024C131.613 28.8133 130.685 29.496 129.832 30.072L128.36 28.92C128.915 28.5147 129.512 28.056 130.152 27.544C130.792 27.0107 131.411 26.4667 132.008 25.912C132.605 25.3573 133.117 24.8453 133.544 24.376ZM137.16 28.152L138.952 29.432C138.099 30.2213 137.139 31.0213 136.072 31.832C135.027 32.6427 134.067 33.3253 133.192 33.88L131.72 32.728C132.296 32.3227 132.915 31.864 133.576 31.352C134.259 30.8187 134.909 30.2747 135.528 29.72C136.168 29.1653 136.712 28.6427 137.16 28.152ZM118.472 39.736V43.928H131.432V39.736H118.472ZM116.136 37.72H133.896V45.912H116.136V37.72ZM117.992 46.424L120.168 45.848C120.616 46.5307 121.032 47.2987 121.416 48.152C121.8 48.984 122.077 49.7093 122.248 50.328L119.944 51.032C119.795 50.4133 119.539 49.6667 119.176 48.792C118.813 47.9173 118.419 47.128 117.992 46.424ZM129.896 45.752L132.2 46.36C131.773 47.2133 131.336 48.056 130.888 48.888C130.44 49.72 130.013 50.4453 129.608 51.064L127.528 50.488C127.805 50.0613 128.093 49.5707 128.392 49.016C128.691 48.4613 128.968 47.896 129.224 47.32C129.501 46.7227 129.725 46.2 129.896 45.752ZM169.608 38.168L171.496 39.352C170.856 40.1413 170.163 40.9307 169.416 41.72C168.691 42.5093 168.019 43.2027 167.4 43.8L165.864 42.712C166.269 42.3067 166.696 41.848 167.144 41.336C167.613 40.8027 168.061 40.2587 168.488 39.704C168.936 39.128 169.309 38.616 169.608 38.168ZM155.304 39.736L156.904 38.712C157.608 39.3307 158.291 40.0453 158.952 40.856C159.635 41.6667 160.136 42.3707 160.456 42.968L158.728 44.152C158.429 43.5333 157.949 42.808 157.288 41.976C156.627 41.144 155.965 40.3973 155.304 39.736ZM156.296 25.4H169.096V36.12H166.856V27.448H156.296V25.4ZM156.936 30.2H168.136V32.12H156.936V30.2ZM154.632 34.936H171.752V37.016H154.632V34.936ZM161.8 35.896H164.04V51.032C164.04 51.6293 163.976 52.088 163.848 52.408C163.72 52.7493 163.453 53.0053 163.048 53.176C162.685 53.3467 162.195 53.4533 161.576 53.496C160.979 53.5387 160.232 53.56 159.336 53.56C159.315 53.2613 159.24 52.9093 159.112 52.504C158.984 52.0987 158.845 51.7467 158.696 51.448C159.293 51.4693 159.837 51.48 160.328 51.48C160.819 51.48 161.16 51.48 161.352 51.48C161.544 51.4587 161.661 51.416 161.704 51.352C161.768 51.288 161.8 51.1707 161.8 51V35.896ZM153.928 49.368C154.781 48.856 155.784 48.216 156.936 47.448C158.088 46.6587 159.272 45.8587 160.488 45.048L161.192 46.872C160.168 47.6613 159.123 48.44 158.056 49.208C157.011 49.976 156.019 50.6907 155.08 51.352L153.928 49.368ZM163.944 37.336C164.2 38.4027 164.541 39.5227 164.968 40.696C165.416 41.848 165.971 42.9893 166.632 44.12C167.315 45.2507 168.125 46.296 169.064 47.256C170.003 48.1947 171.08 48.9947 172.296 49.656C172.147 49.8053 171.976 49.9973 171.784 50.232C171.592 50.4453 171.4 50.68 171.208 50.936C171.037 51.192 170.888 51.4267 170.76 51.64C169.544 50.8933 168.477 50.008 167.56 48.984C166.643 47.9387 165.853 46.8293 165.192 45.656C164.552 44.4827 164.019 43.32 163.592 42.168C163.165 41.016 162.835 39.9493 162.6 38.968L163.944 37.336ZM144.456 32.056H153.576V34.104H144.456V32.056ZM142.76 37.528H154.472V39.64H142.76V37.528ZM143.464 41.72L145.128 41.336C145.469 42.296 145.757 43.3413 145.992 44.472C146.227 45.6027 146.376 46.5733 146.44 47.384L144.648 47.832C144.627 47 144.499 46.0187 144.264 44.888C144.051 43.7573 143.784 42.7013 143.464 41.72ZM142.44 50.36C143.443 50.168 144.584 49.9547 145.864 49.72C147.165 49.464 148.541 49.1973 149.992 48.92C151.443 48.6213 152.883 48.3333 154.312 48.056L154.504 50.072C152.456 50.52 150.419 50.968 148.392 51.416C146.365 51.864 144.552 52.248 142.952 52.568L142.44 50.36ZM152.36 41.048L154.248 41.528C153.971 42.5093 153.693 43.5333 153.416 44.6C153.139 45.6453 152.861 46.5413 152.584 47.288L151.016 46.808C151.187 46.296 151.357 45.6987 151.528 45.016C151.699 44.312 151.859 43.6187 152.008 42.936C152.157 42.232 152.275 41.6027 152.36 41.048ZM147.752 32.824H149.896V50.264L147.752 50.584V32.824ZM147.656 24.12H148.936V24.632H149.64V25.272C149.021 26.488 148.179 27.8853 147.112 29.464C146.045 31.0213 144.723 32.504 143.144 33.912C143.016 33.7413 142.867 33.56 142.696 33.368C142.525 33.176 142.344 32.9947 142.152 32.824C141.96 32.632 141.789 32.4827 141.64 32.376C142.621 31.5653 143.496 30.6907 144.264 29.752C145.032 28.792 145.693 27.832 146.248 26.872C146.824 25.8907 147.293 24.9733 147.656 24.12ZM148.04 24.12H149.832C150.472 24.696 151.133 25.336 151.816 26.04C152.499 26.7227 153.139 27.4053 153.736 28.088C154.355 28.7493 154.845 29.3573 155.208 29.912L153.608 31.704C153.245 31.1707 152.776 30.552 152.2 29.848C151.645 29.1227 151.048 28.408 150.408 27.704C149.768 26.9787 149.139 26.3493 148.52 25.816H148.04V24.12Z" fill="white"/>
<defs>
<filter id="filter0_d_4_2" x="0" y="0" width="218" height="90" filterUnits="userSpaceOnUse" color-interpolation-filters="sRGB">
<feFlood flood-opacity="0" result="BackgroundImageFix"/>
<feColorMatrix in="SourceAlpha" type="matrix" values="0 0 0 0 0 0 0 0 0 0 0 0 0 0 0 0 0 0 127 0" result="hardAlpha"/>
<feOffset dy="4"/>
<feGaussianBlur stdDeviation="2"/>
<feComposite in2="hardAlpha" operator="out"/>
<feColorMatrix type="matrix" values="0 0 0 0 0 0 0 0 0 0 0 0 0 0 0 0 0 0 0.25 0"/>
<feBlend mode="normal" in2="BackgroundImageFix" result="effect1_dropShadow_4_2"/>
<feBlend mode="normal" in="SourceGraphic" in2="effect1_dropShadow_4_2" result="shape"/>
</filter>
</defs>
</svg>
